%TF.GenerationSoftware,KiCad,Pcbnew,10.0.2*%
%TF.CreationDate,2026-05-10T11:55:00-07:00*%
%TF.ProjectId,KiCAD_Camsat_PCB,4b694341-445f-4436-916d-7361745f5043,rev?*%
%TF.SameCoordinates,Original*%
%TF.FileFunction,Legend,Top*%
%TF.FilePolarity,Positive*%
%FSLAX46Y46*%
G04 Gerber Fmt 4.6, Leading zero omitted, Abs format (unit mm)*
G04 Created by KiCad (PCBNEW 10.0.2) date 2026-05-10 11:55:00*
%MOMM*%
%LPD*%
G01*
G04 APERTURE LIST*
%ADD10C,0.100000*%
%ADD11C,0.150000*%
%ADD12C,0.300000*%
%ADD13C,0.120000*%
%ADD14C,0.127000*%
%ADD15C,0.200000*%
%ADD16C,0.000000*%
G04 APERTURE END LIST*
D10*
X77208646Y-83372419D02*
X77827693Y-83372419D01*
X77827693Y-83372419D02*
X77494360Y-83753371D01*
X77494360Y-83753371D02*
X77637217Y-83753371D01*
X77637217Y-83753371D02*
X77732455Y-83800990D01*
X77732455Y-83800990D02*
X77780074Y-83848609D01*
X77780074Y-83848609D02*
X77827693Y-83943847D01*
X77827693Y-83943847D02*
X77827693Y-84181942D01*
X77827693Y-84181942D02*
X77780074Y-84277180D01*
X77780074Y-84277180D02*
X77732455Y-84324800D01*
X77732455Y-84324800D02*
X77637217Y-84372419D01*
X77637217Y-84372419D02*
X77351503Y-84372419D01*
X77351503Y-84372419D02*
X77256265Y-84324800D01*
X77256265Y-84324800D02*
X77208646Y-84277180D01*
X78113408Y-83372419D02*
X78446741Y-84372419D01*
X78446741Y-84372419D02*
X78780074Y-83372419D01*
X80351503Y-84372419D02*
X79875313Y-84372419D01*
X79875313Y-84372419D02*
X79875313Y-83372419D01*
X80684837Y-83848609D02*
X81018170Y-83848609D01*
X81161027Y-84372419D02*
X80684837Y-84372419D01*
X80684837Y-84372419D02*
X80684837Y-83372419D01*
X80684837Y-83372419D02*
X81161027Y-83372419D01*
X81589599Y-84372419D02*
X81589599Y-83372419D01*
X81589599Y-83372419D02*
X81827694Y-83372419D01*
X81827694Y-83372419D02*
X81970551Y-83420038D01*
X81970551Y-83420038D02*
X82065789Y-83515276D01*
X82065789Y-83515276D02*
X82113408Y-83610514D01*
X82113408Y-83610514D02*
X82161027Y-83800990D01*
X82161027Y-83800990D02*
X82161027Y-83943847D01*
X82161027Y-83943847D02*
X82113408Y-84134323D01*
X82113408Y-84134323D02*
X82065789Y-84229561D01*
X82065789Y-84229561D02*
X81970551Y-84324800D01*
X81970551Y-84324800D02*
X81827694Y-84372419D01*
X81827694Y-84372419D02*
X81589599Y-84372419D01*
X78030074Y-79372419D02*
X77553884Y-79372419D01*
X77553884Y-79372419D02*
X77506265Y-79848609D01*
X77506265Y-79848609D02*
X77553884Y-79800990D01*
X77553884Y-79800990D02*
X77649122Y-79753371D01*
X77649122Y-79753371D02*
X77887217Y-79753371D01*
X77887217Y-79753371D02*
X77982455Y-79800990D01*
X77982455Y-79800990D02*
X78030074Y-79848609D01*
X78030074Y-79848609D02*
X78077693Y-79943847D01*
X78077693Y-79943847D02*
X78077693Y-80181942D01*
X78077693Y-80181942D02*
X78030074Y-80277180D01*
X78030074Y-80277180D02*
X77982455Y-80324800D01*
X77982455Y-80324800D02*
X77887217Y-80372419D01*
X77887217Y-80372419D02*
X77649122Y-80372419D01*
X77649122Y-80372419D02*
X77553884Y-80324800D01*
X77553884Y-80324800D02*
X77506265Y-80277180D01*
X78363408Y-79372419D02*
X78696741Y-80372419D01*
X78696741Y-80372419D02*
X79030074Y-79372419D01*
X80601503Y-80372419D02*
X80125313Y-80372419D01*
X80125313Y-80372419D02*
X80125313Y-79372419D01*
X80934837Y-79848609D02*
X81268170Y-79848609D01*
X81411027Y-80372419D02*
X80934837Y-80372419D01*
X80934837Y-80372419D02*
X80934837Y-79372419D01*
X80934837Y-79372419D02*
X81411027Y-79372419D01*
X81839599Y-80372419D02*
X81839599Y-79372419D01*
X81839599Y-79372419D02*
X82077694Y-79372419D01*
X82077694Y-79372419D02*
X82220551Y-79420038D01*
X82220551Y-79420038D02*
X82315789Y-79515276D01*
X82315789Y-79515276D02*
X82363408Y-79610514D01*
X82363408Y-79610514D02*
X82411027Y-79800990D01*
X82411027Y-79800990D02*
X82411027Y-79943847D01*
X82411027Y-79943847D02*
X82363408Y-80134323D01*
X82363408Y-80134323D02*
X82315789Y-80229561D01*
X82315789Y-80229561D02*
X82220551Y-80324800D01*
X82220551Y-80324800D02*
X82077694Y-80372419D01*
X82077694Y-80372419D02*
X81839599Y-80372419D01*
G36*
X81243283Y-170660000D02*
G01*
X79573761Y-170660000D01*
X79605576Y-170499815D01*
X79663171Y-170345699D01*
X79747906Y-170195938D01*
X79856535Y-170060251D01*
X80031749Y-169891754D01*
X80293789Y-169683517D01*
X80512557Y-169508259D01*
X80606664Y-169408988D01*
X80659258Y-169313903D01*
X80674930Y-169231057D01*
X80667387Y-169173185D01*
X80645176Y-169121934D01*
X80607274Y-169075474D01*
X80558840Y-169039876D01*
X80502868Y-169018354D01*
X80437159Y-169010872D01*
X80368949Y-169018721D01*
X80311727Y-169041172D01*
X80263014Y-169078161D01*
X80226444Y-169127758D01*
X80195389Y-169203881D01*
X80172156Y-169315687D01*
X79614794Y-169270380D01*
X79645224Y-169114634D01*
X79685984Y-168993922D01*
X79734961Y-168901817D01*
X79800302Y-168821273D01*
X79881760Y-168753728D01*
X79981524Y-168698607D01*
X80090289Y-168661987D01*
X80234345Y-168637174D01*
X80422138Y-168627899D01*
X80618716Y-168636749D01*
X80767960Y-168660285D01*
X80879117Y-168694699D01*
X80981350Y-168747932D01*
X81066280Y-168816072D01*
X81135938Y-168899986D01*
X81187916Y-168995805D01*
X81219034Y-169098501D01*
X81229605Y-169210174D01*
X81217937Y-169328942D01*
X81182725Y-169444677D01*
X81122383Y-169559319D01*
X81041923Y-169662350D01*
X80916123Y-169782841D01*
X80732327Y-169923974D01*
X80507501Y-170085785D01*
X80374389Y-170206685D01*
X81243283Y-170206685D01*
X81243283Y-170660000D01*
G37*
G36*
X82447554Y-168634192D02*
G01*
X82556828Y-168651442D01*
X82644748Y-168677602D01*
X82765205Y-168736389D01*
X82856507Y-168806929D01*
X82930916Y-168890036D01*
X82985589Y-168974357D01*
X83027180Y-169066878D01*
X83061427Y-169179155D01*
X83103295Y-169405699D01*
X83117480Y-169644560D01*
X83108124Y-169874438D01*
X83082365Y-170063066D01*
X83043206Y-170216569D01*
X82992948Y-170340442D01*
X82933077Y-170439448D01*
X82854355Y-170525202D01*
X82755666Y-170593800D01*
X82633490Y-170645595D01*
X82482890Y-170679131D01*
X82297801Y-170691263D01*
X82130380Y-170681128D01*
X81996209Y-170653371D01*
X81889305Y-170611029D01*
X81792267Y-170549563D01*
X81707424Y-170471568D01*
X81633827Y-170375457D01*
X81591927Y-170299179D01*
X81553969Y-170200249D01*
X81521109Y-170074061D01*
X81491328Y-169877380D01*
X81480809Y-169651399D01*
X81480885Y-169649689D01*
X82032798Y-169649689D01*
X82042855Y-169907292D01*
X82067617Y-170071524D01*
X82100331Y-170169193D01*
X82140437Y-170233119D01*
X82185764Y-170275310D01*
X82237031Y-170299903D01*
X82296458Y-170308290D01*
X82375353Y-170293591D01*
X82443248Y-170249305D01*
X82478604Y-170206116D01*
X82509423Y-170145422D01*
X82534717Y-170062581D01*
X82555390Y-169917057D01*
X82564148Y-169664710D01*
X82553910Y-169395570D01*
X82528964Y-169228077D01*
X82496493Y-169131772D01*
X82456577Y-169069749D01*
X82410326Y-169028249D01*
X82356830Y-169003705D01*
X82293649Y-168995240D01*
X82229388Y-169003969D01*
X82176261Y-169029073D01*
X82131515Y-169071318D01*
X82094225Y-169134459D01*
X82064479Y-169231692D01*
X82041941Y-169394743D01*
X82032798Y-169649689D01*
X81480885Y-169649689D01*
X81491568Y-169408935D01*
X81520820Y-169215844D01*
X81564706Y-169063851D01*
X81620408Y-168945667D01*
X81686339Y-168855167D01*
X81772044Y-168777167D01*
X81874423Y-168714910D01*
X81996177Y-168668309D01*
X82140882Y-168638526D01*
X82312822Y-168627899D01*
X82447554Y-168634192D01*
G37*
G36*
X84975314Y-170660000D02*
G01*
X83305792Y-170660000D01*
X83337607Y-170499815D01*
X83395202Y-170345699D01*
X83479937Y-170195938D01*
X83588566Y-170060251D01*
X83763780Y-169891754D01*
X84025819Y-169683517D01*
X84244587Y-169508259D01*
X84338695Y-169408988D01*
X84391288Y-169313903D01*
X84406960Y-169231057D01*
X84399417Y-169173185D01*
X84377207Y-169121934D01*
X84339305Y-169075474D01*
X84290871Y-169039876D01*
X84234899Y-169018354D01*
X84169190Y-169010872D01*
X84100980Y-169018721D01*
X84043758Y-169041172D01*
X83995045Y-169078161D01*
X83958475Y-169127758D01*
X83927419Y-169203881D01*
X83904187Y-169315687D01*
X83346824Y-169270380D01*
X83377255Y-169114634D01*
X83418014Y-168993922D01*
X83466992Y-168901817D01*
X83532333Y-168821273D01*
X83613791Y-168753728D01*
X83713555Y-168698607D01*
X83822320Y-168661987D01*
X83966375Y-168637174D01*
X84154169Y-168627899D01*
X84350747Y-168636749D01*
X84499991Y-168660285D01*
X84611147Y-168694699D01*
X84713381Y-168747932D01*
X84798310Y-168816072D01*
X84867969Y-168899986D01*
X84919947Y-168995805D01*
X84951064Y-169098501D01*
X84961636Y-169210174D01*
X84949967Y-169328942D01*
X84914756Y-169444677D01*
X84854413Y-169559319D01*
X84773954Y-169662350D01*
X84648154Y-169782841D01*
X84464357Y-169923974D01*
X84239532Y-170085785D01*
X84106420Y-170206685D01*
X84975314Y-170206685D01*
X84975314Y-170660000D01*
G37*
G36*
X86236018Y-168635164D02*
G01*
X86359697Y-168654656D01*
X86453960Y-168683464D01*
X86542170Y-168726798D01*
X86618478Y-168780863D01*
X86684159Y-168846008D01*
X86738892Y-168921041D01*
X86785517Y-169009970D01*
X86823621Y-169114797D01*
X86270289Y-169182819D01*
X86238496Y-169078492D01*
X86197138Y-169019420D01*
X86140566Y-168983920D01*
X86070865Y-168971793D01*
X86007591Y-168980159D01*
X85952681Y-169004626D01*
X85903934Y-169046224D01*
X85860450Y-169108447D01*
X85832679Y-169179150D01*
X85804752Y-169310084D01*
X85779849Y-169529155D01*
X85883622Y-169439393D01*
X85984769Y-169379801D01*
X86095551Y-169343972D01*
X86227913Y-169331318D01*
X86358119Y-169343471D01*
X86475342Y-169378913D01*
X86582290Y-169437559D01*
X86680861Y-169521217D01*
X86761244Y-169621513D01*
X86818574Y-169733485D01*
X86853778Y-169859434D01*
X86865997Y-170002498D01*
X86855379Y-170131047D01*
X86824153Y-170250160D01*
X86772330Y-170361779D01*
X86701546Y-170461849D01*
X86615550Y-170543339D01*
X86512822Y-170607854D01*
X86399147Y-170652353D01*
X86262006Y-170680981D01*
X86096755Y-170691263D01*
X85898124Y-170678365D01*
X85739886Y-170643076D01*
X85614497Y-170589169D01*
X85504244Y-170510082D01*
X85407628Y-170402985D01*
X85324092Y-170263227D01*
X85279640Y-170151752D01*
X85245549Y-170018284D01*
X85243543Y-170003841D01*
X85798900Y-170003841D01*
X85808979Y-170108175D01*
X85836861Y-170190696D01*
X85880844Y-170256144D01*
X85940332Y-170307305D01*
X86006453Y-170337206D01*
X86081734Y-170347369D01*
X86150947Y-170338126D01*
X86211173Y-170311051D01*
X86264794Y-170264937D01*
X86303657Y-170205495D01*
X86329103Y-170125509D01*
X86338555Y-170018740D01*
X86328840Y-169909407D01*
X86302501Y-169826176D01*
X86261985Y-169763140D01*
X86206226Y-169713842D01*
X86143760Y-169685026D01*
X86072086Y-169675212D01*
X85998450Y-169684806D01*
X85934392Y-169712858D01*
X85877424Y-169760453D01*
X85835536Y-169821760D01*
X85808701Y-169901143D01*
X85798900Y-170003841D01*
X85243543Y-170003841D01*
X85223454Y-169859194D01*
X85215526Y-169670450D01*
X85226770Y-169444816D01*
X85257892Y-169258503D01*
X85305674Y-169105477D01*
X85367931Y-168980462D01*
X85443649Y-168879103D01*
X85539657Y-168790457D01*
X85648708Y-168721247D01*
X85772659Y-168670630D01*
X85914104Y-168638988D01*
X86076238Y-168627899D01*
X86236018Y-168635164D01*
G37*
G36*
X89434455Y-169839344D02*
G01*
X89976919Y-170003841D01*
X89931736Y-170151658D01*
X89874080Y-170277291D01*
X89804727Y-170383639D01*
X89719770Y-170477245D01*
X89622931Y-170553577D01*
X89512979Y-170613715D01*
X89394291Y-170654758D01*
X89248315Y-170681547D01*
X89069678Y-170691263D01*
X88852907Y-170679352D01*
X88677391Y-170646643D01*
X88536130Y-170596741D01*
X88439557Y-170542785D01*
X88348140Y-170470814D01*
X88261279Y-170378847D01*
X88178803Y-170264204D01*
X88115816Y-170143365D01*
X88068869Y-170003663D01*
X88039110Y-169842012D01*
X88028593Y-169654818D01*
X88040712Y-169453336D01*
X88074961Y-169280363D01*
X88128995Y-169131693D01*
X88201647Y-169003780D01*
X88292986Y-168893879D01*
X88402594Y-168801548D01*
X88529270Y-168728401D01*
X88675563Y-168674210D01*
X88844808Y-168639980D01*
X89040980Y-168627899D01*
X89232843Y-168638933D01*
X89392729Y-168669669D01*
X89525674Y-168717359D01*
X89635956Y-168780429D01*
X89733786Y-168863322D01*
X89819994Y-168966990D01*
X89894851Y-169094264D01*
X89957745Y-169248886D01*
X89411252Y-169370397D01*
X89379516Y-169286016D01*
X89351168Y-169236552D01*
X89293108Y-169173409D01*
X89224040Y-169127254D01*
X89145491Y-169098817D01*
X89056001Y-169089030D01*
X88954787Y-169100082D01*
X88869373Y-169131684D01*
X88796304Y-169183515D01*
X88733600Y-169257923D01*
X88690317Y-169346080D01*
X88660359Y-169473084D01*
X88648848Y-169651399D01*
X88657286Y-169825933D01*
X88679384Y-169953472D01*
X88711152Y-170044248D01*
X88749965Y-170106912D01*
X88804749Y-170160138D01*
X88868971Y-170198188D01*
X88944511Y-170221807D01*
X89034141Y-170230132D01*
X89148278Y-170217770D01*
X89235644Y-170183822D01*
X89302564Y-170130115D01*
X89354564Y-170058555D01*
X89398987Y-169963438D01*
X89434455Y-169839344D01*
G37*
G36*
X91204080Y-169182923D02*
G01*
X91367882Y-169203091D01*
X91465648Y-169229323D01*
X91549207Y-169268375D01*
X91620673Y-169319961D01*
X91682457Y-169391632D01*
X91732658Y-169494351D01*
X91763830Y-169606637D01*
X91773691Y-169709651D01*
X91773691Y-170350910D01*
X91777396Y-170447952D01*
X91786636Y-170511622D01*
X91805484Y-170572808D01*
X91843422Y-170660000D01*
X91321475Y-170660000D01*
X91280443Y-170572927D01*
X91261392Y-170478893D01*
X91148738Y-170572494D01*
X91044138Y-170630568D01*
X90944028Y-170663398D01*
X90830421Y-170684029D01*
X90701221Y-170691263D01*
X90570168Y-170682508D01*
X90463564Y-170658302D01*
X90377058Y-170620881D01*
X90307135Y-170571217D01*
X90247456Y-170506569D01*
X90205989Y-170436598D01*
X90181078Y-170360031D01*
X90172557Y-170274951D01*
X90177165Y-170231964D01*
X90729919Y-170231964D01*
X90741516Y-170291014D01*
X90775715Y-170337599D01*
X90829022Y-170367355D01*
X90910293Y-170378632D01*
X91000143Y-170367502D01*
X91083094Y-170334302D01*
X91153167Y-170283343D01*
X91196545Y-170225980D01*
X91220863Y-170156163D01*
X91230006Y-170059651D01*
X91230006Y-169972212D01*
X90990893Y-170043531D01*
X90838763Y-170093459D01*
X90776325Y-170130969D01*
X90741138Y-170179286D01*
X90729919Y-170231964D01*
X90177165Y-170231964D01*
X90183953Y-170168636D01*
X90216442Y-170079328D01*
X90269521Y-170003353D01*
X90341984Y-169944760D01*
X90456387Y-169891113D01*
X90627459Y-169845083D01*
X91033269Y-169757034D01*
X91230006Y-169690844D01*
X91217742Y-169596858D01*
X91187630Y-169545031D01*
X91134986Y-169515416D01*
X91038764Y-169503265D01*
X90912166Y-169515768D01*
X90833845Y-169546985D01*
X90788248Y-169592272D01*
X90747749Y-169675212D01*
X90216277Y-169620502D01*
X90255129Y-169491009D01*
X90302983Y-169401905D01*
X90369967Y-169329341D01*
X90466259Y-169263541D01*
X90551052Y-169228005D01*
X90676674Y-169198206D01*
X90813456Y-169181011D01*
X90966346Y-169175003D01*
X91204080Y-169182923D01*
G37*
G36*
X92106838Y-169206266D02*
G01*
X92624633Y-169206266D01*
X92624633Y-169444647D01*
X92706908Y-169352591D01*
X92784991Y-169284746D01*
X92859595Y-169237285D01*
X92941160Y-169203759D01*
X93036817Y-169182531D01*
X93149267Y-169175003D01*
X93263484Y-169184461D01*
X93359730Y-169211182D01*
X93441301Y-169253802D01*
X93510624Y-169312512D01*
X93564133Y-169384252D01*
X93604827Y-169475711D01*
X93631444Y-169591418D01*
X93641172Y-169737006D01*
X93641172Y-170660000D01*
X93082344Y-170660000D01*
X93082344Y-169862547D01*
X93075419Y-169772424D01*
X93057576Y-169710549D01*
X93031786Y-169669351D01*
X92994632Y-169638530D01*
X92948183Y-169619490D01*
X92889637Y-169612686D01*
X92825821Y-169621370D01*
X92771987Y-169646539D01*
X92725628Y-169689134D01*
X92694198Y-169744462D01*
X92671749Y-169831786D01*
X92662857Y-169963663D01*
X92662857Y-170660000D01*
X92106838Y-170660000D01*
X92106838Y-169206266D01*
G37*
G36*
X93901779Y-169993583D02*
G01*
X94490648Y-169956580D01*
X94509495Y-170050971D01*
X94535960Y-170122518D01*
X94568562Y-170175788D01*
X94620701Y-170228536D01*
X94682207Y-170266175D01*
X94754950Y-170289540D01*
X94841748Y-170297787D01*
X94928054Y-170290021D01*
X94994663Y-170268827D01*
X95045935Y-170235994D01*
X95086887Y-170191086D01*
X95110070Y-170143894D01*
X95117742Y-170092745D01*
X95110499Y-170044028D01*
X95088489Y-169998339D01*
X95049476Y-169954138D01*
X94998186Y-169921039D01*
X94900023Y-169882479D01*
X94732449Y-169838733D01*
X94522274Y-169782917D01*
X94361049Y-169723027D01*
X94240115Y-169660626D01*
X94151884Y-169596688D01*
X94074769Y-169515179D01*
X94020868Y-169425208D01*
X93988246Y-169324952D01*
X93977006Y-169211639D01*
X93986811Y-169111725D01*
X94016267Y-169015437D01*
X94066521Y-168921113D01*
X94134044Y-168838579D01*
X94222590Y-168766993D01*
X94335676Y-168706179D01*
X94458239Y-168665565D01*
X94619403Y-168638128D01*
X94828192Y-168627899D01*
X95024384Y-168638591D01*
X95183310Y-168667965D01*
X95311236Y-168712782D01*
X95413520Y-168771025D01*
X95501194Y-168849823D01*
X95570434Y-168949259D01*
X95621694Y-169073058D01*
X95653367Y-169226538D01*
X95069993Y-169260976D01*
X95046998Y-169173434D01*
X95014049Y-169109030D01*
X94972295Y-169062773D01*
X94919302Y-169029709D01*
X94852042Y-169008546D01*
X94766643Y-169000858D01*
X94667559Y-169013535D01*
X94603977Y-169046409D01*
X94562731Y-169097407D01*
X94549389Y-169157051D01*
X94560019Y-169200951D01*
X94594452Y-169242536D01*
X94654688Y-169275596D01*
X94802180Y-169315931D01*
X95074496Y-169381549D01*
X95261608Y-169440247D01*
X95383478Y-169492030D01*
X95494145Y-169559225D01*
X95577922Y-169632861D01*
X95638956Y-169713070D01*
X95683165Y-169803928D01*
X95709847Y-169901724D01*
X95718946Y-170008237D01*
X95707068Y-170132977D01*
X95671790Y-170250192D01*
X95612334Y-170362023D01*
X95532749Y-170460433D01*
X95434300Y-170542012D01*
X95314480Y-170607609D01*
X95184254Y-170651970D01*
X95025333Y-170680829D01*
X94832222Y-170691263D01*
X94614957Y-170680961D01*
X94442836Y-170652993D01*
X94308059Y-170611048D01*
X94203821Y-170557715D01*
X94124528Y-170494281D01*
X94037569Y-170390190D01*
X93971762Y-170273498D01*
X93926314Y-170142204D01*
X93901779Y-169993583D01*
G37*
G36*
X96956488Y-169182923D02*
G01*
X97120289Y-169203091D01*
X97218055Y-169229323D01*
X97301615Y-169268375D01*
X97373080Y-169319961D01*
X97434864Y-169391632D01*
X97485066Y-169494351D01*
X97516237Y-169606637D01*
X97526099Y-169709651D01*
X97526099Y-170350910D01*
X97529804Y-170447952D01*
X97539043Y-170511622D01*
X97557891Y-170572808D01*
X97595830Y-170660000D01*
X97073883Y-170660000D01*
X97032850Y-170572927D01*
X97013799Y-170478893D01*
X96901146Y-170572494D01*
X96796545Y-170630568D01*
X96696435Y-170663398D01*
X96582829Y-170684029D01*
X96453628Y-170691263D01*
X96322576Y-170682508D01*
X96215971Y-170658302D01*
X96129465Y-170620881D01*
X96059542Y-170571217D01*
X95999863Y-170506569D01*
X95958396Y-170436598D01*
X95933485Y-170360031D01*
X95924965Y-170274951D01*
X95929572Y-170231964D01*
X96482327Y-170231964D01*
X96493924Y-170291014D01*
X96528122Y-170337599D01*
X96581429Y-170367355D01*
X96662700Y-170378632D01*
X96752551Y-170367502D01*
X96835502Y-170334302D01*
X96905575Y-170283343D01*
X96948953Y-170225980D01*
X96973271Y-170156163D01*
X96982414Y-170059651D01*
X96982414Y-169972212D01*
X96743300Y-170043531D01*
X96591170Y-170093459D01*
X96528733Y-170130969D01*
X96493545Y-170179286D01*
X96482327Y-170231964D01*
X95929572Y-170231964D01*
X95936360Y-170168636D01*
X95968850Y-170079328D01*
X96021929Y-170003353D01*
X96094391Y-169944760D01*
X96208794Y-169891113D01*
X96379867Y-169845083D01*
X96785676Y-169757034D01*
X96982414Y-169690844D01*
X96970149Y-169596858D01*
X96940038Y-169545031D01*
X96887394Y-169515416D01*
X96791172Y-169503265D01*
X96664574Y-169515768D01*
X96586252Y-169546985D01*
X96540655Y-169592272D01*
X96500157Y-169675212D01*
X95968684Y-169620502D01*
X96007537Y-169491009D01*
X96055390Y-169401905D01*
X96122375Y-169329341D01*
X96218667Y-169263541D01*
X96303460Y-169228005D01*
X96429082Y-169198206D01*
X96565864Y-169181011D01*
X96718754Y-169175003D01*
X96956488Y-169182923D01*
G37*
G36*
X98483164Y-168659162D02*
G01*
X98483164Y-169206266D01*
X98789200Y-169206266D01*
X98789200Y-169612686D01*
X98483164Y-169612686D01*
X98483164Y-170130237D01*
X98488796Y-170215432D01*
X98500872Y-170253824D01*
X98536927Y-170288049D01*
X98596493Y-170300474D01*
X98663258Y-170292977D01*
X98768684Y-170264815D01*
X98809717Y-170646444D01*
X98606185Y-170680527D01*
X98424424Y-170691263D01*
X98285503Y-170683945D01*
X98186639Y-170664992D01*
X98118387Y-170638018D01*
X98058837Y-170596560D01*
X98010639Y-170543097D01*
X97972941Y-170475963D01*
X97949443Y-170401067D01*
X97932462Y-170287875D01*
X97925802Y-170124009D01*
X97925802Y-169612686D01*
X97720882Y-169612686D01*
X97720882Y-169206266D01*
X97925802Y-169206266D01*
X97925802Y-168942240D01*
X98483164Y-168659162D01*
G37*
G36*
X101219687Y-168670877D02*
G01*
X101356272Y-168703146D01*
X101465894Y-168752897D01*
X101553419Y-168818897D01*
X101624337Y-168903594D01*
X101676279Y-169005099D01*
X101709134Y-169126820D01*
X101720847Y-169273311D01*
X101708314Y-169423039D01*
X101672897Y-169549170D01*
X101616367Y-169656061D01*
X101538398Y-169746898D01*
X101443321Y-169816958D01*
X101322901Y-169870141D01*
X101171417Y-169904846D01*
X100981769Y-169917501D01*
X100642882Y-169917501D01*
X100642882Y-170660000D01*
X100021284Y-170660000D01*
X100021284Y-169511081D01*
X100642882Y-169511081D01*
X100794556Y-169511081D01*
X100913102Y-169502484D01*
X100993400Y-169480512D01*
X101045882Y-169449166D01*
X101086260Y-169403731D01*
X101110101Y-169351572D01*
X101118300Y-169290408D01*
X101111148Y-169230252D01*
X101090327Y-169177748D01*
X101055408Y-169131039D01*
X101008471Y-169097989D01*
X100933563Y-169074766D01*
X100819103Y-169065582D01*
X100642882Y-169065582D01*
X100642882Y-169511081D01*
X100021284Y-169511081D01*
X100021284Y-168659162D01*
X101050034Y-168659162D01*
X101219687Y-168670877D01*
G37*
G36*
X102923829Y-169182923D02*
G01*
X103087630Y-169203091D01*
X103185396Y-169229323D01*
X103268956Y-169268375D01*
X103340422Y-169319961D01*
X103402205Y-169391632D01*
X103452407Y-169494351D01*
X103483579Y-169606637D01*
X103493440Y-169709651D01*
X103493440Y-170350910D01*
X103497145Y-170447952D01*
X103506385Y-170511622D01*
X103525232Y-170572808D01*
X103563171Y-170660000D01*
X103041224Y-170660000D01*
X103000191Y-170572927D01*
X102981140Y-170478893D01*
X102868487Y-170572494D01*
X102763886Y-170630568D01*
X102663777Y-170663398D01*
X102550170Y-170684029D01*
X102420969Y-170691263D01*
X102289917Y-170682508D01*
X102183312Y-170658302D01*
X102096806Y-170620881D01*
X102026884Y-170571217D01*
X101967205Y-170506569D01*
X101925738Y-170436598D01*
X101900827Y-170360031D01*
X101892306Y-170274951D01*
X101896913Y-170231964D01*
X102449668Y-170231964D01*
X102461265Y-170291014D01*
X102495464Y-170337599D01*
X102548771Y-170367355D01*
X102630041Y-170378632D01*
X102719892Y-170367502D01*
X102802843Y-170334302D01*
X102872916Y-170283343D01*
X102916294Y-170225980D01*
X102940612Y-170156163D01*
X102949755Y-170059651D01*
X102949755Y-169972212D01*
X102710642Y-170043531D01*
X102558511Y-170093459D01*
X102496074Y-170130969D01*
X102460886Y-170179286D01*
X102449668Y-170231964D01*
X101896913Y-170231964D01*
X101903701Y-170168636D01*
X101936191Y-170079328D01*
X101989270Y-170003353D01*
X102061733Y-169944760D01*
X102176136Y-169891113D01*
X102347208Y-169845083D01*
X102753018Y-169757034D01*
X102949755Y-169690844D01*
X102937491Y-169596858D01*
X102907379Y-169545031D01*
X102854735Y-169515416D01*
X102758513Y-169503265D01*
X102631915Y-169515768D01*
X102553593Y-169546985D01*
X102507997Y-169592272D01*
X102467498Y-169675212D01*
X101936025Y-169620502D01*
X101974878Y-169491009D01*
X102022732Y-169401905D01*
X102089716Y-169329341D01*
X102186008Y-169263541D01*
X102270801Y-169228005D01*
X102396423Y-169198206D01*
X102533205Y-169181011D01*
X102686095Y-169175003D01*
X102923829Y-169182923D01*
G37*
G36*
X103665387Y-169206266D02*
G01*
X104252913Y-169206266D01*
X104552110Y-170174078D01*
X104829448Y-169206266D01*
X105377285Y-169206266D01*
X104802093Y-170761971D01*
X104727512Y-170938083D01*
X104660723Y-171052756D01*
X104601203Y-171122107D01*
X104525981Y-171176152D01*
X104430582Y-171217291D01*
X104310452Y-171244184D01*
X104159979Y-171253998D01*
X104023514Y-171247359D01*
X103788363Y-171221880D01*
X103744644Y-170838297D01*
X103869232Y-170868321D01*
X104012456Y-170878841D01*
X104103860Y-170866213D01*
X104171580Y-170831336D01*
X104224203Y-170770863D01*
X104274773Y-170661343D01*
X103665387Y-169206266D01*
G37*
G36*
X105555460Y-168659162D02*
G01*
X106112822Y-168659162D01*
X106112822Y-170660000D01*
X105555460Y-170660000D01*
X105555460Y-168659162D01*
G37*
G36*
X107405866Y-169186550D02*
G01*
X107556304Y-169219123D01*
X107684681Y-169270532D01*
X107794375Y-169339891D01*
X107887857Y-169427672D01*
X107965472Y-169534235D01*
X108020958Y-169651782D01*
X108054994Y-169782436D01*
X108066765Y-169928981D01*
X108052155Y-170092764D01*
X108010067Y-170236420D01*
X107941403Y-170363776D01*
X107844748Y-170477550D01*
X107752993Y-170551896D01*
X107647934Y-170610734D01*
X107527626Y-170654231D01*
X107389550Y-170681625D01*
X107230722Y-170691263D01*
X107056229Y-170679013D01*
X106906296Y-170644273D01*
X106776963Y-170589006D01*
X106665055Y-170513698D01*
X106568936Y-170419422D01*
X106495645Y-170316231D01*
X106443252Y-170202882D01*
X106411142Y-170077417D01*
X106400052Y-169937285D01*
X106400493Y-169932400D01*
X106957414Y-169932400D01*
X106967745Y-170061157D01*
X106995108Y-170154993D01*
X107035938Y-170222316D01*
X107093593Y-170274936D01*
X107158515Y-170305642D01*
X107233408Y-170316106D01*
X107309308Y-170305689D01*
X107374181Y-170275323D01*
X107430879Y-170223660D01*
X107470627Y-170157221D01*
X107497704Y-170061572D01*
X107508060Y-169926905D01*
X107497883Y-169801990D01*
X107470800Y-169710074D01*
X107430146Y-169643339D01*
X107373151Y-169590872D01*
X107309806Y-169560461D01*
X107237561Y-169550160D01*
X107160841Y-169560762D01*
X107094818Y-169591765D01*
X107036671Y-169644682D01*
X106995310Y-169712399D01*
X106967763Y-169805660D01*
X106957414Y-169932400D01*
X106400493Y-169932400D01*
X106414707Y-169775067D01*
X106457023Y-169632107D01*
X106526265Y-169504687D01*
X106624023Y-169390181D01*
X106716865Y-169314802D01*
X106821825Y-169255475D01*
X106940631Y-169211872D01*
X107075543Y-169184565D01*
X107229256Y-169175003D01*
X107405866Y-169186550D01*
G37*
G36*
X109297590Y-169182923D02*
G01*
X109461392Y-169203091D01*
X109559158Y-169229323D01*
X109642717Y-169268375D01*
X109714183Y-169319961D01*
X109775967Y-169391632D01*
X109826168Y-169494351D01*
X109857340Y-169606637D01*
X109867201Y-169709651D01*
X109867201Y-170350910D01*
X109870907Y-170447952D01*
X109880146Y-170511622D01*
X109898994Y-170572808D01*
X109936933Y-170660000D01*
X109414986Y-170660000D01*
X109373953Y-170572927D01*
X109354902Y-170478893D01*
X109242248Y-170572494D01*
X109137648Y-170630568D01*
X109037538Y-170663398D01*
X108923932Y-170684029D01*
X108794731Y-170691263D01*
X108663679Y-170682508D01*
X108557074Y-170658302D01*
X108470568Y-170620881D01*
X108400645Y-170571217D01*
X108340966Y-170506569D01*
X108299499Y-170436598D01*
X108274588Y-170360031D01*
X108266067Y-170274951D01*
X108270675Y-170231964D01*
X108823429Y-170231964D01*
X108835026Y-170291014D01*
X108869225Y-170337599D01*
X108922532Y-170367355D01*
X109003803Y-170378632D01*
X109093653Y-170367502D01*
X109176605Y-170334302D01*
X109246677Y-170283343D01*
X109290055Y-170225980D01*
X109314373Y-170156163D01*
X109323517Y-170059651D01*
X109323517Y-169972212D01*
X109084403Y-170043531D01*
X108932273Y-170093459D01*
X108869836Y-170130969D01*
X108834648Y-170179286D01*
X108823429Y-170231964D01*
X108270675Y-170231964D01*
X108277463Y-170168636D01*
X108309953Y-170079328D01*
X108363032Y-170003353D01*
X108435494Y-169944760D01*
X108549897Y-169891113D01*
X108720969Y-169845083D01*
X109126779Y-169757034D01*
X109323517Y-169690844D01*
X109311252Y-169596858D01*
X109281140Y-169545031D01*
X109228497Y-169515416D01*
X109132274Y-169503265D01*
X109005676Y-169515768D01*
X108927355Y-169546985D01*
X108881758Y-169592272D01*
X108841259Y-169675212D01*
X108309787Y-169620502D01*
X108348639Y-169491009D01*
X108396493Y-169401905D01*
X108463477Y-169329341D01*
X108559769Y-169263541D01*
X108644562Y-169228005D01*
X108770184Y-169198206D01*
X108906966Y-169181011D01*
X109059856Y-169175003D01*
X109297590Y-169182923D01*
G37*
G36*
X111727843Y-170660000D02*
G01*
X111207240Y-170660000D01*
X111207240Y-170445066D01*
X111095633Y-170565455D01*
X111007815Y-170628736D01*
X110925611Y-170663145D01*
X110836796Y-170684092D01*
X110740003Y-170691263D01*
X110623232Y-170681597D01*
X110521960Y-170653953D01*
X110433418Y-170609318D01*
X110355551Y-170547258D01*
X110287177Y-170465949D01*
X110220187Y-170350243D01*
X110171458Y-170221839D01*
X110141237Y-170078639D01*
X110132248Y-169941193D01*
X110686758Y-169941193D01*
X110695756Y-170058431D01*
X110719402Y-170142681D01*
X110754291Y-170202044D01*
X110803987Y-170248760D01*
X110859052Y-170275729D01*
X110921720Y-170284842D01*
X110988975Y-170275519D01*
X111047362Y-170248158D01*
X111099284Y-170201311D01*
X111135797Y-170141094D01*
X111160770Y-170053423D01*
X111170359Y-169928859D01*
X111160948Y-169816734D01*
X111135831Y-169733928D01*
X111097941Y-169673503D01*
X111044977Y-169626401D01*
X110984803Y-169598719D01*
X110914881Y-169589239D01*
X110854011Y-169598133D01*
X110800557Y-169624456D01*
X110752337Y-169670083D01*
X110718997Y-169728126D01*
X110695780Y-169815049D01*
X110686758Y-169941193D01*
X110132248Y-169941193D01*
X110130739Y-169918112D01*
X110143211Y-169736571D01*
X110177838Y-169587735D01*
X110231667Y-169465834D01*
X110303541Y-169366245D01*
X110396246Y-169282248D01*
X110498807Y-169223229D01*
X110613306Y-169187378D01*
X110742812Y-169175003D01*
X110868468Y-169186243D01*
X110978506Y-169218600D01*
X111077898Y-169272747D01*
X111166329Y-169349392D01*
X111166329Y-168659162D01*
X111727843Y-168659162D01*
X111727843Y-170660000D01*
G37*
D11*
X68474819Y-68938094D02*
X67474819Y-68938094D01*
X67474819Y-68938094D02*
X67474819Y-68699999D01*
X67474819Y-68699999D02*
X67522438Y-68557142D01*
X67522438Y-68557142D02*
X67617676Y-68461904D01*
X67617676Y-68461904D02*
X67712914Y-68414285D01*
X67712914Y-68414285D02*
X67903390Y-68366666D01*
X67903390Y-68366666D02*
X68046247Y-68366666D01*
X68046247Y-68366666D02*
X68236723Y-68414285D01*
X68236723Y-68414285D02*
X68331961Y-68461904D01*
X68331961Y-68461904D02*
X68427200Y-68557142D01*
X68427200Y-68557142D02*
X68474819Y-68699999D01*
X68474819Y-68699999D02*
X68474819Y-68938094D01*
X67474819Y-67461904D02*
X67474819Y-67938094D01*
X67474819Y-67938094D02*
X67951009Y-67985713D01*
X67951009Y-67985713D02*
X67903390Y-67938094D01*
X67903390Y-67938094D02*
X67855771Y-67842856D01*
X67855771Y-67842856D02*
X67855771Y-67604761D01*
X67855771Y-67604761D02*
X67903390Y-67509523D01*
X67903390Y-67509523D02*
X67951009Y-67461904D01*
X67951009Y-67461904D02*
X68046247Y-67414285D01*
X68046247Y-67414285D02*
X68284342Y-67414285D01*
X68284342Y-67414285D02*
X68379580Y-67461904D01*
X68379580Y-67461904D02*
X68427200Y-67509523D01*
X68427200Y-67509523D02*
X68474819Y-67604761D01*
X68474819Y-67604761D02*
X68474819Y-67842856D01*
X68474819Y-67842856D02*
X68427200Y-67938094D01*
X68427200Y-67938094D02*
X68379580Y-67985713D01*
X68104819Y-63381904D02*
X67104819Y-63381904D01*
X68104819Y-62810476D02*
X67533390Y-63239047D01*
X67104819Y-62810476D02*
X67676247Y-63381904D01*
X68857142Y-94954819D02*
X68523809Y-94478628D01*
X68285714Y-94954819D02*
X68285714Y-93954819D01*
X68285714Y-93954819D02*
X68666666Y-93954819D01*
X68666666Y-93954819D02*
X68761904Y-94002438D01*
X68761904Y-94002438D02*
X68809523Y-94050057D01*
X68809523Y-94050057D02*
X68857142Y-94145295D01*
X68857142Y-94145295D02*
X68857142Y-94288152D01*
X68857142Y-94288152D02*
X68809523Y-94383390D01*
X68809523Y-94383390D02*
X68761904Y-94431009D01*
X68761904Y-94431009D02*
X68666666Y-94478628D01*
X68666666Y-94478628D02*
X68285714Y-94478628D01*
X69809523Y-94954819D02*
X69238095Y-94954819D01*
X69523809Y-94954819D02*
X69523809Y-93954819D01*
X69523809Y-93954819D02*
X69428571Y-94097676D01*
X69428571Y-94097676D02*
X69333333Y-94192914D01*
X69333333Y-94192914D02*
X69238095Y-94240533D01*
X70761904Y-94954819D02*
X70190476Y-94954819D01*
X70476190Y-94954819D02*
X70476190Y-93954819D01*
X70476190Y-93954819D02*
X70380952Y-94097676D01*
X70380952Y-94097676D02*
X70285714Y-94192914D01*
X70285714Y-94192914D02*
X70190476Y-94240533D01*
X63857142Y-107954819D02*
X63523809Y-107478628D01*
X63285714Y-107954819D02*
X63285714Y-106954819D01*
X63285714Y-106954819D02*
X63666666Y-106954819D01*
X63666666Y-106954819D02*
X63761904Y-107002438D01*
X63761904Y-107002438D02*
X63809523Y-107050057D01*
X63809523Y-107050057D02*
X63857142Y-107145295D01*
X63857142Y-107145295D02*
X63857142Y-107288152D01*
X63857142Y-107288152D02*
X63809523Y-107383390D01*
X63809523Y-107383390D02*
X63761904Y-107431009D01*
X63761904Y-107431009D02*
X63666666Y-107478628D01*
X63666666Y-107478628D02*
X63285714Y-107478628D01*
X64809523Y-107954819D02*
X64238095Y-107954819D01*
X64523809Y-107954819D02*
X64523809Y-106954819D01*
X64523809Y-106954819D02*
X64428571Y-107097676D01*
X64428571Y-107097676D02*
X64333333Y-107192914D01*
X64333333Y-107192914D02*
X64238095Y-107240533D01*
X65380952Y-107383390D02*
X65285714Y-107335771D01*
X65285714Y-107335771D02*
X65238095Y-107288152D01*
X65238095Y-107288152D02*
X65190476Y-107192914D01*
X65190476Y-107192914D02*
X65190476Y-107145295D01*
X65190476Y-107145295D02*
X65238095Y-107050057D01*
X65238095Y-107050057D02*
X65285714Y-107002438D01*
X65285714Y-107002438D02*
X65380952Y-106954819D01*
X65380952Y-106954819D02*
X65571428Y-106954819D01*
X65571428Y-106954819D02*
X65666666Y-107002438D01*
X65666666Y-107002438D02*
X65714285Y-107050057D01*
X65714285Y-107050057D02*
X65761904Y-107145295D01*
X65761904Y-107145295D02*
X65761904Y-107192914D01*
X65761904Y-107192914D02*
X65714285Y-107288152D01*
X65714285Y-107288152D02*
X65666666Y-107335771D01*
X65666666Y-107335771D02*
X65571428Y-107383390D01*
X65571428Y-107383390D02*
X65380952Y-107383390D01*
X65380952Y-107383390D02*
X65285714Y-107431009D01*
X65285714Y-107431009D02*
X65238095Y-107478628D01*
X65238095Y-107478628D02*
X65190476Y-107573866D01*
X65190476Y-107573866D02*
X65190476Y-107764342D01*
X65190476Y-107764342D02*
X65238095Y-107859580D01*
X65238095Y-107859580D02*
X65285714Y-107907200D01*
X65285714Y-107907200D02*
X65380952Y-107954819D01*
X65380952Y-107954819D02*
X65571428Y-107954819D01*
X65571428Y-107954819D02*
X65666666Y-107907200D01*
X65666666Y-107907200D02*
X65714285Y-107859580D01*
X65714285Y-107859580D02*
X65761904Y-107764342D01*
X65761904Y-107764342D02*
X65761904Y-107573866D01*
X65761904Y-107573866D02*
X65714285Y-107478628D01*
X65714285Y-107478628D02*
X65666666Y-107431009D01*
X65666666Y-107431009D02*
X65571428Y-107383390D01*
X74357142Y-94954819D02*
X74023809Y-94478628D01*
X73785714Y-94954819D02*
X73785714Y-93954819D01*
X73785714Y-93954819D02*
X74166666Y-93954819D01*
X74166666Y-93954819D02*
X74261904Y-94002438D01*
X74261904Y-94002438D02*
X74309523Y-94050057D01*
X74309523Y-94050057D02*
X74357142Y-94145295D01*
X74357142Y-94145295D02*
X74357142Y-94288152D01*
X74357142Y-94288152D02*
X74309523Y-94383390D01*
X74309523Y-94383390D02*
X74261904Y-94431009D01*
X74261904Y-94431009D02*
X74166666Y-94478628D01*
X74166666Y-94478628D02*
X73785714Y-94478628D01*
X75309523Y-94954819D02*
X74738095Y-94954819D01*
X75023809Y-94954819D02*
X75023809Y-93954819D01*
X75023809Y-93954819D02*
X74928571Y-94097676D01*
X74928571Y-94097676D02*
X74833333Y-94192914D01*
X74833333Y-94192914D02*
X74738095Y-94240533D01*
X75690476Y-94050057D02*
X75738095Y-94002438D01*
X75738095Y-94002438D02*
X75833333Y-93954819D01*
X75833333Y-93954819D02*
X76071428Y-93954819D01*
X76071428Y-93954819D02*
X76166666Y-94002438D01*
X76166666Y-94002438D02*
X76214285Y-94050057D01*
X76214285Y-94050057D02*
X76261904Y-94145295D01*
X76261904Y-94145295D02*
X76261904Y-94240533D01*
X76261904Y-94240533D02*
X76214285Y-94383390D01*
X76214285Y-94383390D02*
X75642857Y-94954819D01*
X75642857Y-94954819D02*
X76261904Y-94954819D01*
X56761905Y-96454819D02*
X56761905Y-95454819D01*
X56761905Y-95454819D02*
X57000000Y-95454819D01*
X57000000Y-95454819D02*
X57142857Y-95502438D01*
X57142857Y-95502438D02*
X57238095Y-95597676D01*
X57238095Y-95597676D02*
X57285714Y-95692914D01*
X57285714Y-95692914D02*
X57333333Y-95883390D01*
X57333333Y-95883390D02*
X57333333Y-96026247D01*
X57333333Y-96026247D02*
X57285714Y-96216723D01*
X57285714Y-96216723D02*
X57238095Y-96311961D01*
X57238095Y-96311961D02*
X57142857Y-96407200D01*
X57142857Y-96407200D02*
X57000000Y-96454819D01*
X57000000Y-96454819D02*
X56761905Y-96454819D01*
X57666667Y-95454819D02*
X58285714Y-95454819D01*
X58285714Y-95454819D02*
X57952381Y-95835771D01*
X57952381Y-95835771D02*
X58095238Y-95835771D01*
X58095238Y-95835771D02*
X58190476Y-95883390D01*
X58190476Y-95883390D02*
X58238095Y-95931009D01*
X58238095Y-95931009D02*
X58285714Y-96026247D01*
X58285714Y-96026247D02*
X58285714Y-96264342D01*
X58285714Y-96264342D02*
X58238095Y-96359580D01*
X58238095Y-96359580D02*
X58190476Y-96407200D01*
X58190476Y-96407200D02*
X58095238Y-96454819D01*
X58095238Y-96454819D02*
X57809524Y-96454819D01*
X57809524Y-96454819D02*
X57714286Y-96407200D01*
X57714286Y-96407200D02*
X57666667Y-96359580D01*
X64357142Y-125954819D02*
X64023809Y-125478628D01*
X63785714Y-125954819D02*
X63785714Y-124954819D01*
X63785714Y-124954819D02*
X64166666Y-124954819D01*
X64166666Y-124954819D02*
X64261904Y-125002438D01*
X64261904Y-125002438D02*
X64309523Y-125050057D01*
X64309523Y-125050057D02*
X64357142Y-125145295D01*
X64357142Y-125145295D02*
X64357142Y-125288152D01*
X64357142Y-125288152D02*
X64309523Y-125383390D01*
X64309523Y-125383390D02*
X64261904Y-125431009D01*
X64261904Y-125431009D02*
X64166666Y-125478628D01*
X64166666Y-125478628D02*
X63785714Y-125478628D01*
X64738095Y-125050057D02*
X64785714Y-125002438D01*
X64785714Y-125002438D02*
X64880952Y-124954819D01*
X64880952Y-124954819D02*
X65119047Y-124954819D01*
X65119047Y-124954819D02*
X65214285Y-125002438D01*
X65214285Y-125002438D02*
X65261904Y-125050057D01*
X65261904Y-125050057D02*
X65309523Y-125145295D01*
X65309523Y-125145295D02*
X65309523Y-125240533D01*
X65309523Y-125240533D02*
X65261904Y-125383390D01*
X65261904Y-125383390D02*
X64690476Y-125954819D01*
X64690476Y-125954819D02*
X65309523Y-125954819D01*
X66214285Y-124954819D02*
X65738095Y-124954819D01*
X65738095Y-124954819D02*
X65690476Y-125431009D01*
X65690476Y-125431009D02*
X65738095Y-125383390D01*
X65738095Y-125383390D02*
X65833333Y-125335771D01*
X65833333Y-125335771D02*
X66071428Y-125335771D01*
X66071428Y-125335771D02*
X66166666Y-125383390D01*
X66166666Y-125383390D02*
X66214285Y-125431009D01*
X66214285Y-125431009D02*
X66261904Y-125526247D01*
X66261904Y-125526247D02*
X66261904Y-125764342D01*
X66261904Y-125764342D02*
X66214285Y-125859580D01*
X66214285Y-125859580D02*
X66166666Y-125907200D01*
X66166666Y-125907200D02*
X66071428Y-125954819D01*
X66071428Y-125954819D02*
X65833333Y-125954819D01*
X65833333Y-125954819D02*
X65738095Y-125907200D01*
X65738095Y-125907200D02*
X65690476Y-125859580D01*
X61357142Y-155359580D02*
X61309523Y-155407200D01*
X61309523Y-155407200D02*
X61166666Y-155454819D01*
X61166666Y-155454819D02*
X61071428Y-155454819D01*
X61071428Y-155454819D02*
X60928571Y-155407200D01*
X60928571Y-155407200D02*
X60833333Y-155311961D01*
X60833333Y-155311961D02*
X60785714Y-155216723D01*
X60785714Y-155216723D02*
X60738095Y-155026247D01*
X60738095Y-155026247D02*
X60738095Y-154883390D01*
X60738095Y-154883390D02*
X60785714Y-154692914D01*
X60785714Y-154692914D02*
X60833333Y-154597676D01*
X60833333Y-154597676D02*
X60928571Y-154502438D01*
X60928571Y-154502438D02*
X61071428Y-154454819D01*
X61071428Y-154454819D02*
X61166666Y-154454819D01*
X61166666Y-154454819D02*
X61309523Y-154502438D01*
X61309523Y-154502438D02*
X61357142Y-154550057D01*
X62309523Y-155454819D02*
X61738095Y-155454819D01*
X62023809Y-155454819D02*
X62023809Y-154454819D01*
X62023809Y-154454819D02*
X61928571Y-154597676D01*
X61928571Y-154597676D02*
X61833333Y-154692914D01*
X61833333Y-154692914D02*
X61738095Y-154740533D01*
X63166666Y-154454819D02*
X62976190Y-154454819D01*
X62976190Y-154454819D02*
X62880952Y-154502438D01*
X62880952Y-154502438D02*
X62833333Y-154550057D01*
X62833333Y-154550057D02*
X62738095Y-154692914D01*
X62738095Y-154692914D02*
X62690476Y-154883390D01*
X62690476Y-154883390D02*
X62690476Y-155264342D01*
X62690476Y-155264342D02*
X62738095Y-155359580D01*
X62738095Y-155359580D02*
X62785714Y-155407200D01*
X62785714Y-155407200D02*
X62880952Y-155454819D01*
X62880952Y-155454819D02*
X63071428Y-155454819D01*
X63071428Y-155454819D02*
X63166666Y-155407200D01*
X63166666Y-155407200D02*
X63214285Y-155359580D01*
X63214285Y-155359580D02*
X63261904Y-155264342D01*
X63261904Y-155264342D02*
X63261904Y-155026247D01*
X63261904Y-155026247D02*
X63214285Y-154931009D01*
X63214285Y-154931009D02*
X63166666Y-154883390D01*
X63166666Y-154883390D02*
X63071428Y-154835771D01*
X63071428Y-154835771D02*
X62880952Y-154835771D01*
X62880952Y-154835771D02*
X62785714Y-154883390D01*
X62785714Y-154883390D02*
X62738095Y-154931009D01*
X62738095Y-154931009D02*
X62690476Y-155026247D01*
X57738095Y-123454819D02*
X57738095Y-124264342D01*
X57738095Y-124264342D02*
X57785714Y-124359580D01*
X57785714Y-124359580D02*
X57833333Y-124407200D01*
X57833333Y-124407200D02*
X57928571Y-124454819D01*
X57928571Y-124454819D02*
X58119047Y-124454819D01*
X58119047Y-124454819D02*
X58214285Y-124407200D01*
X58214285Y-124407200D02*
X58261904Y-124359580D01*
X58261904Y-124359580D02*
X58309523Y-124264342D01*
X58309523Y-124264342D02*
X58309523Y-123454819D01*
X59309523Y-124454819D02*
X58738095Y-124454819D01*
X59023809Y-124454819D02*
X59023809Y-123454819D01*
X59023809Y-123454819D02*
X58928571Y-123597676D01*
X58928571Y-123597676D02*
X58833333Y-123692914D01*
X58833333Y-123692914D02*
X58738095Y-123740533D01*
X80854819Y-132942857D02*
X80378628Y-133276190D01*
X80854819Y-133514285D02*
X79854819Y-133514285D01*
X79854819Y-133514285D02*
X79854819Y-133133333D01*
X79854819Y-133133333D02*
X79902438Y-133038095D01*
X79902438Y-133038095D02*
X79950057Y-132990476D01*
X79950057Y-132990476D02*
X80045295Y-132942857D01*
X80045295Y-132942857D02*
X80188152Y-132942857D01*
X80188152Y-132942857D02*
X80283390Y-132990476D01*
X80283390Y-132990476D02*
X80331009Y-133038095D01*
X80331009Y-133038095D02*
X80378628Y-133133333D01*
X80378628Y-133133333D02*
X80378628Y-133514285D01*
X79950057Y-132561904D02*
X79902438Y-132514285D01*
X79902438Y-132514285D02*
X79854819Y-132419047D01*
X79854819Y-132419047D02*
X79854819Y-132180952D01*
X79854819Y-132180952D02*
X79902438Y-132085714D01*
X79902438Y-132085714D02*
X79950057Y-132038095D01*
X79950057Y-132038095D02*
X80045295Y-131990476D01*
X80045295Y-131990476D02*
X80140533Y-131990476D01*
X80140533Y-131990476D02*
X80283390Y-132038095D01*
X80283390Y-132038095D02*
X80854819Y-132609523D01*
X80854819Y-132609523D02*
X80854819Y-131990476D01*
X80188152Y-131133333D02*
X80854819Y-131133333D01*
X79807200Y-131371428D02*
X80521485Y-131609523D01*
X80521485Y-131609523D02*
X80521485Y-130990476D01*
X58761905Y-104454819D02*
X58761905Y-103454819D01*
X58761905Y-103454819D02*
X59000000Y-103454819D01*
X59000000Y-103454819D02*
X59142857Y-103502438D01*
X59142857Y-103502438D02*
X59238095Y-103597676D01*
X59238095Y-103597676D02*
X59285714Y-103692914D01*
X59285714Y-103692914D02*
X59333333Y-103883390D01*
X59333333Y-103883390D02*
X59333333Y-104026247D01*
X59333333Y-104026247D02*
X59285714Y-104216723D01*
X59285714Y-104216723D02*
X59238095Y-104311961D01*
X59238095Y-104311961D02*
X59142857Y-104407200D01*
X59142857Y-104407200D02*
X59000000Y-104454819D01*
X59000000Y-104454819D02*
X58761905Y-104454819D01*
X60190476Y-103788152D02*
X60190476Y-104454819D01*
X59952381Y-103407200D02*
X59714286Y-104121485D01*
X59714286Y-104121485D02*
X60333333Y-104121485D01*
X49833333Y-126359580D02*
X49785714Y-126407200D01*
X49785714Y-126407200D02*
X49642857Y-126454819D01*
X49642857Y-126454819D02*
X49547619Y-126454819D01*
X49547619Y-126454819D02*
X49404762Y-126407200D01*
X49404762Y-126407200D02*
X49309524Y-126311961D01*
X49309524Y-126311961D02*
X49261905Y-126216723D01*
X49261905Y-126216723D02*
X49214286Y-126026247D01*
X49214286Y-126026247D02*
X49214286Y-125883390D01*
X49214286Y-125883390D02*
X49261905Y-125692914D01*
X49261905Y-125692914D02*
X49309524Y-125597676D01*
X49309524Y-125597676D02*
X49404762Y-125502438D01*
X49404762Y-125502438D02*
X49547619Y-125454819D01*
X49547619Y-125454819D02*
X49642857Y-125454819D01*
X49642857Y-125454819D02*
X49785714Y-125502438D01*
X49785714Y-125502438D02*
X49833333Y-125550057D01*
X50690476Y-125454819D02*
X50500000Y-125454819D01*
X50500000Y-125454819D02*
X50404762Y-125502438D01*
X50404762Y-125502438D02*
X50357143Y-125550057D01*
X50357143Y-125550057D02*
X50261905Y-125692914D01*
X50261905Y-125692914D02*
X50214286Y-125883390D01*
X50214286Y-125883390D02*
X50214286Y-126264342D01*
X50214286Y-126264342D02*
X50261905Y-126359580D01*
X50261905Y-126359580D02*
X50309524Y-126407200D01*
X50309524Y-126407200D02*
X50404762Y-126454819D01*
X50404762Y-126454819D02*
X50595238Y-126454819D01*
X50595238Y-126454819D02*
X50690476Y-126407200D01*
X50690476Y-126407200D02*
X50738095Y-126359580D01*
X50738095Y-126359580D02*
X50785714Y-126264342D01*
X50785714Y-126264342D02*
X50785714Y-126026247D01*
X50785714Y-126026247D02*
X50738095Y-125931009D01*
X50738095Y-125931009D02*
X50690476Y-125883390D01*
X50690476Y-125883390D02*
X50595238Y-125835771D01*
X50595238Y-125835771D02*
X50404762Y-125835771D01*
X50404762Y-125835771D02*
X50309524Y-125883390D01*
X50309524Y-125883390D02*
X50261905Y-125931009D01*
X50261905Y-125931009D02*
X50214286Y-126026247D01*
X95333333Y-134859580D02*
X95285714Y-134907200D01*
X95285714Y-134907200D02*
X95142857Y-134954819D01*
X95142857Y-134954819D02*
X95047619Y-134954819D01*
X95047619Y-134954819D02*
X94904762Y-134907200D01*
X94904762Y-134907200D02*
X94809524Y-134811961D01*
X94809524Y-134811961D02*
X94761905Y-134716723D01*
X94761905Y-134716723D02*
X94714286Y-134526247D01*
X94714286Y-134526247D02*
X94714286Y-134383390D01*
X94714286Y-134383390D02*
X94761905Y-134192914D01*
X94761905Y-134192914D02*
X94809524Y-134097676D01*
X94809524Y-134097676D02*
X94904762Y-134002438D01*
X94904762Y-134002438D02*
X95047619Y-133954819D01*
X95047619Y-133954819D02*
X95142857Y-133954819D01*
X95142857Y-133954819D02*
X95285714Y-134002438D01*
X95285714Y-134002438D02*
X95333333Y-134050057D01*
X96285714Y-134954819D02*
X95714286Y-134954819D01*
X96000000Y-134954819D02*
X96000000Y-133954819D01*
X96000000Y-133954819D02*
X95904762Y-134097676D01*
X95904762Y-134097676D02*
X95809524Y-134192914D01*
X95809524Y-134192914D02*
X95714286Y-134240533D01*
X75738095Y-113454819D02*
X75738095Y-114264342D01*
X75738095Y-114264342D02*
X75785714Y-114359580D01*
X75785714Y-114359580D02*
X75833333Y-114407200D01*
X75833333Y-114407200D02*
X75928571Y-114454819D01*
X75928571Y-114454819D02*
X76119047Y-114454819D01*
X76119047Y-114454819D02*
X76214285Y-114407200D01*
X76214285Y-114407200D02*
X76261904Y-114359580D01*
X76261904Y-114359580D02*
X76309523Y-114264342D01*
X76309523Y-114264342D02*
X76309523Y-113454819D01*
X77261904Y-113454819D02*
X76785714Y-113454819D01*
X76785714Y-113454819D02*
X76738095Y-113931009D01*
X76738095Y-113931009D02*
X76785714Y-113883390D01*
X76785714Y-113883390D02*
X76880952Y-113835771D01*
X76880952Y-113835771D02*
X77119047Y-113835771D01*
X77119047Y-113835771D02*
X77214285Y-113883390D01*
X77214285Y-113883390D02*
X77261904Y-113931009D01*
X77261904Y-113931009D02*
X77309523Y-114026247D01*
X77309523Y-114026247D02*
X77309523Y-114264342D01*
X77309523Y-114264342D02*
X77261904Y-114359580D01*
X77261904Y-114359580D02*
X77214285Y-114407200D01*
X77214285Y-114407200D02*
X77119047Y-114454819D01*
X77119047Y-114454819D02*
X76880952Y-114454819D01*
X76880952Y-114454819D02*
X76785714Y-114407200D01*
X76785714Y-114407200D02*
X76738095Y-114359580D01*
X67833333Y-157859580D02*
X67785714Y-157907200D01*
X67785714Y-157907200D02*
X67642857Y-157954819D01*
X67642857Y-157954819D02*
X67547619Y-157954819D01*
X67547619Y-157954819D02*
X67404762Y-157907200D01*
X67404762Y-157907200D02*
X67309524Y-157811961D01*
X67309524Y-157811961D02*
X67261905Y-157716723D01*
X67261905Y-157716723D02*
X67214286Y-157526247D01*
X67214286Y-157526247D02*
X67214286Y-157383390D01*
X67214286Y-157383390D02*
X67261905Y-157192914D01*
X67261905Y-157192914D02*
X67309524Y-157097676D01*
X67309524Y-157097676D02*
X67404762Y-157002438D01*
X67404762Y-157002438D02*
X67547619Y-156954819D01*
X67547619Y-156954819D02*
X67642857Y-156954819D01*
X67642857Y-156954819D02*
X67785714Y-157002438D01*
X67785714Y-157002438D02*
X67833333Y-157050057D01*
X68309524Y-157954819D02*
X68500000Y-157954819D01*
X68500000Y-157954819D02*
X68595238Y-157907200D01*
X68595238Y-157907200D02*
X68642857Y-157859580D01*
X68642857Y-157859580D02*
X68738095Y-157716723D01*
X68738095Y-157716723D02*
X68785714Y-157526247D01*
X68785714Y-157526247D02*
X68785714Y-157145295D01*
X68785714Y-157145295D02*
X68738095Y-157050057D01*
X68738095Y-157050057D02*
X68690476Y-157002438D01*
X68690476Y-157002438D02*
X68595238Y-156954819D01*
X68595238Y-156954819D02*
X68404762Y-156954819D01*
X68404762Y-156954819D02*
X68309524Y-157002438D01*
X68309524Y-157002438D02*
X68261905Y-157050057D01*
X68261905Y-157050057D02*
X68214286Y-157145295D01*
X68214286Y-157145295D02*
X68214286Y-157383390D01*
X68214286Y-157383390D02*
X68261905Y-157478628D01*
X68261905Y-157478628D02*
X68309524Y-157526247D01*
X68309524Y-157526247D02*
X68404762Y-157573866D01*
X68404762Y-157573866D02*
X68595238Y-157573866D01*
X68595238Y-157573866D02*
X68690476Y-157526247D01*
X68690476Y-157526247D02*
X68738095Y-157478628D01*
X68738095Y-157478628D02*
X68785714Y-157383390D01*
X53557142Y-115859580D02*
X53509523Y-115907200D01*
X53509523Y-115907200D02*
X53366666Y-115954819D01*
X53366666Y-115954819D02*
X53271428Y-115954819D01*
X53271428Y-115954819D02*
X53128571Y-115907200D01*
X53128571Y-115907200D02*
X53033333Y-115811961D01*
X53033333Y-115811961D02*
X52985714Y-115716723D01*
X52985714Y-115716723D02*
X52938095Y-115526247D01*
X52938095Y-115526247D02*
X52938095Y-115383390D01*
X52938095Y-115383390D02*
X52985714Y-115192914D01*
X52985714Y-115192914D02*
X53033333Y-115097676D01*
X53033333Y-115097676D02*
X53128571Y-115002438D01*
X53128571Y-115002438D02*
X53271428Y-114954819D01*
X53271428Y-114954819D02*
X53366666Y-114954819D01*
X53366666Y-114954819D02*
X53509523Y-115002438D01*
X53509523Y-115002438D02*
X53557142Y-115050057D01*
X53890476Y-114954819D02*
X54509523Y-114954819D01*
X54509523Y-114954819D02*
X54176190Y-115335771D01*
X54176190Y-115335771D02*
X54319047Y-115335771D01*
X54319047Y-115335771D02*
X54414285Y-115383390D01*
X54414285Y-115383390D02*
X54461904Y-115431009D01*
X54461904Y-115431009D02*
X54509523Y-115526247D01*
X54509523Y-115526247D02*
X54509523Y-115764342D01*
X54509523Y-115764342D02*
X54461904Y-115859580D01*
X54461904Y-115859580D02*
X54414285Y-115907200D01*
X54414285Y-115907200D02*
X54319047Y-115954819D01*
X54319047Y-115954819D02*
X54033333Y-115954819D01*
X54033333Y-115954819D02*
X53938095Y-115907200D01*
X53938095Y-115907200D02*
X53890476Y-115859580D01*
X54842857Y-114954819D02*
X55509523Y-114954819D01*
X55509523Y-114954819D02*
X55080952Y-115954819D01*
X55214819Y-145011904D02*
X56024342Y-145011904D01*
X56024342Y-145011904D02*
X56119580Y-144964285D01*
X56119580Y-144964285D02*
X56167200Y-144916666D01*
X56167200Y-144916666D02*
X56214819Y-144821428D01*
X56214819Y-144821428D02*
X56214819Y-144630952D01*
X56214819Y-144630952D02*
X56167200Y-144535714D01*
X56167200Y-144535714D02*
X56119580Y-144488095D01*
X56119580Y-144488095D02*
X56024342Y-144440476D01*
X56024342Y-144440476D02*
X55214819Y-144440476D01*
X55643390Y-143821428D02*
X55595771Y-143916666D01*
X55595771Y-143916666D02*
X55548152Y-143964285D01*
X55548152Y-143964285D02*
X55452914Y-144011904D01*
X55452914Y-144011904D02*
X55405295Y-144011904D01*
X55405295Y-144011904D02*
X55310057Y-143964285D01*
X55310057Y-143964285D02*
X55262438Y-143916666D01*
X55262438Y-143916666D02*
X55214819Y-143821428D01*
X55214819Y-143821428D02*
X55214819Y-143630952D01*
X55214819Y-143630952D02*
X55262438Y-143535714D01*
X55262438Y-143535714D02*
X55310057Y-143488095D01*
X55310057Y-143488095D02*
X55405295Y-143440476D01*
X55405295Y-143440476D02*
X55452914Y-143440476D01*
X55452914Y-143440476D02*
X55548152Y-143488095D01*
X55548152Y-143488095D02*
X55595771Y-143535714D01*
X55595771Y-143535714D02*
X55643390Y-143630952D01*
X55643390Y-143630952D02*
X55643390Y-143821428D01*
X55643390Y-143821428D02*
X55691009Y-143916666D01*
X55691009Y-143916666D02*
X55738628Y-143964285D01*
X55738628Y-143964285D02*
X55833866Y-144011904D01*
X55833866Y-144011904D02*
X56024342Y-144011904D01*
X56024342Y-144011904D02*
X56119580Y-143964285D01*
X56119580Y-143964285D02*
X56167200Y-143916666D01*
X56167200Y-143916666D02*
X56214819Y-143821428D01*
X56214819Y-143821428D02*
X56214819Y-143630952D01*
X56214819Y-143630952D02*
X56167200Y-143535714D01*
X56167200Y-143535714D02*
X56119580Y-143488095D01*
X56119580Y-143488095D02*
X56024342Y-143440476D01*
X56024342Y-143440476D02*
X55833866Y-143440476D01*
X55833866Y-143440476D02*
X55738628Y-143488095D01*
X55738628Y-143488095D02*
X55691009Y-143535714D01*
X55691009Y-143535714D02*
X55643390Y-143630952D01*
X60229104Y-149011905D02*
X60229104Y-148535715D01*
X60514819Y-149107143D02*
X59514819Y-148773810D01*
X59514819Y-148773810D02*
X60514819Y-148440477D01*
X59848152Y-148107143D02*
X60514819Y-148107143D01*
X59943390Y-148107143D02*
X59895771Y-148059524D01*
X59895771Y-148059524D02*
X59848152Y-147964286D01*
X59848152Y-147964286D02*
X59848152Y-147821429D01*
X59848152Y-147821429D02*
X59895771Y-147726191D01*
X59895771Y-147726191D02*
X59991009Y-147678572D01*
X59991009Y-147678572D02*
X60514819Y-147678572D01*
X59848152Y-147345238D02*
X59848152Y-146964286D01*
X59514819Y-147202381D02*
X60371961Y-147202381D01*
X60371961Y-147202381D02*
X60467200Y-147154762D01*
X60467200Y-147154762D02*
X60514819Y-147059524D01*
X60514819Y-147059524D02*
X60514819Y-146964286D01*
X60467200Y-146250000D02*
X60514819Y-146345238D01*
X60514819Y-146345238D02*
X60514819Y-146535714D01*
X60514819Y-146535714D02*
X60467200Y-146630952D01*
X60467200Y-146630952D02*
X60371961Y-146678571D01*
X60371961Y-146678571D02*
X59991009Y-146678571D01*
X59991009Y-146678571D02*
X59895771Y-146630952D01*
X59895771Y-146630952D02*
X59848152Y-146535714D01*
X59848152Y-146535714D02*
X59848152Y-146345238D01*
X59848152Y-146345238D02*
X59895771Y-146250000D01*
X59895771Y-146250000D02*
X59991009Y-146202381D01*
X59991009Y-146202381D02*
X60086247Y-146202381D01*
X60086247Y-146202381D02*
X60181485Y-146678571D01*
X59848152Y-145773809D02*
X60514819Y-145773809D01*
X59943390Y-145773809D02*
X59895771Y-145726190D01*
X59895771Y-145726190D02*
X59848152Y-145630952D01*
X59848152Y-145630952D02*
X59848152Y-145488095D01*
X59848152Y-145488095D02*
X59895771Y-145392857D01*
X59895771Y-145392857D02*
X59991009Y-145345238D01*
X59991009Y-145345238D02*
X60514819Y-145345238D01*
X59848152Y-144869047D02*
X60514819Y-144869047D01*
X59943390Y-144869047D02*
X59895771Y-144821428D01*
X59895771Y-144821428D02*
X59848152Y-144726190D01*
X59848152Y-144726190D02*
X59848152Y-144583333D01*
X59848152Y-144583333D02*
X59895771Y-144488095D01*
X59895771Y-144488095D02*
X59991009Y-144440476D01*
X59991009Y-144440476D02*
X60514819Y-144440476D01*
X60514819Y-143535714D02*
X59991009Y-143535714D01*
X59991009Y-143535714D02*
X59895771Y-143583333D01*
X59895771Y-143583333D02*
X59848152Y-143678571D01*
X59848152Y-143678571D02*
X59848152Y-143869047D01*
X59848152Y-143869047D02*
X59895771Y-143964285D01*
X60467200Y-143535714D02*
X60514819Y-143630952D01*
X60514819Y-143630952D02*
X60514819Y-143869047D01*
X60514819Y-143869047D02*
X60467200Y-143964285D01*
X60467200Y-143964285D02*
X60371961Y-144011904D01*
X60371961Y-144011904D02*
X60276723Y-144011904D01*
X60276723Y-144011904D02*
X60181485Y-143964285D01*
X60181485Y-143964285D02*
X60133866Y-143869047D01*
X60133866Y-143869047D02*
X60133866Y-143630952D01*
X60133866Y-143630952D02*
X60086247Y-143535714D01*
X60229104Y-142345237D02*
X60229104Y-141869047D01*
X60514819Y-142440475D02*
X59514819Y-142107142D01*
X59514819Y-142107142D02*
X60514819Y-141773809D01*
X60514819Y-141440475D02*
X59848152Y-141440475D01*
X60038628Y-141440475D02*
X59943390Y-141392856D01*
X59943390Y-141392856D02*
X59895771Y-141345237D01*
X59895771Y-141345237D02*
X59848152Y-141249999D01*
X59848152Y-141249999D02*
X59848152Y-141154761D01*
X60467200Y-140440475D02*
X60514819Y-140535713D01*
X60514819Y-140535713D02*
X60514819Y-140726189D01*
X60514819Y-140726189D02*
X60467200Y-140821427D01*
X60467200Y-140821427D02*
X60371961Y-140869046D01*
X60371961Y-140869046D02*
X59991009Y-140869046D01*
X59991009Y-140869046D02*
X59895771Y-140821427D01*
X59895771Y-140821427D02*
X59848152Y-140726189D01*
X59848152Y-140726189D02*
X59848152Y-140535713D01*
X59848152Y-140535713D02*
X59895771Y-140440475D01*
X59895771Y-140440475D02*
X59991009Y-140392856D01*
X59991009Y-140392856D02*
X60086247Y-140392856D01*
X60086247Y-140392856D02*
X60181485Y-140869046D01*
X60514819Y-139535713D02*
X59991009Y-139535713D01*
X59991009Y-139535713D02*
X59895771Y-139583332D01*
X59895771Y-139583332D02*
X59848152Y-139678570D01*
X59848152Y-139678570D02*
X59848152Y-139869046D01*
X59848152Y-139869046D02*
X59895771Y-139964284D01*
X60467200Y-139535713D02*
X60514819Y-139630951D01*
X60514819Y-139630951D02*
X60514819Y-139869046D01*
X60514819Y-139869046D02*
X60467200Y-139964284D01*
X60467200Y-139964284D02*
X60371961Y-140011903D01*
X60371961Y-140011903D02*
X60276723Y-140011903D01*
X60276723Y-140011903D02*
X60181485Y-139964284D01*
X60181485Y-139964284D02*
X60133866Y-139869046D01*
X60133866Y-139869046D02*
X60133866Y-139630951D01*
X60133866Y-139630951D02*
X60086247Y-139535713D01*
X54575833Y-131599580D02*
X54528214Y-131647200D01*
X54528214Y-131647200D02*
X54385357Y-131694819D01*
X54385357Y-131694819D02*
X54290119Y-131694819D01*
X54290119Y-131694819D02*
X54147262Y-131647200D01*
X54147262Y-131647200D02*
X54052024Y-131551961D01*
X54052024Y-131551961D02*
X54004405Y-131456723D01*
X54004405Y-131456723D02*
X53956786Y-131266247D01*
X53956786Y-131266247D02*
X53956786Y-131123390D01*
X53956786Y-131123390D02*
X54004405Y-130932914D01*
X54004405Y-130932914D02*
X54052024Y-130837676D01*
X54052024Y-130837676D02*
X54147262Y-130742438D01*
X54147262Y-130742438D02*
X54290119Y-130694819D01*
X54290119Y-130694819D02*
X54385357Y-130694819D01*
X54385357Y-130694819D02*
X54528214Y-130742438D01*
X54528214Y-130742438D02*
X54575833Y-130790057D01*
X55480595Y-130694819D02*
X55004405Y-130694819D01*
X55004405Y-130694819D02*
X54956786Y-131171009D01*
X54956786Y-131171009D02*
X55004405Y-131123390D01*
X55004405Y-131123390D02*
X55099643Y-131075771D01*
X55099643Y-131075771D02*
X55337738Y-131075771D01*
X55337738Y-131075771D02*
X55432976Y-131123390D01*
X55432976Y-131123390D02*
X55480595Y-131171009D01*
X55480595Y-131171009D02*
X55528214Y-131266247D01*
X55528214Y-131266247D02*
X55528214Y-131504342D01*
X55528214Y-131504342D02*
X55480595Y-131599580D01*
X55480595Y-131599580D02*
X55432976Y-131647200D01*
X55432976Y-131647200D02*
X55337738Y-131694819D01*
X55337738Y-131694819D02*
X55099643Y-131694819D01*
X55099643Y-131694819D02*
X55004405Y-131647200D01*
X55004405Y-131647200D02*
X54956786Y-131599580D01*
X63404819Y-66241666D02*
X63404819Y-66717856D01*
X63404819Y-66717856D02*
X62404819Y-66717856D01*
X63404819Y-65384523D02*
X63404819Y-65955951D01*
X63404819Y-65670237D02*
X62404819Y-65670237D01*
X62404819Y-65670237D02*
X62547676Y-65765475D01*
X62547676Y-65765475D02*
X62642914Y-65860713D01*
X62642914Y-65860713D02*
X62690533Y-65955951D01*
X56761905Y-105454819D02*
X56761905Y-104454819D01*
X56761905Y-104454819D02*
X57000000Y-104454819D01*
X57000000Y-104454819D02*
X57142857Y-104502438D01*
X57142857Y-104502438D02*
X57238095Y-104597676D01*
X57238095Y-104597676D02*
X57285714Y-104692914D01*
X57285714Y-104692914D02*
X57333333Y-104883390D01*
X57333333Y-104883390D02*
X57333333Y-105026247D01*
X57333333Y-105026247D02*
X57285714Y-105216723D01*
X57285714Y-105216723D02*
X57238095Y-105311961D01*
X57238095Y-105311961D02*
X57142857Y-105407200D01*
X57142857Y-105407200D02*
X57000000Y-105454819D01*
X57000000Y-105454819D02*
X56761905Y-105454819D01*
X57809524Y-105454819D02*
X58000000Y-105454819D01*
X58000000Y-105454819D02*
X58095238Y-105407200D01*
X58095238Y-105407200D02*
X58142857Y-105359580D01*
X58142857Y-105359580D02*
X58238095Y-105216723D01*
X58238095Y-105216723D02*
X58285714Y-105026247D01*
X58285714Y-105026247D02*
X58285714Y-104645295D01*
X58285714Y-104645295D02*
X58238095Y-104550057D01*
X58238095Y-104550057D02*
X58190476Y-104502438D01*
X58190476Y-104502438D02*
X58095238Y-104454819D01*
X58095238Y-104454819D02*
X57904762Y-104454819D01*
X57904762Y-104454819D02*
X57809524Y-104502438D01*
X57809524Y-104502438D02*
X57761905Y-104550057D01*
X57761905Y-104550057D02*
X57714286Y-104645295D01*
X57714286Y-104645295D02*
X57714286Y-104883390D01*
X57714286Y-104883390D02*
X57761905Y-104978628D01*
X57761905Y-104978628D02*
X57809524Y-105026247D01*
X57809524Y-105026247D02*
X57904762Y-105073866D01*
X57904762Y-105073866D02*
X58095238Y-105073866D01*
X58095238Y-105073866D02*
X58190476Y-105026247D01*
X58190476Y-105026247D02*
X58238095Y-104978628D01*
X58238095Y-104978628D02*
X58285714Y-104883390D01*
X73782142Y-59559580D02*
X73734523Y-59607200D01*
X73734523Y-59607200D02*
X73591666Y-59654819D01*
X73591666Y-59654819D02*
X73496428Y-59654819D01*
X73496428Y-59654819D02*
X73353571Y-59607200D01*
X73353571Y-59607200D02*
X73258333Y-59511961D01*
X73258333Y-59511961D02*
X73210714Y-59416723D01*
X73210714Y-59416723D02*
X73163095Y-59226247D01*
X73163095Y-59226247D02*
X73163095Y-59083390D01*
X73163095Y-59083390D02*
X73210714Y-58892914D01*
X73210714Y-58892914D02*
X73258333Y-58797676D01*
X73258333Y-58797676D02*
X73353571Y-58702438D01*
X73353571Y-58702438D02*
X73496428Y-58654819D01*
X73496428Y-58654819D02*
X73591666Y-58654819D01*
X73591666Y-58654819D02*
X73734523Y-58702438D01*
X73734523Y-58702438D02*
X73782142Y-58750057D01*
X74734523Y-59654819D02*
X74163095Y-59654819D01*
X74448809Y-59654819D02*
X74448809Y-58654819D01*
X74448809Y-58654819D02*
X74353571Y-58797676D01*
X74353571Y-58797676D02*
X74258333Y-58892914D01*
X74258333Y-58892914D02*
X74163095Y-58940533D01*
X75591666Y-58988152D02*
X75591666Y-59654819D01*
X75353571Y-58607200D02*
X75115476Y-59321485D01*
X75115476Y-59321485D02*
X75734523Y-59321485D01*
X79838095Y-57654819D02*
X79838095Y-58464342D01*
X79838095Y-58464342D02*
X79885714Y-58559580D01*
X79885714Y-58559580D02*
X79933333Y-58607200D01*
X79933333Y-58607200D02*
X80028571Y-58654819D01*
X80028571Y-58654819D02*
X80219047Y-58654819D01*
X80219047Y-58654819D02*
X80314285Y-58607200D01*
X80314285Y-58607200D02*
X80361904Y-58559580D01*
X80361904Y-58559580D02*
X80409523Y-58464342D01*
X80409523Y-58464342D02*
X80409523Y-57654819D01*
X81314285Y-57654819D02*
X81123809Y-57654819D01*
X81123809Y-57654819D02*
X81028571Y-57702438D01*
X81028571Y-57702438D02*
X80980952Y-57750057D01*
X80980952Y-57750057D02*
X80885714Y-57892914D01*
X80885714Y-57892914D02*
X80838095Y-58083390D01*
X80838095Y-58083390D02*
X80838095Y-58464342D01*
X80838095Y-58464342D02*
X80885714Y-58559580D01*
X80885714Y-58559580D02*
X80933333Y-58607200D01*
X80933333Y-58607200D02*
X81028571Y-58654819D01*
X81028571Y-58654819D02*
X81219047Y-58654819D01*
X81219047Y-58654819D02*
X81314285Y-58607200D01*
X81314285Y-58607200D02*
X81361904Y-58559580D01*
X81361904Y-58559580D02*
X81409523Y-58464342D01*
X81409523Y-58464342D02*
X81409523Y-58226247D01*
X81409523Y-58226247D02*
X81361904Y-58131009D01*
X81361904Y-58131009D02*
X81314285Y-58083390D01*
X81314285Y-58083390D02*
X81219047Y-58035771D01*
X81219047Y-58035771D02*
X81028571Y-58035771D01*
X81028571Y-58035771D02*
X80933333Y-58083390D01*
X80933333Y-58083390D02*
X80885714Y-58131009D01*
X80885714Y-58131009D02*
X80838095Y-58226247D01*
X56833333Y-122454819D02*
X56500000Y-121978628D01*
X56261905Y-122454819D02*
X56261905Y-121454819D01*
X56261905Y-121454819D02*
X56642857Y-121454819D01*
X56642857Y-121454819D02*
X56738095Y-121502438D01*
X56738095Y-121502438D02*
X56785714Y-121550057D01*
X56785714Y-121550057D02*
X56833333Y-121645295D01*
X56833333Y-121645295D02*
X56833333Y-121788152D01*
X56833333Y-121788152D02*
X56785714Y-121883390D01*
X56785714Y-121883390D02*
X56738095Y-121931009D01*
X56738095Y-121931009D02*
X56642857Y-121978628D01*
X56642857Y-121978628D02*
X56261905Y-121978628D01*
X57309524Y-122454819D02*
X57500000Y-122454819D01*
X57500000Y-122454819D02*
X57595238Y-122407200D01*
X57595238Y-122407200D02*
X57642857Y-122359580D01*
X57642857Y-122359580D02*
X57738095Y-122216723D01*
X57738095Y-122216723D02*
X57785714Y-122026247D01*
X57785714Y-122026247D02*
X57785714Y-121645295D01*
X57785714Y-121645295D02*
X57738095Y-121550057D01*
X57738095Y-121550057D02*
X57690476Y-121502438D01*
X57690476Y-121502438D02*
X57595238Y-121454819D01*
X57595238Y-121454819D02*
X57404762Y-121454819D01*
X57404762Y-121454819D02*
X57309524Y-121502438D01*
X57309524Y-121502438D02*
X57261905Y-121550057D01*
X57261905Y-121550057D02*
X57214286Y-121645295D01*
X57214286Y-121645295D02*
X57214286Y-121883390D01*
X57214286Y-121883390D02*
X57261905Y-121978628D01*
X57261905Y-121978628D02*
X57309524Y-122026247D01*
X57309524Y-122026247D02*
X57404762Y-122073866D01*
X57404762Y-122073866D02*
X57595238Y-122073866D01*
X57595238Y-122073866D02*
X57690476Y-122026247D01*
X57690476Y-122026247D02*
X57738095Y-121978628D01*
X57738095Y-121978628D02*
X57785714Y-121883390D01*
X59357142Y-115454819D02*
X59023809Y-114978628D01*
X58785714Y-115454819D02*
X58785714Y-114454819D01*
X58785714Y-114454819D02*
X59166666Y-114454819D01*
X59166666Y-114454819D02*
X59261904Y-114502438D01*
X59261904Y-114502438D02*
X59309523Y-114550057D01*
X59309523Y-114550057D02*
X59357142Y-114645295D01*
X59357142Y-114645295D02*
X59357142Y-114788152D01*
X59357142Y-114788152D02*
X59309523Y-114883390D01*
X59309523Y-114883390D02*
X59261904Y-114931009D01*
X59261904Y-114931009D02*
X59166666Y-114978628D01*
X59166666Y-114978628D02*
X58785714Y-114978628D01*
X59690476Y-114454819D02*
X60309523Y-114454819D01*
X60309523Y-114454819D02*
X59976190Y-114835771D01*
X59976190Y-114835771D02*
X60119047Y-114835771D01*
X60119047Y-114835771D02*
X60214285Y-114883390D01*
X60214285Y-114883390D02*
X60261904Y-114931009D01*
X60261904Y-114931009D02*
X60309523Y-115026247D01*
X60309523Y-115026247D02*
X60309523Y-115264342D01*
X60309523Y-115264342D02*
X60261904Y-115359580D01*
X60261904Y-115359580D02*
X60214285Y-115407200D01*
X60214285Y-115407200D02*
X60119047Y-115454819D01*
X60119047Y-115454819D02*
X59833333Y-115454819D01*
X59833333Y-115454819D02*
X59738095Y-115407200D01*
X59738095Y-115407200D02*
X59690476Y-115359580D01*
X60785714Y-115454819D02*
X60976190Y-115454819D01*
X60976190Y-115454819D02*
X61071428Y-115407200D01*
X61071428Y-115407200D02*
X61119047Y-115359580D01*
X61119047Y-115359580D02*
X61214285Y-115216723D01*
X61214285Y-115216723D02*
X61261904Y-115026247D01*
X61261904Y-115026247D02*
X61261904Y-114645295D01*
X61261904Y-114645295D02*
X61214285Y-114550057D01*
X61214285Y-114550057D02*
X61166666Y-114502438D01*
X61166666Y-114502438D02*
X61071428Y-114454819D01*
X61071428Y-114454819D02*
X60880952Y-114454819D01*
X60880952Y-114454819D02*
X60785714Y-114502438D01*
X60785714Y-114502438D02*
X60738095Y-114550057D01*
X60738095Y-114550057D02*
X60690476Y-114645295D01*
X60690476Y-114645295D02*
X60690476Y-114883390D01*
X60690476Y-114883390D02*
X60738095Y-114978628D01*
X60738095Y-114978628D02*
X60785714Y-115026247D01*
X60785714Y-115026247D02*
X60880952Y-115073866D01*
X60880952Y-115073866D02*
X61071428Y-115073866D01*
X61071428Y-115073866D02*
X61166666Y-115026247D01*
X61166666Y-115026247D02*
X61214285Y-114978628D01*
X61214285Y-114978628D02*
X61261904Y-114883390D01*
X71357142Y-98859580D02*
X71309523Y-98907200D01*
X71309523Y-98907200D02*
X71166666Y-98954819D01*
X71166666Y-98954819D02*
X71071428Y-98954819D01*
X71071428Y-98954819D02*
X70928571Y-98907200D01*
X70928571Y-98907200D02*
X70833333Y-98811961D01*
X70833333Y-98811961D02*
X70785714Y-98716723D01*
X70785714Y-98716723D02*
X70738095Y-98526247D01*
X70738095Y-98526247D02*
X70738095Y-98383390D01*
X70738095Y-98383390D02*
X70785714Y-98192914D01*
X70785714Y-98192914D02*
X70833333Y-98097676D01*
X70833333Y-98097676D02*
X70928571Y-98002438D01*
X70928571Y-98002438D02*
X71071428Y-97954819D01*
X71071428Y-97954819D02*
X71166666Y-97954819D01*
X71166666Y-97954819D02*
X71309523Y-98002438D01*
X71309523Y-98002438D02*
X71357142Y-98050057D01*
X72309523Y-98954819D02*
X71738095Y-98954819D01*
X72023809Y-98954819D02*
X72023809Y-97954819D01*
X72023809Y-97954819D02*
X71928571Y-98097676D01*
X71928571Y-98097676D02*
X71833333Y-98192914D01*
X71833333Y-98192914D02*
X71738095Y-98240533D01*
X72642857Y-97954819D02*
X73261904Y-97954819D01*
X73261904Y-97954819D02*
X72928571Y-98335771D01*
X72928571Y-98335771D02*
X73071428Y-98335771D01*
X73071428Y-98335771D02*
X73166666Y-98383390D01*
X73166666Y-98383390D02*
X73214285Y-98431009D01*
X73214285Y-98431009D02*
X73261904Y-98526247D01*
X73261904Y-98526247D02*
X73261904Y-98764342D01*
X73261904Y-98764342D02*
X73214285Y-98859580D01*
X73214285Y-98859580D02*
X73166666Y-98907200D01*
X73166666Y-98907200D02*
X73071428Y-98954819D01*
X73071428Y-98954819D02*
X72785714Y-98954819D01*
X72785714Y-98954819D02*
X72690476Y-98907200D01*
X72690476Y-98907200D02*
X72642857Y-98859580D01*
X86880952Y-128931009D02*
X87023809Y-128978628D01*
X87023809Y-128978628D02*
X87071428Y-129026247D01*
X87071428Y-129026247D02*
X87119047Y-129121485D01*
X87119047Y-129121485D02*
X87119047Y-129264342D01*
X87119047Y-129264342D02*
X87071428Y-129359580D01*
X87071428Y-129359580D02*
X87023809Y-129407200D01*
X87023809Y-129407200D02*
X86928571Y-129454819D01*
X86928571Y-129454819D02*
X86547619Y-129454819D01*
X86547619Y-129454819D02*
X86547619Y-128454819D01*
X86547619Y-128454819D02*
X86880952Y-128454819D01*
X86880952Y-128454819D02*
X86976190Y-128502438D01*
X86976190Y-128502438D02*
X87023809Y-128550057D01*
X87023809Y-128550057D02*
X87071428Y-128645295D01*
X87071428Y-128645295D02*
X87071428Y-128740533D01*
X87071428Y-128740533D02*
X87023809Y-128835771D01*
X87023809Y-128835771D02*
X86976190Y-128883390D01*
X86976190Y-128883390D02*
X86880952Y-128931009D01*
X86880952Y-128931009D02*
X86547619Y-128931009D01*
X87690476Y-129454819D02*
X87595238Y-129407200D01*
X87595238Y-129407200D02*
X87547619Y-129359580D01*
X87547619Y-129359580D02*
X87500000Y-129264342D01*
X87500000Y-129264342D02*
X87500000Y-128978628D01*
X87500000Y-128978628D02*
X87547619Y-128883390D01*
X87547619Y-128883390D02*
X87595238Y-128835771D01*
X87595238Y-128835771D02*
X87690476Y-128788152D01*
X87690476Y-128788152D02*
X87833333Y-128788152D01*
X87833333Y-128788152D02*
X87928571Y-128835771D01*
X87928571Y-128835771D02*
X87976190Y-128883390D01*
X87976190Y-128883390D02*
X88023809Y-128978628D01*
X88023809Y-128978628D02*
X88023809Y-129264342D01*
X88023809Y-129264342D02*
X87976190Y-129359580D01*
X87976190Y-129359580D02*
X87928571Y-129407200D01*
X87928571Y-129407200D02*
X87833333Y-129454819D01*
X87833333Y-129454819D02*
X87690476Y-129454819D01*
X88595238Y-129454819D02*
X88500000Y-129407200D01*
X88500000Y-129407200D02*
X88452381Y-129359580D01*
X88452381Y-129359580D02*
X88404762Y-129264342D01*
X88404762Y-129264342D02*
X88404762Y-128978628D01*
X88404762Y-128978628D02*
X88452381Y-128883390D01*
X88452381Y-128883390D02*
X88500000Y-128835771D01*
X88500000Y-128835771D02*
X88595238Y-128788152D01*
X88595238Y-128788152D02*
X88738095Y-128788152D01*
X88738095Y-128788152D02*
X88833333Y-128835771D01*
X88833333Y-128835771D02*
X88880952Y-128883390D01*
X88880952Y-128883390D02*
X88928571Y-128978628D01*
X88928571Y-128978628D02*
X88928571Y-129264342D01*
X88928571Y-129264342D02*
X88880952Y-129359580D01*
X88880952Y-129359580D02*
X88833333Y-129407200D01*
X88833333Y-129407200D02*
X88738095Y-129454819D01*
X88738095Y-129454819D02*
X88595238Y-129454819D01*
X89214286Y-128788152D02*
X89595238Y-128788152D01*
X89357143Y-128454819D02*
X89357143Y-129311961D01*
X89357143Y-129311961D02*
X89404762Y-129407200D01*
X89404762Y-129407200D02*
X89500000Y-129454819D01*
X89500000Y-129454819D02*
X89595238Y-129454819D01*
X60883333Y-97809580D02*
X60835714Y-97857200D01*
X60835714Y-97857200D02*
X60692857Y-97904819D01*
X60692857Y-97904819D02*
X60597619Y-97904819D01*
X60597619Y-97904819D02*
X60454762Y-97857200D01*
X60454762Y-97857200D02*
X60359524Y-97761961D01*
X60359524Y-97761961D02*
X60311905Y-97666723D01*
X60311905Y-97666723D02*
X60264286Y-97476247D01*
X60264286Y-97476247D02*
X60264286Y-97333390D01*
X60264286Y-97333390D02*
X60311905Y-97142914D01*
X60311905Y-97142914D02*
X60359524Y-97047676D01*
X60359524Y-97047676D02*
X60454762Y-96952438D01*
X60454762Y-96952438D02*
X60597619Y-96904819D01*
X60597619Y-96904819D02*
X60692857Y-96904819D01*
X60692857Y-96904819D02*
X60835714Y-96952438D01*
X60835714Y-96952438D02*
X60883333Y-97000057D01*
X61454762Y-97333390D02*
X61359524Y-97285771D01*
X61359524Y-97285771D02*
X61311905Y-97238152D01*
X61311905Y-97238152D02*
X61264286Y-97142914D01*
X61264286Y-97142914D02*
X61264286Y-97095295D01*
X61264286Y-97095295D02*
X61311905Y-97000057D01*
X61311905Y-97000057D02*
X61359524Y-96952438D01*
X61359524Y-96952438D02*
X61454762Y-96904819D01*
X61454762Y-96904819D02*
X61645238Y-96904819D01*
X61645238Y-96904819D02*
X61740476Y-96952438D01*
X61740476Y-96952438D02*
X61788095Y-97000057D01*
X61788095Y-97000057D02*
X61835714Y-97095295D01*
X61835714Y-97095295D02*
X61835714Y-97142914D01*
X61835714Y-97142914D02*
X61788095Y-97238152D01*
X61788095Y-97238152D02*
X61740476Y-97285771D01*
X61740476Y-97285771D02*
X61645238Y-97333390D01*
X61645238Y-97333390D02*
X61454762Y-97333390D01*
X61454762Y-97333390D02*
X61359524Y-97381009D01*
X61359524Y-97381009D02*
X61311905Y-97428628D01*
X61311905Y-97428628D02*
X61264286Y-97523866D01*
X61264286Y-97523866D02*
X61264286Y-97714342D01*
X61264286Y-97714342D02*
X61311905Y-97809580D01*
X61311905Y-97809580D02*
X61359524Y-97857200D01*
X61359524Y-97857200D02*
X61454762Y-97904819D01*
X61454762Y-97904819D02*
X61645238Y-97904819D01*
X61645238Y-97904819D02*
X61740476Y-97857200D01*
X61740476Y-97857200D02*
X61788095Y-97809580D01*
X61788095Y-97809580D02*
X61835714Y-97714342D01*
X61835714Y-97714342D02*
X61835714Y-97523866D01*
X61835714Y-97523866D02*
X61788095Y-97428628D01*
X61788095Y-97428628D02*
X61740476Y-97381009D01*
X61740476Y-97381009D02*
X61645238Y-97333390D01*
X57970833Y-131454819D02*
X57637500Y-130978628D01*
X57399405Y-131454819D02*
X57399405Y-130454819D01*
X57399405Y-130454819D02*
X57780357Y-130454819D01*
X57780357Y-130454819D02*
X57875595Y-130502438D01*
X57875595Y-130502438D02*
X57923214Y-130550057D01*
X57923214Y-130550057D02*
X57970833Y-130645295D01*
X57970833Y-130645295D02*
X57970833Y-130788152D01*
X57970833Y-130788152D02*
X57923214Y-130883390D01*
X57923214Y-130883390D02*
X57875595Y-130931009D01*
X57875595Y-130931009D02*
X57780357Y-130978628D01*
X57780357Y-130978628D02*
X57399405Y-130978628D01*
X58304167Y-130454819D02*
X58923214Y-130454819D01*
X58923214Y-130454819D02*
X58589881Y-130835771D01*
X58589881Y-130835771D02*
X58732738Y-130835771D01*
X58732738Y-130835771D02*
X58827976Y-130883390D01*
X58827976Y-130883390D02*
X58875595Y-130931009D01*
X58875595Y-130931009D02*
X58923214Y-131026247D01*
X58923214Y-131026247D02*
X58923214Y-131264342D01*
X58923214Y-131264342D02*
X58875595Y-131359580D01*
X58875595Y-131359580D02*
X58827976Y-131407200D01*
X58827976Y-131407200D02*
X58732738Y-131454819D01*
X58732738Y-131454819D02*
X58447024Y-131454819D01*
X58447024Y-131454819D02*
X58351786Y-131407200D01*
X58351786Y-131407200D02*
X58304167Y-131359580D01*
X60357142Y-79429580D02*
X60309523Y-79477200D01*
X60309523Y-79477200D02*
X60166666Y-79524819D01*
X60166666Y-79524819D02*
X60071428Y-79524819D01*
X60071428Y-79524819D02*
X59928571Y-79477200D01*
X59928571Y-79477200D02*
X59833333Y-79381961D01*
X59833333Y-79381961D02*
X59785714Y-79286723D01*
X59785714Y-79286723D02*
X59738095Y-79096247D01*
X59738095Y-79096247D02*
X59738095Y-78953390D01*
X59738095Y-78953390D02*
X59785714Y-78762914D01*
X59785714Y-78762914D02*
X59833333Y-78667676D01*
X59833333Y-78667676D02*
X59928571Y-78572438D01*
X59928571Y-78572438D02*
X60071428Y-78524819D01*
X60071428Y-78524819D02*
X60166666Y-78524819D01*
X60166666Y-78524819D02*
X60309523Y-78572438D01*
X60309523Y-78572438D02*
X60357142Y-78620057D01*
X61309523Y-79524819D02*
X60738095Y-79524819D01*
X61023809Y-79524819D02*
X61023809Y-78524819D01*
X61023809Y-78524819D02*
X60928571Y-78667676D01*
X60928571Y-78667676D02*
X60833333Y-78762914D01*
X60833333Y-78762914D02*
X60738095Y-78810533D01*
X61928571Y-78524819D02*
X62023809Y-78524819D01*
X62023809Y-78524819D02*
X62119047Y-78572438D01*
X62119047Y-78572438D02*
X62166666Y-78620057D01*
X62166666Y-78620057D02*
X62214285Y-78715295D01*
X62214285Y-78715295D02*
X62261904Y-78905771D01*
X62261904Y-78905771D02*
X62261904Y-79143866D01*
X62261904Y-79143866D02*
X62214285Y-79334342D01*
X62214285Y-79334342D02*
X62166666Y-79429580D01*
X62166666Y-79429580D02*
X62119047Y-79477200D01*
X62119047Y-79477200D02*
X62023809Y-79524819D01*
X62023809Y-79524819D02*
X61928571Y-79524819D01*
X61928571Y-79524819D02*
X61833333Y-79477200D01*
X61833333Y-79477200D02*
X61785714Y-79429580D01*
X61785714Y-79429580D02*
X61738095Y-79334342D01*
X61738095Y-79334342D02*
X61690476Y-79143866D01*
X61690476Y-79143866D02*
X61690476Y-78905771D01*
X61690476Y-78905771D02*
X61738095Y-78715295D01*
X61738095Y-78715295D02*
X61785714Y-78620057D01*
X61785714Y-78620057D02*
X61833333Y-78572438D01*
X61833333Y-78572438D02*
X61928571Y-78524819D01*
X79284580Y-129892857D02*
X79332200Y-129940476D01*
X79332200Y-129940476D02*
X79379819Y-130083333D01*
X79379819Y-130083333D02*
X79379819Y-130178571D01*
X79379819Y-130178571D02*
X79332200Y-130321428D01*
X79332200Y-130321428D02*
X79236961Y-130416666D01*
X79236961Y-130416666D02*
X79141723Y-130464285D01*
X79141723Y-130464285D02*
X78951247Y-130511904D01*
X78951247Y-130511904D02*
X78808390Y-130511904D01*
X78808390Y-130511904D02*
X78617914Y-130464285D01*
X78617914Y-130464285D02*
X78522676Y-130416666D01*
X78522676Y-130416666D02*
X78427438Y-130321428D01*
X78427438Y-130321428D02*
X78379819Y-130178571D01*
X78379819Y-130178571D02*
X78379819Y-130083333D01*
X78379819Y-130083333D02*
X78427438Y-129940476D01*
X78427438Y-129940476D02*
X78475057Y-129892857D01*
X78475057Y-129511904D02*
X78427438Y-129464285D01*
X78427438Y-129464285D02*
X78379819Y-129369047D01*
X78379819Y-129369047D02*
X78379819Y-129130952D01*
X78379819Y-129130952D02*
X78427438Y-129035714D01*
X78427438Y-129035714D02*
X78475057Y-128988095D01*
X78475057Y-128988095D02*
X78570295Y-128940476D01*
X78570295Y-128940476D02*
X78665533Y-128940476D01*
X78665533Y-128940476D02*
X78808390Y-128988095D01*
X78808390Y-128988095D02*
X79379819Y-129559523D01*
X79379819Y-129559523D02*
X79379819Y-128940476D01*
X78379819Y-128321428D02*
X78379819Y-128226190D01*
X78379819Y-128226190D02*
X78427438Y-128130952D01*
X78427438Y-128130952D02*
X78475057Y-128083333D01*
X78475057Y-128083333D02*
X78570295Y-128035714D01*
X78570295Y-128035714D02*
X78760771Y-127988095D01*
X78760771Y-127988095D02*
X78998866Y-127988095D01*
X78998866Y-127988095D02*
X79189342Y-128035714D01*
X79189342Y-128035714D02*
X79284580Y-128083333D01*
X79284580Y-128083333D02*
X79332200Y-128130952D01*
X79332200Y-128130952D02*
X79379819Y-128226190D01*
X79379819Y-128226190D02*
X79379819Y-128321428D01*
X79379819Y-128321428D02*
X79332200Y-128416666D01*
X79332200Y-128416666D02*
X79284580Y-128464285D01*
X79284580Y-128464285D02*
X79189342Y-128511904D01*
X79189342Y-128511904D02*
X78998866Y-128559523D01*
X78998866Y-128559523D02*
X78760771Y-128559523D01*
X78760771Y-128559523D02*
X78570295Y-128511904D01*
X78570295Y-128511904D02*
X78475057Y-128464285D01*
X78475057Y-128464285D02*
X78427438Y-128416666D01*
X78427438Y-128416666D02*
X78379819Y-128321428D01*
X60104819Y-94061904D02*
X60914342Y-94061904D01*
X60914342Y-94061904D02*
X61009580Y-94014285D01*
X61009580Y-94014285D02*
X61057200Y-93966666D01*
X61057200Y-93966666D02*
X61104819Y-93871428D01*
X61104819Y-93871428D02*
X61104819Y-93680952D01*
X61104819Y-93680952D02*
X61057200Y-93585714D01*
X61057200Y-93585714D02*
X61009580Y-93538095D01*
X61009580Y-93538095D02*
X60914342Y-93490476D01*
X60914342Y-93490476D02*
X60104819Y-93490476D01*
X60104819Y-93109523D02*
X60104819Y-92442857D01*
X60104819Y-92442857D02*
X61104819Y-92871428D01*
X75054819Y-125617857D02*
X74578628Y-125951190D01*
X75054819Y-126189285D02*
X74054819Y-126189285D01*
X74054819Y-126189285D02*
X74054819Y-125808333D01*
X74054819Y-125808333D02*
X74102438Y-125713095D01*
X74102438Y-125713095D02*
X74150057Y-125665476D01*
X74150057Y-125665476D02*
X74245295Y-125617857D01*
X74245295Y-125617857D02*
X74388152Y-125617857D01*
X74388152Y-125617857D02*
X74483390Y-125665476D01*
X74483390Y-125665476D02*
X74531009Y-125713095D01*
X74531009Y-125713095D02*
X74578628Y-125808333D01*
X74578628Y-125808333D02*
X74578628Y-126189285D01*
X75054819Y-124665476D02*
X75054819Y-125236904D01*
X75054819Y-124951190D02*
X74054819Y-124951190D01*
X74054819Y-124951190D02*
X74197676Y-125046428D01*
X74197676Y-125046428D02*
X74292914Y-125141666D01*
X74292914Y-125141666D02*
X74340533Y-125236904D01*
X74054819Y-123808333D02*
X74054819Y-123998809D01*
X74054819Y-123998809D02*
X74102438Y-124094047D01*
X74102438Y-124094047D02*
X74150057Y-124141666D01*
X74150057Y-124141666D02*
X74292914Y-124236904D01*
X74292914Y-124236904D02*
X74483390Y-124284523D01*
X74483390Y-124284523D02*
X74864342Y-124284523D01*
X74864342Y-124284523D02*
X74959580Y-124236904D01*
X74959580Y-124236904D02*
X75007200Y-124189285D01*
X75007200Y-124189285D02*
X75054819Y-124094047D01*
X75054819Y-124094047D02*
X75054819Y-123903571D01*
X75054819Y-123903571D02*
X75007200Y-123808333D01*
X75007200Y-123808333D02*
X74959580Y-123760714D01*
X74959580Y-123760714D02*
X74864342Y-123713095D01*
X74864342Y-123713095D02*
X74626247Y-123713095D01*
X74626247Y-123713095D02*
X74531009Y-123760714D01*
X74531009Y-123760714D02*
X74483390Y-123808333D01*
X74483390Y-123808333D02*
X74435771Y-123903571D01*
X74435771Y-123903571D02*
X74435771Y-124094047D01*
X74435771Y-124094047D02*
X74483390Y-124189285D01*
X74483390Y-124189285D02*
X74531009Y-124236904D01*
X74531009Y-124236904D02*
X74626247Y-124284523D01*
X66704819Y-54038094D02*
X65704819Y-54038094D01*
X65704819Y-54038094D02*
X65704819Y-53799999D01*
X65704819Y-53799999D02*
X65752438Y-53657142D01*
X65752438Y-53657142D02*
X65847676Y-53561904D01*
X65847676Y-53561904D02*
X65942914Y-53514285D01*
X65942914Y-53514285D02*
X66133390Y-53466666D01*
X66133390Y-53466666D02*
X66276247Y-53466666D01*
X66276247Y-53466666D02*
X66466723Y-53514285D01*
X66466723Y-53514285D02*
X66561961Y-53561904D01*
X66561961Y-53561904D02*
X66657200Y-53657142D01*
X66657200Y-53657142D02*
X66704819Y-53799999D01*
X66704819Y-53799999D02*
X66704819Y-54038094D01*
X65704819Y-52609523D02*
X65704819Y-52799999D01*
X65704819Y-52799999D02*
X65752438Y-52895237D01*
X65752438Y-52895237D02*
X65800057Y-52942856D01*
X65800057Y-52942856D02*
X65942914Y-53038094D01*
X65942914Y-53038094D02*
X66133390Y-53085713D01*
X66133390Y-53085713D02*
X66514342Y-53085713D01*
X66514342Y-53085713D02*
X66609580Y-53038094D01*
X66609580Y-53038094D02*
X66657200Y-52990475D01*
X66657200Y-52990475D02*
X66704819Y-52895237D01*
X66704819Y-52895237D02*
X66704819Y-52704761D01*
X66704819Y-52704761D02*
X66657200Y-52609523D01*
X66657200Y-52609523D02*
X66609580Y-52561904D01*
X66609580Y-52561904D02*
X66514342Y-52514285D01*
X66514342Y-52514285D02*
X66276247Y-52514285D01*
X66276247Y-52514285D02*
X66181009Y-52561904D01*
X66181009Y-52561904D02*
X66133390Y-52609523D01*
X66133390Y-52609523D02*
X66085771Y-52704761D01*
X66085771Y-52704761D02*
X66085771Y-52895237D01*
X66085771Y-52895237D02*
X66133390Y-52990475D01*
X66133390Y-52990475D02*
X66181009Y-53038094D01*
X66181009Y-53038094D02*
X66276247Y-53085713D01*
X62857142Y-100954819D02*
X62523809Y-100478628D01*
X62285714Y-100954819D02*
X62285714Y-99954819D01*
X62285714Y-99954819D02*
X62666666Y-99954819D01*
X62666666Y-99954819D02*
X62761904Y-100002438D01*
X62761904Y-100002438D02*
X62809523Y-100050057D01*
X62809523Y-100050057D02*
X62857142Y-100145295D01*
X62857142Y-100145295D02*
X62857142Y-100288152D01*
X62857142Y-100288152D02*
X62809523Y-100383390D01*
X62809523Y-100383390D02*
X62761904Y-100431009D01*
X62761904Y-100431009D02*
X62666666Y-100478628D01*
X62666666Y-100478628D02*
X62285714Y-100478628D01*
X63238095Y-100050057D02*
X63285714Y-100002438D01*
X63285714Y-100002438D02*
X63380952Y-99954819D01*
X63380952Y-99954819D02*
X63619047Y-99954819D01*
X63619047Y-99954819D02*
X63714285Y-100002438D01*
X63714285Y-100002438D02*
X63761904Y-100050057D01*
X63761904Y-100050057D02*
X63809523Y-100145295D01*
X63809523Y-100145295D02*
X63809523Y-100240533D01*
X63809523Y-100240533D02*
X63761904Y-100383390D01*
X63761904Y-100383390D02*
X63190476Y-100954819D01*
X63190476Y-100954819D02*
X63809523Y-100954819D01*
X64190476Y-100050057D02*
X64238095Y-100002438D01*
X64238095Y-100002438D02*
X64333333Y-99954819D01*
X64333333Y-99954819D02*
X64571428Y-99954819D01*
X64571428Y-99954819D02*
X64666666Y-100002438D01*
X64666666Y-100002438D02*
X64714285Y-100050057D01*
X64714285Y-100050057D02*
X64761904Y-100145295D01*
X64761904Y-100145295D02*
X64761904Y-100240533D01*
X64761904Y-100240533D02*
X64714285Y-100383390D01*
X64714285Y-100383390D02*
X64142857Y-100954819D01*
X64142857Y-100954819D02*
X64761904Y-100954819D01*
X94857142Y-136859580D02*
X94809523Y-136907200D01*
X94809523Y-136907200D02*
X94666666Y-136954819D01*
X94666666Y-136954819D02*
X94571428Y-136954819D01*
X94571428Y-136954819D02*
X94428571Y-136907200D01*
X94428571Y-136907200D02*
X94333333Y-136811961D01*
X94333333Y-136811961D02*
X94285714Y-136716723D01*
X94285714Y-136716723D02*
X94238095Y-136526247D01*
X94238095Y-136526247D02*
X94238095Y-136383390D01*
X94238095Y-136383390D02*
X94285714Y-136192914D01*
X94285714Y-136192914D02*
X94333333Y-136097676D01*
X94333333Y-136097676D02*
X94428571Y-136002438D01*
X94428571Y-136002438D02*
X94571428Y-135954819D01*
X94571428Y-135954819D02*
X94666666Y-135954819D01*
X94666666Y-135954819D02*
X94809523Y-136002438D01*
X94809523Y-136002438D02*
X94857142Y-136050057D01*
X95809523Y-136954819D02*
X95238095Y-136954819D01*
X95523809Y-136954819D02*
X95523809Y-135954819D01*
X95523809Y-135954819D02*
X95428571Y-136097676D01*
X95428571Y-136097676D02*
X95333333Y-136192914D01*
X95333333Y-136192914D02*
X95238095Y-136240533D01*
X96380952Y-136383390D02*
X96285714Y-136335771D01*
X96285714Y-136335771D02*
X96238095Y-136288152D01*
X96238095Y-136288152D02*
X96190476Y-136192914D01*
X96190476Y-136192914D02*
X96190476Y-136145295D01*
X96190476Y-136145295D02*
X96238095Y-136050057D01*
X96238095Y-136050057D02*
X96285714Y-136002438D01*
X96285714Y-136002438D02*
X96380952Y-135954819D01*
X96380952Y-135954819D02*
X96571428Y-135954819D01*
X96571428Y-135954819D02*
X96666666Y-136002438D01*
X96666666Y-136002438D02*
X96714285Y-136050057D01*
X96714285Y-136050057D02*
X96761904Y-136145295D01*
X96761904Y-136145295D02*
X96761904Y-136192914D01*
X96761904Y-136192914D02*
X96714285Y-136288152D01*
X96714285Y-136288152D02*
X96666666Y-136335771D01*
X96666666Y-136335771D02*
X96571428Y-136383390D01*
X96571428Y-136383390D02*
X96380952Y-136383390D01*
X96380952Y-136383390D02*
X96285714Y-136431009D01*
X96285714Y-136431009D02*
X96238095Y-136478628D01*
X96238095Y-136478628D02*
X96190476Y-136573866D01*
X96190476Y-136573866D02*
X96190476Y-136764342D01*
X96190476Y-136764342D02*
X96238095Y-136859580D01*
X96238095Y-136859580D02*
X96285714Y-136907200D01*
X96285714Y-136907200D02*
X96380952Y-136954819D01*
X96380952Y-136954819D02*
X96571428Y-136954819D01*
X96571428Y-136954819D02*
X96666666Y-136907200D01*
X96666666Y-136907200D02*
X96714285Y-136859580D01*
X96714285Y-136859580D02*
X96761904Y-136764342D01*
X96761904Y-136764342D02*
X96761904Y-136573866D01*
X96761904Y-136573866D02*
X96714285Y-136478628D01*
X96714285Y-136478628D02*
X96666666Y-136431009D01*
X96666666Y-136431009D02*
X96571428Y-136383390D01*
X69857142Y-160954819D02*
X69523809Y-160478628D01*
X69285714Y-160954819D02*
X69285714Y-159954819D01*
X69285714Y-159954819D02*
X69666666Y-159954819D01*
X69666666Y-159954819D02*
X69761904Y-160002438D01*
X69761904Y-160002438D02*
X69809523Y-160050057D01*
X69809523Y-160050057D02*
X69857142Y-160145295D01*
X69857142Y-160145295D02*
X69857142Y-160288152D01*
X69857142Y-160288152D02*
X69809523Y-160383390D01*
X69809523Y-160383390D02*
X69761904Y-160431009D01*
X69761904Y-160431009D02*
X69666666Y-160478628D01*
X69666666Y-160478628D02*
X69285714Y-160478628D01*
X70809523Y-160954819D02*
X70238095Y-160954819D01*
X70523809Y-160954819D02*
X70523809Y-159954819D01*
X70523809Y-159954819D02*
X70428571Y-160097676D01*
X70428571Y-160097676D02*
X70333333Y-160192914D01*
X70333333Y-160192914D02*
X70238095Y-160240533D01*
X71142857Y-159954819D02*
X71761904Y-159954819D01*
X71761904Y-159954819D02*
X71428571Y-160335771D01*
X71428571Y-160335771D02*
X71571428Y-160335771D01*
X71571428Y-160335771D02*
X71666666Y-160383390D01*
X71666666Y-160383390D02*
X71714285Y-160431009D01*
X71714285Y-160431009D02*
X71761904Y-160526247D01*
X71761904Y-160526247D02*
X71761904Y-160764342D01*
X71761904Y-160764342D02*
X71714285Y-160859580D01*
X71714285Y-160859580D02*
X71666666Y-160907200D01*
X71666666Y-160907200D02*
X71571428Y-160954819D01*
X71571428Y-160954819D02*
X71285714Y-160954819D01*
X71285714Y-160954819D02*
X71190476Y-160907200D01*
X71190476Y-160907200D02*
X71142857Y-160859580D01*
X60237142Y-75219580D02*
X60189523Y-75267200D01*
X60189523Y-75267200D02*
X60046666Y-75314819D01*
X60046666Y-75314819D02*
X59951428Y-75314819D01*
X59951428Y-75314819D02*
X59808571Y-75267200D01*
X59808571Y-75267200D02*
X59713333Y-75171961D01*
X59713333Y-75171961D02*
X59665714Y-75076723D01*
X59665714Y-75076723D02*
X59618095Y-74886247D01*
X59618095Y-74886247D02*
X59618095Y-74743390D01*
X59618095Y-74743390D02*
X59665714Y-74552914D01*
X59665714Y-74552914D02*
X59713333Y-74457676D01*
X59713333Y-74457676D02*
X59808571Y-74362438D01*
X59808571Y-74362438D02*
X59951428Y-74314819D01*
X59951428Y-74314819D02*
X60046666Y-74314819D01*
X60046666Y-74314819D02*
X60189523Y-74362438D01*
X60189523Y-74362438D02*
X60237142Y-74410057D01*
X61189523Y-75314819D02*
X60618095Y-75314819D01*
X60903809Y-75314819D02*
X60903809Y-74314819D01*
X60903809Y-74314819D02*
X60808571Y-74457676D01*
X60808571Y-74457676D02*
X60713333Y-74552914D01*
X60713333Y-74552914D02*
X60618095Y-74600533D01*
X62094285Y-74314819D02*
X61618095Y-74314819D01*
X61618095Y-74314819D02*
X61570476Y-74791009D01*
X61570476Y-74791009D02*
X61618095Y-74743390D01*
X61618095Y-74743390D02*
X61713333Y-74695771D01*
X61713333Y-74695771D02*
X61951428Y-74695771D01*
X61951428Y-74695771D02*
X62046666Y-74743390D01*
X62046666Y-74743390D02*
X62094285Y-74791009D01*
X62094285Y-74791009D02*
X62141904Y-74886247D01*
X62141904Y-74886247D02*
X62141904Y-75124342D01*
X62141904Y-75124342D02*
X62094285Y-75219580D01*
X62094285Y-75219580D02*
X62046666Y-75267200D01*
X62046666Y-75267200D02*
X61951428Y-75314819D01*
X61951428Y-75314819D02*
X61713333Y-75314819D01*
X61713333Y-75314819D02*
X61618095Y-75267200D01*
X61618095Y-75267200D02*
X61570476Y-75219580D01*
X68357142Y-83954819D02*
X68023809Y-83478628D01*
X67785714Y-83954819D02*
X67785714Y-82954819D01*
X67785714Y-82954819D02*
X68166666Y-82954819D01*
X68166666Y-82954819D02*
X68261904Y-83002438D01*
X68261904Y-83002438D02*
X68309523Y-83050057D01*
X68309523Y-83050057D02*
X68357142Y-83145295D01*
X68357142Y-83145295D02*
X68357142Y-83288152D01*
X68357142Y-83288152D02*
X68309523Y-83383390D01*
X68309523Y-83383390D02*
X68261904Y-83431009D01*
X68261904Y-83431009D02*
X68166666Y-83478628D01*
X68166666Y-83478628D02*
X67785714Y-83478628D01*
X69309523Y-83954819D02*
X68738095Y-83954819D01*
X69023809Y-83954819D02*
X69023809Y-82954819D01*
X69023809Y-82954819D02*
X68928571Y-83097676D01*
X68928571Y-83097676D02*
X68833333Y-83192914D01*
X68833333Y-83192914D02*
X68738095Y-83240533D01*
X70214285Y-82954819D02*
X69738095Y-82954819D01*
X69738095Y-82954819D02*
X69690476Y-83431009D01*
X69690476Y-83431009D02*
X69738095Y-83383390D01*
X69738095Y-83383390D02*
X69833333Y-83335771D01*
X69833333Y-83335771D02*
X70071428Y-83335771D01*
X70071428Y-83335771D02*
X70166666Y-83383390D01*
X70166666Y-83383390D02*
X70214285Y-83431009D01*
X70214285Y-83431009D02*
X70261904Y-83526247D01*
X70261904Y-83526247D02*
X70261904Y-83764342D01*
X70261904Y-83764342D02*
X70214285Y-83859580D01*
X70214285Y-83859580D02*
X70166666Y-83907200D01*
X70166666Y-83907200D02*
X70071428Y-83954819D01*
X70071428Y-83954819D02*
X69833333Y-83954819D01*
X69833333Y-83954819D02*
X69738095Y-83907200D01*
X69738095Y-83907200D02*
X69690476Y-83859580D01*
X66857142Y-87609580D02*
X66809523Y-87657200D01*
X66809523Y-87657200D02*
X66666666Y-87704819D01*
X66666666Y-87704819D02*
X66571428Y-87704819D01*
X66571428Y-87704819D02*
X66428571Y-87657200D01*
X66428571Y-87657200D02*
X66333333Y-87561961D01*
X66333333Y-87561961D02*
X66285714Y-87466723D01*
X66285714Y-87466723D02*
X66238095Y-87276247D01*
X66238095Y-87276247D02*
X66238095Y-87133390D01*
X66238095Y-87133390D02*
X66285714Y-86942914D01*
X66285714Y-86942914D02*
X66333333Y-86847676D01*
X66333333Y-86847676D02*
X66428571Y-86752438D01*
X66428571Y-86752438D02*
X66571428Y-86704819D01*
X66571428Y-86704819D02*
X66666666Y-86704819D01*
X66666666Y-86704819D02*
X66809523Y-86752438D01*
X66809523Y-86752438D02*
X66857142Y-86800057D01*
X67809523Y-87704819D02*
X67238095Y-87704819D01*
X67523809Y-87704819D02*
X67523809Y-86704819D01*
X67523809Y-86704819D02*
X67428571Y-86847676D01*
X67428571Y-86847676D02*
X67333333Y-86942914D01*
X67333333Y-86942914D02*
X67238095Y-86990533D01*
X68190476Y-86800057D02*
X68238095Y-86752438D01*
X68238095Y-86752438D02*
X68333333Y-86704819D01*
X68333333Y-86704819D02*
X68571428Y-86704819D01*
X68571428Y-86704819D02*
X68666666Y-86752438D01*
X68666666Y-86752438D02*
X68714285Y-86800057D01*
X68714285Y-86800057D02*
X68761904Y-86895295D01*
X68761904Y-86895295D02*
X68761904Y-86990533D01*
X68761904Y-86990533D02*
X68714285Y-87133390D01*
X68714285Y-87133390D02*
X68142857Y-87704819D01*
X68142857Y-87704819D02*
X68761904Y-87704819D01*
X59857142Y-158859580D02*
X59809523Y-158907200D01*
X59809523Y-158907200D02*
X59666666Y-158954819D01*
X59666666Y-158954819D02*
X59571428Y-158954819D01*
X59571428Y-158954819D02*
X59428571Y-158907200D01*
X59428571Y-158907200D02*
X59333333Y-158811961D01*
X59333333Y-158811961D02*
X59285714Y-158716723D01*
X59285714Y-158716723D02*
X59238095Y-158526247D01*
X59238095Y-158526247D02*
X59238095Y-158383390D01*
X59238095Y-158383390D02*
X59285714Y-158192914D01*
X59285714Y-158192914D02*
X59333333Y-158097676D01*
X59333333Y-158097676D02*
X59428571Y-158002438D01*
X59428571Y-158002438D02*
X59571428Y-157954819D01*
X59571428Y-157954819D02*
X59666666Y-157954819D01*
X59666666Y-157954819D02*
X59809523Y-158002438D01*
X59809523Y-158002438D02*
X59857142Y-158050057D01*
X60809523Y-158954819D02*
X60238095Y-158954819D01*
X60523809Y-158954819D02*
X60523809Y-157954819D01*
X60523809Y-157954819D02*
X60428571Y-158097676D01*
X60428571Y-158097676D02*
X60333333Y-158192914D01*
X60333333Y-158192914D02*
X60238095Y-158240533D01*
X61142857Y-157954819D02*
X61809523Y-157954819D01*
X61809523Y-157954819D02*
X61380952Y-158954819D01*
X70370833Y-82704819D02*
X70037500Y-82228628D01*
X69799405Y-82704819D02*
X69799405Y-81704819D01*
X69799405Y-81704819D02*
X70180357Y-81704819D01*
X70180357Y-81704819D02*
X70275595Y-81752438D01*
X70275595Y-81752438D02*
X70323214Y-81800057D01*
X70323214Y-81800057D02*
X70370833Y-81895295D01*
X70370833Y-81895295D02*
X70370833Y-82038152D01*
X70370833Y-82038152D02*
X70323214Y-82133390D01*
X70323214Y-82133390D02*
X70275595Y-82181009D01*
X70275595Y-82181009D02*
X70180357Y-82228628D01*
X70180357Y-82228628D02*
X69799405Y-82228628D01*
X71323214Y-82704819D02*
X70751786Y-82704819D01*
X71037500Y-82704819D02*
X71037500Y-81704819D01*
X71037500Y-81704819D02*
X70942262Y-81847676D01*
X70942262Y-81847676D02*
X70847024Y-81942914D01*
X70847024Y-81942914D02*
X70751786Y-81990533D01*
X68069642Y-112904819D02*
X67736309Y-112428628D01*
X67498214Y-112904819D02*
X67498214Y-111904819D01*
X67498214Y-111904819D02*
X67879166Y-111904819D01*
X67879166Y-111904819D02*
X67974404Y-111952438D01*
X67974404Y-111952438D02*
X68022023Y-112000057D01*
X68022023Y-112000057D02*
X68069642Y-112095295D01*
X68069642Y-112095295D02*
X68069642Y-112238152D01*
X68069642Y-112238152D02*
X68022023Y-112333390D01*
X68022023Y-112333390D02*
X67974404Y-112381009D01*
X67974404Y-112381009D02*
X67879166Y-112428628D01*
X67879166Y-112428628D02*
X67498214Y-112428628D01*
X69022023Y-112904819D02*
X68450595Y-112904819D01*
X68736309Y-112904819D02*
X68736309Y-111904819D01*
X68736309Y-111904819D02*
X68641071Y-112047676D01*
X68641071Y-112047676D02*
X68545833Y-112142914D01*
X68545833Y-112142914D02*
X68450595Y-112190533D01*
X69355357Y-111904819D02*
X70022023Y-111904819D01*
X70022023Y-111904819D02*
X69593452Y-112904819D01*
X55311905Y-79904819D02*
X55311905Y-78904819D01*
X55311905Y-78904819D02*
X55550000Y-78904819D01*
X55550000Y-78904819D02*
X55692857Y-78952438D01*
X55692857Y-78952438D02*
X55788095Y-79047676D01*
X55788095Y-79047676D02*
X55835714Y-79142914D01*
X55835714Y-79142914D02*
X55883333Y-79333390D01*
X55883333Y-79333390D02*
X55883333Y-79476247D01*
X55883333Y-79476247D02*
X55835714Y-79666723D01*
X55835714Y-79666723D02*
X55788095Y-79761961D01*
X55788095Y-79761961D02*
X55692857Y-79857200D01*
X55692857Y-79857200D02*
X55550000Y-79904819D01*
X55550000Y-79904819D02*
X55311905Y-79904819D01*
X56454762Y-79333390D02*
X56359524Y-79285771D01*
X56359524Y-79285771D02*
X56311905Y-79238152D01*
X56311905Y-79238152D02*
X56264286Y-79142914D01*
X56264286Y-79142914D02*
X56264286Y-79095295D01*
X56264286Y-79095295D02*
X56311905Y-79000057D01*
X56311905Y-79000057D02*
X56359524Y-78952438D01*
X56359524Y-78952438D02*
X56454762Y-78904819D01*
X56454762Y-78904819D02*
X56645238Y-78904819D01*
X56645238Y-78904819D02*
X56740476Y-78952438D01*
X56740476Y-78952438D02*
X56788095Y-79000057D01*
X56788095Y-79000057D02*
X56835714Y-79095295D01*
X56835714Y-79095295D02*
X56835714Y-79142914D01*
X56835714Y-79142914D02*
X56788095Y-79238152D01*
X56788095Y-79238152D02*
X56740476Y-79285771D01*
X56740476Y-79285771D02*
X56645238Y-79333390D01*
X56645238Y-79333390D02*
X56454762Y-79333390D01*
X56454762Y-79333390D02*
X56359524Y-79381009D01*
X56359524Y-79381009D02*
X56311905Y-79428628D01*
X56311905Y-79428628D02*
X56264286Y-79523866D01*
X56264286Y-79523866D02*
X56264286Y-79714342D01*
X56264286Y-79714342D02*
X56311905Y-79809580D01*
X56311905Y-79809580D02*
X56359524Y-79857200D01*
X56359524Y-79857200D02*
X56454762Y-79904819D01*
X56454762Y-79904819D02*
X56645238Y-79904819D01*
X56645238Y-79904819D02*
X56740476Y-79857200D01*
X56740476Y-79857200D02*
X56788095Y-79809580D01*
X56788095Y-79809580D02*
X56835714Y-79714342D01*
X56835714Y-79714342D02*
X56835714Y-79523866D01*
X56835714Y-79523866D02*
X56788095Y-79428628D01*
X56788095Y-79428628D02*
X56740476Y-79381009D01*
X56740476Y-79381009D02*
X56645238Y-79333390D01*
X72704819Y-43383333D02*
X73419104Y-43383333D01*
X73419104Y-43383333D02*
X73561961Y-43430952D01*
X73561961Y-43430952D02*
X73657200Y-43526190D01*
X73657200Y-43526190D02*
X73704819Y-43669047D01*
X73704819Y-43669047D02*
X73704819Y-43764285D01*
X73704819Y-42383333D02*
X73704819Y-42954761D01*
X73704819Y-42669047D02*
X72704819Y-42669047D01*
X72704819Y-42669047D02*
X72847676Y-42764285D01*
X72847676Y-42764285D02*
X72942914Y-42859523D01*
X72942914Y-42859523D02*
X72990533Y-42954761D01*
X78857142Y-123454819D02*
X78523809Y-122978628D01*
X78285714Y-123454819D02*
X78285714Y-122454819D01*
X78285714Y-122454819D02*
X78666666Y-122454819D01*
X78666666Y-122454819D02*
X78761904Y-122502438D01*
X78761904Y-122502438D02*
X78809523Y-122550057D01*
X78809523Y-122550057D02*
X78857142Y-122645295D01*
X78857142Y-122645295D02*
X78857142Y-122788152D01*
X78857142Y-122788152D02*
X78809523Y-122883390D01*
X78809523Y-122883390D02*
X78761904Y-122931009D01*
X78761904Y-122931009D02*
X78666666Y-122978628D01*
X78666666Y-122978628D02*
X78285714Y-122978628D01*
X79809523Y-123454819D02*
X79238095Y-123454819D01*
X79523809Y-123454819D02*
X79523809Y-122454819D01*
X79523809Y-122454819D02*
X79428571Y-122597676D01*
X79428571Y-122597676D02*
X79333333Y-122692914D01*
X79333333Y-122692914D02*
X79238095Y-122740533D01*
X80428571Y-122454819D02*
X80523809Y-122454819D01*
X80523809Y-122454819D02*
X80619047Y-122502438D01*
X80619047Y-122502438D02*
X80666666Y-122550057D01*
X80666666Y-122550057D02*
X80714285Y-122645295D01*
X80714285Y-122645295D02*
X80761904Y-122835771D01*
X80761904Y-122835771D02*
X80761904Y-123073866D01*
X80761904Y-123073866D02*
X80714285Y-123264342D01*
X80714285Y-123264342D02*
X80666666Y-123359580D01*
X80666666Y-123359580D02*
X80619047Y-123407200D01*
X80619047Y-123407200D02*
X80523809Y-123454819D01*
X80523809Y-123454819D02*
X80428571Y-123454819D01*
X80428571Y-123454819D02*
X80333333Y-123407200D01*
X80333333Y-123407200D02*
X80285714Y-123359580D01*
X80285714Y-123359580D02*
X80238095Y-123264342D01*
X80238095Y-123264342D02*
X80190476Y-123073866D01*
X80190476Y-123073866D02*
X80190476Y-122835771D01*
X80190476Y-122835771D02*
X80238095Y-122645295D01*
X80238095Y-122645295D02*
X80285714Y-122550057D01*
X80285714Y-122550057D02*
X80333333Y-122502438D01*
X80333333Y-122502438D02*
X80428571Y-122454819D01*
X94857142Y-138859580D02*
X94809523Y-138907200D01*
X94809523Y-138907200D02*
X94666666Y-138954819D01*
X94666666Y-138954819D02*
X94571428Y-138954819D01*
X94571428Y-138954819D02*
X94428571Y-138907200D01*
X94428571Y-138907200D02*
X94333333Y-138811961D01*
X94333333Y-138811961D02*
X94285714Y-138716723D01*
X94285714Y-138716723D02*
X94238095Y-138526247D01*
X94238095Y-138526247D02*
X94238095Y-138383390D01*
X94238095Y-138383390D02*
X94285714Y-138192914D01*
X94285714Y-138192914D02*
X94333333Y-138097676D01*
X94333333Y-138097676D02*
X94428571Y-138002438D01*
X94428571Y-138002438D02*
X94571428Y-137954819D01*
X94571428Y-137954819D02*
X94666666Y-137954819D01*
X94666666Y-137954819D02*
X94809523Y-138002438D01*
X94809523Y-138002438D02*
X94857142Y-138050057D01*
X95809523Y-138954819D02*
X95238095Y-138954819D01*
X95523809Y-138954819D02*
X95523809Y-137954819D01*
X95523809Y-137954819D02*
X95428571Y-138097676D01*
X95428571Y-138097676D02*
X95333333Y-138192914D01*
X95333333Y-138192914D02*
X95238095Y-138240533D01*
X96285714Y-138954819D02*
X96476190Y-138954819D01*
X96476190Y-138954819D02*
X96571428Y-138907200D01*
X96571428Y-138907200D02*
X96619047Y-138859580D01*
X96619047Y-138859580D02*
X96714285Y-138716723D01*
X96714285Y-138716723D02*
X96761904Y-138526247D01*
X96761904Y-138526247D02*
X96761904Y-138145295D01*
X96761904Y-138145295D02*
X96714285Y-138050057D01*
X96714285Y-138050057D02*
X96666666Y-138002438D01*
X96666666Y-138002438D02*
X96571428Y-137954819D01*
X96571428Y-137954819D02*
X96380952Y-137954819D01*
X96380952Y-137954819D02*
X96285714Y-138002438D01*
X96285714Y-138002438D02*
X96238095Y-138050057D01*
X96238095Y-138050057D02*
X96190476Y-138145295D01*
X96190476Y-138145295D02*
X96190476Y-138383390D01*
X96190476Y-138383390D02*
X96238095Y-138478628D01*
X96238095Y-138478628D02*
X96285714Y-138526247D01*
X96285714Y-138526247D02*
X96380952Y-138573866D01*
X96380952Y-138573866D02*
X96571428Y-138573866D01*
X96571428Y-138573866D02*
X96666666Y-138526247D01*
X96666666Y-138526247D02*
X96714285Y-138478628D01*
X96714285Y-138478628D02*
X96761904Y-138383390D01*
X64333333Y-119954819D02*
X64000000Y-119478628D01*
X63761905Y-119954819D02*
X63761905Y-118954819D01*
X63761905Y-118954819D02*
X64142857Y-118954819D01*
X64142857Y-118954819D02*
X64238095Y-119002438D01*
X64238095Y-119002438D02*
X64285714Y-119050057D01*
X64285714Y-119050057D02*
X64333333Y-119145295D01*
X64333333Y-119145295D02*
X64333333Y-119288152D01*
X64333333Y-119288152D02*
X64285714Y-119383390D01*
X64285714Y-119383390D02*
X64238095Y-119431009D01*
X64238095Y-119431009D02*
X64142857Y-119478628D01*
X64142857Y-119478628D02*
X63761905Y-119478628D01*
X64714286Y-119050057D02*
X64761905Y-119002438D01*
X64761905Y-119002438D02*
X64857143Y-118954819D01*
X64857143Y-118954819D02*
X65095238Y-118954819D01*
X65095238Y-118954819D02*
X65190476Y-119002438D01*
X65190476Y-119002438D02*
X65238095Y-119050057D01*
X65238095Y-119050057D02*
X65285714Y-119145295D01*
X65285714Y-119145295D02*
X65285714Y-119240533D01*
X65285714Y-119240533D02*
X65238095Y-119383390D01*
X65238095Y-119383390D02*
X64666667Y-119954819D01*
X64666667Y-119954819D02*
X65285714Y-119954819D01*
X63292261Y-113350057D02*
X63197023Y-113302438D01*
X63197023Y-113302438D02*
X63101785Y-113207200D01*
X63101785Y-113207200D02*
X62958928Y-113064342D01*
X62958928Y-113064342D02*
X62863690Y-113016723D01*
X62863690Y-113016723D02*
X62768452Y-113016723D01*
X62816071Y-113254819D02*
X62720833Y-113207200D01*
X62720833Y-113207200D02*
X62625595Y-113111961D01*
X62625595Y-113111961D02*
X62577976Y-112921485D01*
X62577976Y-112921485D02*
X62577976Y-112588152D01*
X62577976Y-112588152D02*
X62625595Y-112397676D01*
X62625595Y-112397676D02*
X62720833Y-112302438D01*
X62720833Y-112302438D02*
X62816071Y-112254819D01*
X62816071Y-112254819D02*
X63006547Y-112254819D01*
X63006547Y-112254819D02*
X63101785Y-112302438D01*
X63101785Y-112302438D02*
X63197023Y-112397676D01*
X63197023Y-112397676D02*
X63244642Y-112588152D01*
X63244642Y-112588152D02*
X63244642Y-112921485D01*
X63244642Y-112921485D02*
X63197023Y-113111961D01*
X63197023Y-113111961D02*
X63101785Y-113207200D01*
X63101785Y-113207200D02*
X63006547Y-113254819D01*
X63006547Y-113254819D02*
X62816071Y-113254819D01*
X63720833Y-113254819D02*
X63911309Y-113254819D01*
X63911309Y-113254819D02*
X64006547Y-113207200D01*
X64006547Y-113207200D02*
X64054166Y-113159580D01*
X64054166Y-113159580D02*
X64149404Y-113016723D01*
X64149404Y-113016723D02*
X64197023Y-112826247D01*
X64197023Y-112826247D02*
X64197023Y-112445295D01*
X64197023Y-112445295D02*
X64149404Y-112350057D01*
X64149404Y-112350057D02*
X64101785Y-112302438D01*
X64101785Y-112302438D02*
X64006547Y-112254819D01*
X64006547Y-112254819D02*
X63816071Y-112254819D01*
X63816071Y-112254819D02*
X63720833Y-112302438D01*
X63720833Y-112302438D02*
X63673214Y-112350057D01*
X63673214Y-112350057D02*
X63625595Y-112445295D01*
X63625595Y-112445295D02*
X63625595Y-112683390D01*
X63625595Y-112683390D02*
X63673214Y-112778628D01*
X63673214Y-112778628D02*
X63720833Y-112826247D01*
X63720833Y-112826247D02*
X63816071Y-112873866D01*
X63816071Y-112873866D02*
X64006547Y-112873866D01*
X64006547Y-112873866D02*
X64101785Y-112826247D01*
X64101785Y-112826247D02*
X64149404Y-112778628D01*
X64149404Y-112778628D02*
X64197023Y-112683390D01*
X63357142Y-95454819D02*
X63023809Y-94978628D01*
X62785714Y-95454819D02*
X62785714Y-94454819D01*
X62785714Y-94454819D02*
X63166666Y-94454819D01*
X63166666Y-94454819D02*
X63261904Y-94502438D01*
X63261904Y-94502438D02*
X63309523Y-94550057D01*
X63309523Y-94550057D02*
X63357142Y-94645295D01*
X63357142Y-94645295D02*
X63357142Y-94788152D01*
X63357142Y-94788152D02*
X63309523Y-94883390D01*
X63309523Y-94883390D02*
X63261904Y-94931009D01*
X63261904Y-94931009D02*
X63166666Y-94978628D01*
X63166666Y-94978628D02*
X62785714Y-94978628D01*
X63738095Y-94550057D02*
X63785714Y-94502438D01*
X63785714Y-94502438D02*
X63880952Y-94454819D01*
X63880952Y-94454819D02*
X64119047Y-94454819D01*
X64119047Y-94454819D02*
X64214285Y-94502438D01*
X64214285Y-94502438D02*
X64261904Y-94550057D01*
X64261904Y-94550057D02*
X64309523Y-94645295D01*
X64309523Y-94645295D02*
X64309523Y-94740533D01*
X64309523Y-94740533D02*
X64261904Y-94883390D01*
X64261904Y-94883390D02*
X63690476Y-95454819D01*
X63690476Y-95454819D02*
X64309523Y-95454819D01*
X64642857Y-94454819D02*
X65261904Y-94454819D01*
X65261904Y-94454819D02*
X64928571Y-94835771D01*
X64928571Y-94835771D02*
X65071428Y-94835771D01*
X65071428Y-94835771D02*
X65166666Y-94883390D01*
X65166666Y-94883390D02*
X65214285Y-94931009D01*
X65214285Y-94931009D02*
X65261904Y-95026247D01*
X65261904Y-95026247D02*
X65261904Y-95264342D01*
X65261904Y-95264342D02*
X65214285Y-95359580D01*
X65214285Y-95359580D02*
X65166666Y-95407200D01*
X65166666Y-95407200D02*
X65071428Y-95454819D01*
X65071428Y-95454819D02*
X64785714Y-95454819D01*
X64785714Y-95454819D02*
X64690476Y-95407200D01*
X64690476Y-95407200D02*
X64642857Y-95359580D01*
D12*
X101678572Y-74249757D02*
X101535715Y-74178328D01*
X101535715Y-74178328D02*
X101321429Y-74178328D01*
X101321429Y-74178328D02*
X101107143Y-74249757D01*
X101107143Y-74249757D02*
X100964286Y-74392614D01*
X100964286Y-74392614D02*
X100892857Y-74535471D01*
X100892857Y-74535471D02*
X100821429Y-74821185D01*
X100821429Y-74821185D02*
X100821429Y-75035471D01*
X100821429Y-75035471D02*
X100892857Y-75321185D01*
X100892857Y-75321185D02*
X100964286Y-75464042D01*
X100964286Y-75464042D02*
X101107143Y-75606900D01*
X101107143Y-75606900D02*
X101321429Y-75678328D01*
X101321429Y-75678328D02*
X101464286Y-75678328D01*
X101464286Y-75678328D02*
X101678572Y-75606900D01*
X101678572Y-75606900D02*
X101750000Y-75535471D01*
X101750000Y-75535471D02*
X101750000Y-75035471D01*
X101750000Y-75035471D02*
X101464286Y-75035471D01*
X102607143Y-74178328D02*
X102607143Y-74535471D01*
X102250000Y-74392614D02*
X102607143Y-74535471D01*
X102607143Y-74535471D02*
X102964286Y-74392614D01*
X102392857Y-74821185D02*
X102607143Y-74535471D01*
X102607143Y-74535471D02*
X102821429Y-74821185D01*
X103750000Y-74178328D02*
X103750000Y-74535471D01*
X103392857Y-74392614D02*
X103750000Y-74535471D01*
X103750000Y-74535471D02*
X104107143Y-74392614D01*
X103535714Y-74821185D02*
X103750000Y-74535471D01*
X103750000Y-74535471D02*
X103964286Y-74821185D01*
X104892857Y-74178328D02*
X104892857Y-74535471D01*
X104535714Y-74392614D02*
X104892857Y-74535471D01*
X104892857Y-74535471D02*
X105250000Y-74392614D01*
X104678571Y-74821185D02*
X104892857Y-74535471D01*
X104892857Y-74535471D02*
X105107143Y-74821185D01*
D11*
X73907142Y-102989580D02*
X73859523Y-103037200D01*
X73859523Y-103037200D02*
X73716666Y-103084819D01*
X73716666Y-103084819D02*
X73621428Y-103084819D01*
X73621428Y-103084819D02*
X73478571Y-103037200D01*
X73478571Y-103037200D02*
X73383333Y-102941961D01*
X73383333Y-102941961D02*
X73335714Y-102846723D01*
X73335714Y-102846723D02*
X73288095Y-102656247D01*
X73288095Y-102656247D02*
X73288095Y-102513390D01*
X73288095Y-102513390D02*
X73335714Y-102322914D01*
X73335714Y-102322914D02*
X73383333Y-102227676D01*
X73383333Y-102227676D02*
X73478571Y-102132438D01*
X73478571Y-102132438D02*
X73621428Y-102084819D01*
X73621428Y-102084819D02*
X73716666Y-102084819D01*
X73716666Y-102084819D02*
X73859523Y-102132438D01*
X73859523Y-102132438D02*
X73907142Y-102180057D01*
X74859523Y-103084819D02*
X74288095Y-103084819D01*
X74573809Y-103084819D02*
X74573809Y-102084819D01*
X74573809Y-102084819D02*
X74478571Y-102227676D01*
X74478571Y-102227676D02*
X74383333Y-102322914D01*
X74383333Y-102322914D02*
X74288095Y-102370533D01*
X75811904Y-103084819D02*
X75240476Y-103084819D01*
X75526190Y-103084819D02*
X75526190Y-102084819D01*
X75526190Y-102084819D02*
X75430952Y-102227676D01*
X75430952Y-102227676D02*
X75335714Y-102322914D01*
X75335714Y-102322914D02*
X75240476Y-102370533D01*
X67188095Y-106384819D02*
X67188095Y-107194342D01*
X67188095Y-107194342D02*
X67235714Y-107289580D01*
X67235714Y-107289580D02*
X67283333Y-107337200D01*
X67283333Y-107337200D02*
X67378571Y-107384819D01*
X67378571Y-107384819D02*
X67569047Y-107384819D01*
X67569047Y-107384819D02*
X67664285Y-107337200D01*
X67664285Y-107337200D02*
X67711904Y-107289580D01*
X67711904Y-107289580D02*
X67759523Y-107194342D01*
X67759523Y-107194342D02*
X67759523Y-106384819D01*
X68283333Y-107384819D02*
X68473809Y-107384819D01*
X68473809Y-107384819D02*
X68569047Y-107337200D01*
X68569047Y-107337200D02*
X68616666Y-107289580D01*
X68616666Y-107289580D02*
X68711904Y-107146723D01*
X68711904Y-107146723D02*
X68759523Y-106956247D01*
X68759523Y-106956247D02*
X68759523Y-106575295D01*
X68759523Y-106575295D02*
X68711904Y-106480057D01*
X68711904Y-106480057D02*
X68664285Y-106432438D01*
X68664285Y-106432438D02*
X68569047Y-106384819D01*
X68569047Y-106384819D02*
X68378571Y-106384819D01*
X68378571Y-106384819D02*
X68283333Y-106432438D01*
X68283333Y-106432438D02*
X68235714Y-106480057D01*
X68235714Y-106480057D02*
X68188095Y-106575295D01*
X68188095Y-106575295D02*
X68188095Y-106813390D01*
X68188095Y-106813390D02*
X68235714Y-106908628D01*
X68235714Y-106908628D02*
X68283333Y-106956247D01*
X68283333Y-106956247D02*
X68378571Y-107003866D01*
X68378571Y-107003866D02*
X68569047Y-107003866D01*
X68569047Y-107003866D02*
X68664285Y-106956247D01*
X68664285Y-106956247D02*
X68711904Y-106908628D01*
X68711904Y-106908628D02*
X68759523Y-106813390D01*
X76341904Y-162954819D02*
X76008571Y-162478628D01*
X75770476Y-162954819D02*
X75770476Y-161954819D01*
X75770476Y-161954819D02*
X76151428Y-161954819D01*
X76151428Y-161954819D02*
X76246666Y-162002438D01*
X76246666Y-162002438D02*
X76294285Y-162050057D01*
X76294285Y-162050057D02*
X76341904Y-162145295D01*
X76341904Y-162145295D02*
X76341904Y-162288152D01*
X76341904Y-162288152D02*
X76294285Y-162383390D01*
X76294285Y-162383390D02*
X76246666Y-162431009D01*
X76246666Y-162431009D02*
X76151428Y-162478628D01*
X76151428Y-162478628D02*
X75770476Y-162478628D01*
X77151428Y-162907200D02*
X77056190Y-162954819D01*
X77056190Y-162954819D02*
X76865714Y-162954819D01*
X76865714Y-162954819D02*
X76770476Y-162907200D01*
X76770476Y-162907200D02*
X76722857Y-162811961D01*
X76722857Y-162811961D02*
X76722857Y-162431009D01*
X76722857Y-162431009D02*
X76770476Y-162335771D01*
X76770476Y-162335771D02*
X76865714Y-162288152D01*
X76865714Y-162288152D02*
X77056190Y-162288152D01*
X77056190Y-162288152D02*
X77151428Y-162335771D01*
X77151428Y-162335771D02*
X77199047Y-162431009D01*
X77199047Y-162431009D02*
X77199047Y-162526247D01*
X77199047Y-162526247D02*
X76722857Y-162621485D01*
X77580000Y-162907200D02*
X77675238Y-162954819D01*
X77675238Y-162954819D02*
X77865714Y-162954819D01*
X77865714Y-162954819D02*
X77960952Y-162907200D01*
X77960952Y-162907200D02*
X78008571Y-162811961D01*
X78008571Y-162811961D02*
X78008571Y-162764342D01*
X78008571Y-162764342D02*
X77960952Y-162669104D01*
X77960952Y-162669104D02*
X77865714Y-162621485D01*
X77865714Y-162621485D02*
X77722857Y-162621485D01*
X77722857Y-162621485D02*
X77627619Y-162573866D01*
X77627619Y-162573866D02*
X77580000Y-162478628D01*
X77580000Y-162478628D02*
X77580000Y-162431009D01*
X77580000Y-162431009D02*
X77627619Y-162335771D01*
X77627619Y-162335771D02*
X77722857Y-162288152D01*
X77722857Y-162288152D02*
X77865714Y-162288152D01*
X77865714Y-162288152D02*
X77960952Y-162335771D01*
X78818095Y-162907200D02*
X78722857Y-162954819D01*
X78722857Y-162954819D02*
X78532381Y-162954819D01*
X78532381Y-162954819D02*
X78437143Y-162907200D01*
X78437143Y-162907200D02*
X78389524Y-162811961D01*
X78389524Y-162811961D02*
X78389524Y-162431009D01*
X78389524Y-162431009D02*
X78437143Y-162335771D01*
X78437143Y-162335771D02*
X78532381Y-162288152D01*
X78532381Y-162288152D02*
X78722857Y-162288152D01*
X78722857Y-162288152D02*
X78818095Y-162335771D01*
X78818095Y-162335771D02*
X78865714Y-162431009D01*
X78865714Y-162431009D02*
X78865714Y-162526247D01*
X78865714Y-162526247D02*
X78389524Y-162621485D01*
X79151429Y-162288152D02*
X79532381Y-162288152D01*
X79294286Y-161954819D02*
X79294286Y-162811961D01*
X79294286Y-162811961D02*
X79341905Y-162907200D01*
X79341905Y-162907200D02*
X79437143Y-162954819D01*
X79437143Y-162954819D02*
X79532381Y-162954819D01*
X72954819Y-133785714D02*
X71954819Y-133785714D01*
X71954819Y-133785714D02*
X71954819Y-133547619D01*
X71954819Y-133547619D02*
X72002438Y-133404762D01*
X72002438Y-133404762D02*
X72097676Y-133309524D01*
X72097676Y-133309524D02*
X72192914Y-133261905D01*
X72192914Y-133261905D02*
X72383390Y-133214286D01*
X72383390Y-133214286D02*
X72526247Y-133214286D01*
X72526247Y-133214286D02*
X72716723Y-133261905D01*
X72716723Y-133261905D02*
X72811961Y-133309524D01*
X72811961Y-133309524D02*
X72907200Y-133404762D01*
X72907200Y-133404762D02*
X72954819Y-133547619D01*
X72954819Y-133547619D02*
X72954819Y-133785714D01*
X72907200Y-132404762D02*
X72954819Y-132500000D01*
X72954819Y-132500000D02*
X72954819Y-132690476D01*
X72954819Y-132690476D02*
X72907200Y-132785714D01*
X72907200Y-132785714D02*
X72811961Y-132833333D01*
X72811961Y-132833333D02*
X72431009Y-132833333D01*
X72431009Y-132833333D02*
X72335771Y-132785714D01*
X72335771Y-132785714D02*
X72288152Y-132690476D01*
X72288152Y-132690476D02*
X72288152Y-132500000D01*
X72288152Y-132500000D02*
X72335771Y-132404762D01*
X72335771Y-132404762D02*
X72431009Y-132357143D01*
X72431009Y-132357143D02*
X72526247Y-132357143D01*
X72526247Y-132357143D02*
X72621485Y-132833333D01*
X72954819Y-131928571D02*
X71954819Y-131928571D01*
X72335771Y-131928571D02*
X72288152Y-131833333D01*
X72288152Y-131833333D02*
X72288152Y-131642857D01*
X72288152Y-131642857D02*
X72335771Y-131547619D01*
X72335771Y-131547619D02*
X72383390Y-131500000D01*
X72383390Y-131500000D02*
X72478628Y-131452381D01*
X72478628Y-131452381D02*
X72764342Y-131452381D01*
X72764342Y-131452381D02*
X72859580Y-131500000D01*
X72859580Y-131500000D02*
X72907200Y-131547619D01*
X72907200Y-131547619D02*
X72954819Y-131642857D01*
X72954819Y-131642857D02*
X72954819Y-131833333D01*
X72954819Y-131833333D02*
X72907200Y-131928571D01*
X72288152Y-130595238D02*
X72954819Y-130595238D01*
X72288152Y-131023809D02*
X72811961Y-131023809D01*
X72811961Y-131023809D02*
X72907200Y-130976190D01*
X72907200Y-130976190D02*
X72954819Y-130880952D01*
X72954819Y-130880952D02*
X72954819Y-130738095D01*
X72954819Y-130738095D02*
X72907200Y-130642857D01*
X72907200Y-130642857D02*
X72859580Y-130595238D01*
X72288152Y-129690476D02*
X73097676Y-129690476D01*
X73097676Y-129690476D02*
X73192914Y-129738095D01*
X73192914Y-129738095D02*
X73240533Y-129785714D01*
X73240533Y-129785714D02*
X73288152Y-129880952D01*
X73288152Y-129880952D02*
X73288152Y-130023809D01*
X73288152Y-130023809D02*
X73240533Y-130119047D01*
X72907200Y-129690476D02*
X72954819Y-129785714D01*
X72954819Y-129785714D02*
X72954819Y-129976190D01*
X72954819Y-129976190D02*
X72907200Y-130071428D01*
X72907200Y-130071428D02*
X72859580Y-130119047D01*
X72859580Y-130119047D02*
X72764342Y-130166666D01*
X72764342Y-130166666D02*
X72478628Y-130166666D01*
X72478628Y-130166666D02*
X72383390Y-130119047D01*
X72383390Y-130119047D02*
X72335771Y-130071428D01*
X72335771Y-130071428D02*
X72288152Y-129976190D01*
X72288152Y-129976190D02*
X72288152Y-129785714D01*
X72288152Y-129785714D02*
X72335771Y-129690476D01*
X72954819Y-127976190D02*
X72954819Y-128452380D01*
X72954819Y-128452380D02*
X71954819Y-128452380D01*
X72431009Y-127642856D02*
X72431009Y-127309523D01*
X72954819Y-127166666D02*
X72954819Y-127642856D01*
X72954819Y-127642856D02*
X71954819Y-127642856D01*
X71954819Y-127642856D02*
X71954819Y-127166666D01*
X72954819Y-126738094D02*
X71954819Y-126738094D01*
X71954819Y-126738094D02*
X71954819Y-126499999D01*
X71954819Y-126499999D02*
X72002438Y-126357142D01*
X72002438Y-126357142D02*
X72097676Y-126261904D01*
X72097676Y-126261904D02*
X72192914Y-126214285D01*
X72192914Y-126214285D02*
X72383390Y-126166666D01*
X72383390Y-126166666D02*
X72526247Y-126166666D01*
X72526247Y-126166666D02*
X72716723Y-126214285D01*
X72716723Y-126214285D02*
X72811961Y-126261904D01*
X72811961Y-126261904D02*
X72907200Y-126357142D01*
X72907200Y-126357142D02*
X72954819Y-126499999D01*
X72954819Y-126499999D02*
X72954819Y-126738094D01*
X72267261Y-108550057D02*
X72172023Y-108502438D01*
X72172023Y-108502438D02*
X72076785Y-108407200D01*
X72076785Y-108407200D02*
X71933928Y-108264342D01*
X71933928Y-108264342D02*
X71838690Y-108216723D01*
X71838690Y-108216723D02*
X71743452Y-108216723D01*
X71791071Y-108454819D02*
X71695833Y-108407200D01*
X71695833Y-108407200D02*
X71600595Y-108311961D01*
X71600595Y-108311961D02*
X71552976Y-108121485D01*
X71552976Y-108121485D02*
X71552976Y-107788152D01*
X71552976Y-107788152D02*
X71600595Y-107597676D01*
X71600595Y-107597676D02*
X71695833Y-107502438D01*
X71695833Y-107502438D02*
X71791071Y-107454819D01*
X71791071Y-107454819D02*
X71981547Y-107454819D01*
X71981547Y-107454819D02*
X72076785Y-107502438D01*
X72076785Y-107502438D02*
X72172023Y-107597676D01*
X72172023Y-107597676D02*
X72219642Y-107788152D01*
X72219642Y-107788152D02*
X72219642Y-108121485D01*
X72219642Y-108121485D02*
X72172023Y-108311961D01*
X72172023Y-108311961D02*
X72076785Y-108407200D01*
X72076785Y-108407200D02*
X71981547Y-108454819D01*
X71981547Y-108454819D02*
X71791071Y-108454819D01*
X72600595Y-107550057D02*
X72648214Y-107502438D01*
X72648214Y-107502438D02*
X72743452Y-107454819D01*
X72743452Y-107454819D02*
X72981547Y-107454819D01*
X72981547Y-107454819D02*
X73076785Y-107502438D01*
X73076785Y-107502438D02*
X73124404Y-107550057D01*
X73124404Y-107550057D02*
X73172023Y-107645295D01*
X73172023Y-107645295D02*
X73172023Y-107740533D01*
X73172023Y-107740533D02*
X73124404Y-107883390D01*
X73124404Y-107883390D02*
X72552976Y-108454819D01*
X72552976Y-108454819D02*
X73172023Y-108454819D01*
%TO.C,D5*%
D13*
X65550000Y-64460000D02*
X65550000Y-65480000D01*
X65550000Y-71940000D02*
X65550000Y-70920000D01*
X67020000Y-66260000D02*
X64080000Y-66260000D01*
X67020000Y-66380000D02*
X64080000Y-66380000D01*
X67020000Y-66500000D02*
X64080000Y-66500000D01*
X64080000Y-65480000D02*
X67020000Y-65480000D01*
X67020000Y-70920000D01*
X64080000Y-70920000D01*
X64080000Y-65480000D01*
%TO.C,LED1*%
X72977500Y-84340000D02*
X72977500Y-86260000D01*
X72977500Y-86260000D02*
X75662500Y-86260000D01*
X75662500Y-84340000D02*
X72977500Y-84340000D01*
%TO.C,R11*%
X69110436Y-95645000D02*
X69564564Y-95645000D01*
X69110436Y-97115000D02*
X69564564Y-97115000D01*
%TO.C,R18*%
X66985436Y-108265000D02*
X67439564Y-108265000D01*
X66985436Y-109735000D02*
X67439564Y-109735000D01*
%TO.C,R12*%
X72835436Y-95645000D02*
X73289564Y-95645000D01*
X72835436Y-97115000D02*
X73289564Y-97115000D01*
%TO.C,D3*%
X57000000Y-99200000D02*
X57000000Y-97240000D01*
X58200000Y-97240000D02*
X57000000Y-97240000D01*
X58200000Y-99200000D02*
X58200000Y-97240000D01*
%TO.C,R25*%
X64335436Y-123015000D02*
X64789564Y-123015000D01*
X64335436Y-124485000D02*
X64789564Y-124485000D01*
%TO.C,C16*%
X64584420Y-155590000D02*
X64865580Y-155590000D01*
X64584420Y-156610000D02*
X64865580Y-156610000D01*
%TO.C,U1*%
D14*
X55170000Y-124495000D02*
X55170000Y-124995000D01*
X55170000Y-127495000D02*
X55170000Y-126995000D01*
X57670000Y-124495000D02*
X57670000Y-124995000D01*
X57670000Y-127495000D02*
X57670000Y-126995000D01*
D15*
X57330000Y-123940000D02*
G75*
G02*
X57130000Y-123940000I-100000J0D01*
G01*
X57130000Y-123940000D02*
G75*
G02*
X57330000Y-123940000I100000J0D01*
G01*
%TO.C,R24*%
D13*
X81315000Y-132527064D02*
X81315000Y-132072936D01*
X82785000Y-132527064D02*
X82785000Y-132072936D01*
%TO.C,D4*%
X59000000Y-100750000D02*
X59000000Y-102710000D01*
X59000000Y-102710000D02*
X60200000Y-102710000D01*
X60200000Y-100750000D02*
X60200000Y-102710000D01*
%TO.C,C6*%
X52390000Y-126009420D02*
X52390000Y-126290580D01*
X53410000Y-126009420D02*
X53410000Y-126290580D01*
%TO.C,C1*%
X92284420Y-133940000D02*
X92565580Y-133940000D01*
X92284420Y-134960000D02*
X92565580Y-134960000D01*
%TO.C,U5*%
X69887500Y-121362500D02*
X69887500Y-119752500D01*
X69887500Y-121362500D02*
X71887500Y-121362500D01*
X70167500Y-115322500D02*
X82427500Y-115322500D01*
X70167500Y-121072500D02*
X70167500Y-115332500D01*
X82427500Y-115322500D02*
X82427500Y-121082500D01*
X82427500Y-121082500D02*
X70177500Y-121082500D01*
%TO.C,C9*%
X68615580Y-155240000D02*
X68334420Y-155240000D01*
X68615580Y-156260000D02*
X68334420Y-156260000D01*
%TO.C,K1*%
D11*
X86700000Y-145850000D02*
X86700000Y-143100000D01*
X86700000Y-153350000D02*
X86700000Y-155850000D01*
X86700000Y-155850000D02*
X89450000Y-155850000D01*
X97450000Y-141100000D02*
X100200000Y-141100000D01*
X99450000Y-156600000D02*
X102200000Y-156600000D01*
X102200000Y-143100000D02*
X102200000Y-145850000D01*
X102200000Y-156600000D02*
X102200000Y-153600000D01*
%TO.C,C37*%
D13*
X53590000Y-117384420D02*
X53590000Y-117665580D01*
X54610000Y-117384420D02*
X54610000Y-117665580D01*
%TO.C,U8*%
X57060000Y-135250000D02*
X63810000Y-135250000D01*
X57060000Y-153250000D02*
X57060000Y-135250000D01*
X57060000Y-153250000D02*
X63810000Y-153250000D01*
X63000000Y-135250000D02*
X63000000Y-153250000D01*
X81810000Y-135250000D02*
X82560000Y-135250000D01*
X81810000Y-153250000D02*
X82560000Y-153250000D01*
X82560000Y-135250000D02*
X82560000Y-136000000D01*
X82560000Y-136000000D02*
X82560000Y-137750000D01*
X82560000Y-152500000D02*
X82560000Y-150750000D01*
X82560000Y-153250000D02*
X82560000Y-152500000D01*
%TO.C,C5*%
X54765580Y-128840000D02*
X54484420Y-128840000D01*
X54765580Y-129860000D02*
X54484420Y-129860000D01*
%TO.C,L1*%
X53450000Y-67975000D02*
X53450000Y-63975000D01*
X61650000Y-67975000D02*
X61650000Y-63975000D01*
%TO.C,LED3*%
X72827500Y-79640000D02*
X72827500Y-81560000D01*
X72827500Y-81560000D02*
X75512500Y-81560000D01*
X75512500Y-79640000D02*
X72827500Y-79640000D01*
%TO.C,D9*%
X56950000Y-101400000D02*
X56950000Y-103360000D01*
X56950000Y-103360000D02*
X58150000Y-103360000D01*
X58150000Y-101400000D02*
X58150000Y-103360000D01*
%TO.C,C14*%
X70065580Y-57690000D02*
X69784420Y-57690000D01*
X70065580Y-58710000D02*
X69784420Y-58710000D01*
%TO.C,U6*%
X75775000Y-59650000D02*
X75775000Y-60600000D01*
X75775000Y-70050000D02*
X75775000Y-69100000D01*
X77140000Y-59650000D02*
X75775000Y-59650000D01*
X77140000Y-70050000D02*
X75775000Y-70050000D01*
X72950000Y-60640000D02*
X72610000Y-60170000D01*
X73290000Y-60170000D01*
X72950000Y-60640000D01*
G36*
X72950000Y-60640000D02*
G01*
X72610000Y-60170000D01*
X73290000Y-60170000D01*
X72950000Y-60640000D01*
G37*
%TO.C,R9*%
X54964564Y-121015000D02*
X54510436Y-121015000D01*
X54964564Y-122485000D02*
X54510436Y-122485000D01*
%TO.C,R39*%
X58915000Y-117314564D02*
X58915000Y-116860436D01*
X60385000Y-117314564D02*
X60385000Y-116860436D01*
%TO.C,C13*%
X71640000Y-100239420D02*
X71640000Y-100520580D01*
X72660000Y-100239420D02*
X72660000Y-100520580D01*
%TO.C,Boot*%
X84950000Y-121220000D02*
X84950000Y-121250000D01*
X84950000Y-125750000D02*
X84950000Y-123150000D01*
X84950000Y-127680000D02*
X84950000Y-127650000D01*
X91410000Y-121220000D02*
X84950000Y-121220000D01*
X91410000Y-121220000D02*
X91410000Y-121250000D01*
X91410000Y-125750000D02*
X91410000Y-123150000D01*
X91410000Y-127650000D02*
X91410000Y-127680000D01*
X91410000Y-127680000D02*
X84950000Y-127680000D01*
%TO.C,C8*%
X58640000Y-98134420D02*
X58640000Y-98415580D01*
X59660000Y-98134420D02*
X59660000Y-98415580D01*
%TO.C,R3*%
X58364564Y-128615000D02*
X57910436Y-128615000D01*
X58364564Y-130085000D02*
X57910436Y-130085000D01*
%TO.C,C10*%
X59538748Y-80015000D02*
X60061252Y-80015000D01*
X59538748Y-81485000D02*
X60061252Y-81485000D01*
%TO.C,C20*%
X83065580Y-128740000D02*
X82784420Y-128740000D01*
X83065580Y-129760000D02*
X82784420Y-129760000D01*
%TO.C,U7*%
X57240000Y-85450000D02*
X57240000Y-89210000D01*
X57240000Y-89210000D02*
X58500000Y-89210000D01*
X64060000Y-85450000D02*
X64060000Y-89210000D01*
X64060000Y-89210000D02*
X62800000Y-89210000D01*
X63960000Y-84170000D02*
X64290000Y-83930000D01*
X64290000Y-84410000D01*
X63960000Y-84170000D01*
G36*
X64290000Y-84410000D02*
G01*
X63960000Y-84170000D01*
X64290000Y-83930000D01*
X64290000Y-84410000D01*
G37*
%TO.C,R16*%
X73865000Y-128614564D02*
X73865000Y-128160436D01*
X75335000Y-128614564D02*
X75335000Y-128160436D01*
%TO.C,D6*%
X67100000Y-56810000D02*
X67100000Y-51300000D01*
X67100000Y-56810000D02*
X70400000Y-56810000D01*
X70400000Y-56810000D02*
X70400000Y-51300000D01*
%TO.C,R22*%
X64310436Y-98145000D02*
X64764564Y-98145000D01*
X64310436Y-99615000D02*
X64764564Y-99615000D01*
%TO.C,C18*%
X92284420Y-135790000D02*
X92565580Y-135790000D01*
X92284420Y-136810000D02*
X92565580Y-136810000D01*
%TO.C,R13*%
X70415000Y-157235436D02*
X70415000Y-157689564D01*
X71885000Y-157235436D02*
X71885000Y-157689564D01*
%TO.C,C15*%
X60915580Y-71640000D02*
X60634420Y-71640000D01*
X60915580Y-72660000D02*
X60634420Y-72660000D01*
%TO.C,R15*%
X70739564Y-84565000D02*
X70285436Y-84565000D01*
X70739564Y-86035000D02*
X70285436Y-86035000D01*
%TO.C,C12*%
X64965000Y-89661252D02*
X64965000Y-89138748D01*
X66435000Y-89661252D02*
X66435000Y-89138748D01*
%TO.C,C17*%
X64686252Y-157590000D02*
X63263748Y-157590000D01*
X64686252Y-159410000D02*
X63263748Y-159410000D01*
%TO.C,R1*%
X70764564Y-79865000D02*
X70310436Y-79865000D01*
X70764564Y-81335000D02*
X70310436Y-81335000D01*
%TO.C,J3*%
D14*
X50750000Y-96900000D02*
X50750000Y-104400000D01*
X51750000Y-96900000D02*
X50750000Y-96900000D01*
X51750000Y-104400000D02*
X50750000Y-104400000D01*
X55750000Y-96900000D02*
X54150000Y-96900000D01*
X55750000Y-104400000D02*
X54150000Y-104400000D01*
%TO.C,R17*%
D13*
X68852064Y-110215000D02*
X68397936Y-110215000D01*
X68852064Y-111685000D02*
X68397936Y-111685000D01*
%TO.C,D8*%
X59560000Y-75300000D02*
X54050000Y-75300000D01*
X59560000Y-78600000D02*
X54050000Y-78600000D01*
X59560000Y-78600000D02*
X59560000Y-75300000D01*
%TO.C,J1*%
X74400000Y-37700000D02*
X83600000Y-37700000D01*
X74400000Y-46700000D02*
X74400000Y-37700000D01*
X74400000Y-52300000D02*
X74400000Y-50300000D01*
X77200000Y-52300000D02*
X74400000Y-52300000D01*
X83600000Y-37700000D02*
X83600000Y-52300000D01*
X83600000Y-52300000D02*
X80800000Y-52300000D01*
X83840000Y-50800000D02*
X83840000Y-52540000D01*
X83840000Y-52540000D02*
X82100000Y-52540000D01*
%TO.C,R10*%
X75862936Y-122117500D02*
X76317064Y-122117500D01*
X75862936Y-123587500D02*
X76317064Y-123587500D01*
%TO.C,U10*%
D14*
X55480000Y-117290000D02*
X58080000Y-117290000D01*
X55480000Y-120060000D02*
X58080000Y-120060000D01*
D15*
X58430000Y-117675000D02*
G75*
G02*
X58330000Y-117675000I-50000J0D01*
G01*
X58330000Y-117675000D02*
G75*
G02*
X58430000Y-117675000I50000J0D01*
G01*
%TO.C,C19*%
D13*
X92234420Y-137690000D02*
X92515580Y-137690000D01*
X92234420Y-138710000D02*
X92515580Y-138710000D01*
%TO.C,R2*%
X64472936Y-120365000D02*
X64927064Y-120365000D01*
X64472936Y-121835000D02*
X64927064Y-121835000D01*
%TO.C,Q9*%
X62627500Y-108840000D02*
X64147500Y-108840000D01*
X62627500Y-109840000D02*
X62627500Y-108840000D01*
X62627500Y-111960000D02*
X62627500Y-110960000D01*
X64147500Y-108840000D02*
X64147500Y-108890000D01*
X64147500Y-110010000D02*
X64147500Y-110790000D01*
X64147500Y-111910000D02*
X64147500Y-111960000D01*
X64147500Y-111960000D02*
X62627500Y-111960000D01*
X64687500Y-110780000D02*
X64447500Y-110450000D01*
X64927500Y-110450000D01*
X64687500Y-110780000D01*
G36*
X64687500Y-110780000D02*
G01*
X64447500Y-110450000D01*
X64927500Y-110450000D01*
X64687500Y-110780000D01*
G37*
%TO.C,R23*%
X65377064Y-95795000D02*
X64922936Y-95795000D01*
X65377064Y-97265000D02*
X64922936Y-97265000D01*
D16*
%TO.C,G\u002A\u002A\u002A*%
G36*
X114768667Y-84482667D02*
G01*
X114768667Y-86260667D01*
X114280137Y-86286109D01*
X113791607Y-86311551D01*
X113814470Y-84508109D01*
X113837333Y-82704667D01*
X114303000Y-82704667D01*
X114768667Y-82704667D01*
X114768667Y-84482667D01*
G37*
G36*
X108024303Y-77004714D02*
G01*
X108234413Y-77058554D01*
X108376333Y-77159000D01*
X108514114Y-77331449D01*
X108520588Y-77479862D01*
X108392060Y-77657442D01*
X108337848Y-77713182D01*
X108176367Y-77840594D01*
X107981617Y-77903223D01*
X107688872Y-77920929D01*
X107660515Y-77921000D01*
X107191000Y-77921000D01*
X107191000Y-77455333D01*
X107191000Y-76989667D01*
X107699000Y-76989667D01*
X108024303Y-77004714D01*
G37*
G36*
X92480167Y-82681295D02*
G01*
X93771333Y-82704667D01*
X93771333Y-83043333D01*
X93771333Y-83382000D01*
X93348000Y-83424333D01*
X92924667Y-83466667D01*
X92901453Y-84884833D01*
X92878239Y-86303000D01*
X92456953Y-86303000D01*
X92035667Y-86303000D01*
X92035667Y-84863667D01*
X92035667Y-83424333D01*
X91612333Y-83424333D01*
X91189000Y-83424333D01*
X91189000Y-83041128D01*
X91189000Y-82657923D01*
X92480167Y-82681295D01*
G37*
G36*
X99992857Y-89623267D02*
G01*
X100046009Y-89701560D01*
X100076349Y-89875121D01*
X100094814Y-90179188D01*
X100096457Y-90218833D01*
X100121333Y-90832667D01*
X100396500Y-90859198D01*
X100602204Y-90913505D01*
X100671667Y-91007364D01*
X100624257Y-91081684D01*
X100462861Y-91119667D01*
X100206000Y-91129000D01*
X99740333Y-91129000D01*
X99740333Y-90367000D01*
X99743290Y-90004655D01*
X99756818Y-89779466D01*
X99787902Y-89659290D01*
X99843530Y-89611988D01*
X99905957Y-89605000D01*
X99992857Y-89623267D01*
G37*
G36*
X103144036Y-77463537D02*
G01*
X103229598Y-77630024D01*
X103344261Y-77932395D01*
X103493917Y-78384534D01*
X103501318Y-78407833D01*
X103524719Y-78515996D01*
X103482806Y-78572837D01*
X103339970Y-78594799D01*
X103088759Y-78598333D01*
X102820987Y-78594608D01*
X102686096Y-78570674D01*
X102647636Y-78507396D01*
X102669160Y-78385637D01*
X102670842Y-78378922D01*
X102759394Y-78080257D01*
X102867054Y-77792200D01*
X102974196Y-77560608D01*
X103061193Y-77431338D01*
X103081681Y-77419046D01*
X103144036Y-77463537D01*
G37*
G36*
X93470785Y-89617732D02*
G01*
X93520777Y-89677416D01*
X93547470Y-89816279D01*
X93558027Y-90066552D01*
X93559667Y-90367000D01*
X93556837Y-90729035D01*
X93543574Y-90953997D01*
X93512715Y-91074116D01*
X93457099Y-91121621D01*
X93390333Y-91129000D01*
X93309881Y-91116267D01*
X93259889Y-91056584D01*
X93233196Y-90917720D01*
X93222640Y-90667447D01*
X93221000Y-90367000D01*
X93223829Y-90004965D01*
X93237092Y-89780002D01*
X93267951Y-89659884D01*
X93323567Y-89612379D01*
X93390333Y-89605000D01*
X93470785Y-89617732D01*
G37*
G36*
X110089291Y-89634695D02*
G01*
X110127884Y-89743072D01*
X110147935Y-89959070D01*
X110154266Y-90311625D01*
X110154333Y-90367000D01*
X110149384Y-90738750D01*
X110131321Y-90970307D01*
X110095322Y-91090611D01*
X110036562Y-91128598D01*
X110027333Y-91129000D01*
X109965375Y-91099305D01*
X109926782Y-90990927D01*
X109906731Y-90774930D01*
X109900400Y-90422374D01*
X109900333Y-90367000D01*
X109905282Y-89995250D01*
X109923345Y-89763692D01*
X109959345Y-89643389D01*
X110018104Y-89605402D01*
X110027333Y-89605000D01*
X110089291Y-89634695D01*
G37*
G36*
X113899291Y-89634695D02*
G01*
X113937884Y-89743072D01*
X113957935Y-89959070D01*
X113964266Y-90311625D01*
X113964333Y-90367000D01*
X113959384Y-90738750D01*
X113941321Y-90970307D01*
X113905322Y-91090611D01*
X113846562Y-91128598D01*
X113837333Y-91129000D01*
X113775375Y-91099305D01*
X113736782Y-90990927D01*
X113716731Y-90774930D01*
X113710400Y-90422374D01*
X113710333Y-90367000D01*
X113715282Y-89995250D01*
X113733345Y-89763692D01*
X113769345Y-89643389D01*
X113828104Y-89605402D01*
X113837333Y-89605000D01*
X113899291Y-89634695D01*
G37*
G36*
X103405471Y-92307542D02*
G01*
X103593224Y-92412608D01*
X103631904Y-92504669D01*
X103527120Y-92550320D01*
X103367139Y-92535928D01*
X103049367Y-92535938D01*
X102827052Y-92672415D01*
X102714637Y-92933616D01*
X102703667Y-93075306D01*
X102757618Y-93364527D01*
X102921906Y-93526983D01*
X103200184Y-93565343D01*
X103347582Y-93545913D01*
X103558589Y-93535661D01*
X103634657Y-93592482D01*
X103562031Y-93693597D01*
X103471233Y-93750688D01*
X103180959Y-93828801D01*
X102843171Y-93764065D01*
X102796014Y-93746039D01*
X102536681Y-93576343D01*
X102399440Y-93310882D01*
X102367693Y-93027592D01*
X102438627Y-92689470D01*
X102632863Y-92432637D01*
X102913875Y-92282435D01*
X103245140Y-92264205D01*
X103405471Y-92307542D01*
G37*
G36*
X108094242Y-92248249D02*
G01*
X108180894Y-92286680D01*
X108206073Y-92361892D01*
X108207000Y-92395291D01*
X108168656Y-92521537D01*
X108024045Y-92566283D01*
X107953000Y-92568333D01*
X107699000Y-92568333D01*
X107699000Y-93161000D01*
X107691531Y-93483006D01*
X107664676Y-93667300D01*
X107611760Y-93745026D01*
X107572000Y-93753667D01*
X107502715Y-93718580D01*
X107463206Y-93592516D01*
X107446719Y-93344264D01*
X107445000Y-93166624D01*
X107441977Y-92858470D01*
X107423086Y-92680796D01*
X107373590Y-92594752D01*
X107278753Y-92561489D01*
X107212167Y-92552790D01*
X107033255Y-92490870D01*
X106979333Y-92399000D01*
X107017743Y-92328773D01*
X107152512Y-92283581D01*
X107412951Y-92256172D01*
X107593167Y-92247124D01*
X107910279Y-92237947D01*
X108094242Y-92248249D01*
G37*
G36*
X92629112Y-89614145D02*
G01*
X92811993Y-89643896D01*
X92864320Y-89697722D01*
X92861945Y-89708498D01*
X92760847Y-89805629D01*
X92622056Y-89860214D01*
X92514840Y-89898351D01*
X92450669Y-89976359D01*
X92415807Y-90133525D01*
X92396512Y-90409140D01*
X92391791Y-90518716D01*
X92369643Y-90852392D01*
X92332435Y-91044649D01*
X92273439Y-91123200D01*
X92243624Y-91129000D01*
X92178158Y-91092654D01*
X92139760Y-90963960D01*
X92122704Y-90713434D01*
X92120333Y-90494000D01*
X92117695Y-90171012D01*
X92101855Y-89981684D01*
X92060924Y-89890348D01*
X91983011Y-89861334D01*
X91908667Y-89859000D01*
X91738428Y-89814839D01*
X91697000Y-89732000D01*
X91731571Y-89663348D01*
X91855990Y-89623881D01*
X92101319Y-89607020D01*
X92296722Y-89605000D01*
X92629112Y-89614145D01*
G37*
G36*
X113082216Y-89612763D02*
G01*
X113280361Y-89638502D01*
X113352425Y-89685890D01*
X113351026Y-89710833D01*
X113249696Y-89798501D01*
X113089970Y-89843457D01*
X112974449Y-89864548D01*
X112906957Y-89918704D01*
X112874591Y-90043333D01*
X112864451Y-90275843D01*
X112863667Y-90499624D01*
X112856505Y-90835107D01*
X112831164Y-91031250D01*
X112781856Y-91117592D01*
X112740376Y-91129000D01*
X112671242Y-91086695D01*
X112626475Y-90941308D01*
X112599349Y-90665127D01*
X112592209Y-90518716D01*
X112574882Y-90200691D01*
X112546036Y-90012694D01*
X112491932Y-89915438D01*
X112398832Y-89869633D01*
X112361944Y-89860214D01*
X112191400Y-89785547D01*
X112122055Y-89708498D01*
X112154791Y-89652512D01*
X112311536Y-89619347D01*
X112611612Y-89605750D01*
X112736667Y-89605000D01*
X113082216Y-89612763D01*
G37*
G36*
X109152422Y-89589928D02*
G01*
X109339977Y-89622972D01*
X109378967Y-89639072D01*
X109454076Y-89730134D01*
X109393592Y-89799025D01*
X109231247Y-89825113D01*
X109097332Y-89811330D01*
X108816118Y-89827736D01*
X108604162Y-89964642D01*
X108483448Y-90179948D01*
X108475960Y-90431554D01*
X108603681Y-90677360D01*
X108630333Y-90705667D01*
X108836068Y-90852281D01*
X109033096Y-90846658D01*
X109135494Y-90793880D01*
X109306782Y-90770976D01*
X109374056Y-90810298D01*
X109431307Y-90895128D01*
X109351734Y-90979123D01*
X109292229Y-91014121D01*
X108949779Y-91118640D01*
X108612251Y-91055661D01*
X108382829Y-90909807D01*
X108174701Y-90636105D01*
X108113027Y-90314494D01*
X108200120Y-89985930D01*
X108320600Y-89807277D01*
X108491405Y-89653012D01*
X108696500Y-89587025D01*
X108898520Y-89576778D01*
X109152422Y-89589928D01*
G37*
G36*
X96020015Y-92316411D02*
G01*
X96323719Y-92516947D01*
X96488280Y-92812515D01*
X96523000Y-93089124D01*
X96449548Y-93411508D01*
X96252218Y-93654181D01*
X95965546Y-93797254D01*
X95624069Y-93820837D01*
X95367892Y-93754379D01*
X95111861Y-93569378D01*
X94959189Y-93294104D01*
X94923777Y-93008118D01*
X95253000Y-93008118D01*
X95314950Y-93301897D01*
X95475227Y-93497523D01*
X95695467Y-93577216D01*
X95937309Y-93523194D01*
X96096368Y-93399035D01*
X96244842Y-93140408D01*
X96237387Y-92873109D01*
X96160149Y-92728820D01*
X95946050Y-92558306D01*
X95701553Y-92518473D01*
X95473471Y-92594906D01*
X95308617Y-92773194D01*
X95253000Y-93008118D01*
X94923777Y-93008118D01*
X94920272Y-92979816D01*
X95005504Y-92677774D01*
X95118708Y-92525595D01*
X95434039Y-92308888D01*
X95775463Y-92255463D01*
X96020015Y-92316411D01*
G37*
G36*
X97735158Y-92283402D02*
G01*
X97879738Y-92323410D01*
X97920000Y-92399000D01*
X97843177Y-92500310D01*
X97609175Y-92551711D01*
X97602500Y-92552277D01*
X97385243Y-92590421D01*
X97295186Y-92672508D01*
X97285000Y-92742777D01*
X97320235Y-92856441D01*
X97455105Y-92902091D01*
X97581333Y-92907000D01*
X97800506Y-92934540D01*
X97877131Y-93022433D01*
X97877667Y-93034000D01*
X97813407Y-93127931D01*
X97608322Y-93160770D01*
X97581333Y-93161000D01*
X97382721Y-93174106D01*
X97301269Y-93248053D01*
X97285037Y-93434778D01*
X97285000Y-93457333D01*
X97266401Y-93661083D01*
X97192895Y-93743493D01*
X97112370Y-93753667D01*
X97029949Y-93742543D01*
X96980757Y-93687320D01*
X96958239Y-93555218D01*
X96955839Y-93313457D01*
X96964204Y-93012833D01*
X96988667Y-92272000D01*
X97454333Y-92272000D01*
X97735158Y-92283402D01*
G37*
G36*
X111199191Y-92294555D02*
G01*
X111223323Y-92432922D01*
X111186645Y-92508542D01*
X111004417Y-92782577D01*
X110852301Y-93097981D01*
X110760667Y-93386113D01*
X110747000Y-93502242D01*
X110719781Y-93687007D01*
X110618867Y-93751364D01*
X110577667Y-93753667D01*
X110455725Y-93715734D01*
X110410970Y-93572590D01*
X110408333Y-93488806D01*
X110366241Y-93271974D01*
X110257383Y-92985533D01*
X110145245Y-92764116D01*
X110016632Y-92516959D01*
X109942715Y-92329473D01*
X109937640Y-92248804D01*
X110050823Y-92237798D01*
X110202304Y-92347331D01*
X110354798Y-92546415D01*
X110403902Y-92636343D01*
X110507250Y-92814561D01*
X110588989Y-92903026D01*
X110597112Y-92905077D01*
X110669153Y-92837797D01*
X110779349Y-92665665D01*
X110831667Y-92568333D01*
X110951547Y-92364371D01*
X111053048Y-92243713D01*
X111082390Y-92229667D01*
X111199191Y-92294555D01*
G37*
G36*
X107243330Y-89608299D02*
G01*
X107526420Y-89778860D01*
X107701133Y-90039466D01*
X107760581Y-90345166D01*
X107697873Y-90651007D01*
X107506120Y-90912035D01*
X107449917Y-90956165D01*
X107110831Y-91109792D01*
X106771414Y-91095681D01*
X106446555Y-90914744D01*
X106421869Y-90893292D01*
X106211477Y-90616479D01*
X106173046Y-90448002D01*
X106471181Y-90448002D01*
X106603287Y-90718059D01*
X106817335Y-90850890D01*
X107081209Y-90834428D01*
X107256828Y-90743199D01*
X107403192Y-90552390D01*
X107432503Y-90308970D01*
X107361383Y-90064275D01*
X107206452Y-89869643D01*
X106984331Y-89776411D01*
X106943145Y-89774333D01*
X106748993Y-89848532D01*
X106579273Y-90031099D01*
X106476052Y-90261991D01*
X106471181Y-90448002D01*
X106173046Y-90448002D01*
X106144146Y-90321304D01*
X106200669Y-90037812D01*
X106361840Y-89796047D01*
X106608454Y-89626053D01*
X106921302Y-89557874D01*
X107243330Y-89608299D01*
G37*
G36*
X101534135Y-92365345D02*
G01*
X101759074Y-92548534D01*
X101910960Y-92791949D01*
X101975749Y-93064088D01*
X101939400Y-93333449D01*
X101787870Y-93568531D01*
X101551928Y-93720441D01*
X101294097Y-93811933D01*
X101093938Y-93821157D01*
X100860759Y-93747458D01*
X100784166Y-93714909D01*
X100507402Y-93519361D01*
X100358650Y-93255916D01*
X100348815Y-93138278D01*
X100679820Y-93138278D01*
X100771688Y-93379410D01*
X100811789Y-93429500D01*
X101029588Y-93562015D01*
X101283087Y-93569899D01*
X101504159Y-93456202D01*
X101555866Y-93396161D01*
X101677505Y-93106844D01*
X101648476Y-92838273D01*
X101481706Y-92627406D01*
X101250504Y-92523297D01*
X101009611Y-92536818D01*
X100820032Y-92673086D01*
X100703018Y-92888205D01*
X100679820Y-93138278D01*
X100348815Y-93138278D01*
X100334165Y-92963047D01*
X100430207Y-92679227D01*
X100643032Y-92442929D01*
X100921265Y-92305649D01*
X101250185Y-92273883D01*
X101534135Y-92365345D01*
G37*
G36*
X106631216Y-92261787D02*
G01*
X106678486Y-92330825D01*
X106683000Y-92394575D01*
X106651472Y-92513954D01*
X106526348Y-92562274D01*
X106386667Y-92568333D01*
X106182427Y-92587275D01*
X106100020Y-92661222D01*
X106090333Y-92737667D01*
X106123481Y-92854375D01*
X106252889Y-92901465D01*
X106386667Y-92907000D01*
X106605840Y-92934540D01*
X106682464Y-93022433D01*
X106683000Y-93034000D01*
X106618740Y-93127931D01*
X106413655Y-93160770D01*
X106386667Y-93161000D01*
X106186268Y-93176814D01*
X106104229Y-93247979D01*
X106090333Y-93372667D01*
X106112473Y-93515808D01*
X106212105Y-93574407D01*
X106386667Y-93584333D01*
X106582534Y-93605599D01*
X106680440Y-93657888D01*
X106683000Y-93669000D01*
X106606419Y-93715225D01*
X106408746Y-93745978D01*
X106214037Y-93753667D01*
X105745074Y-93753667D01*
X105769537Y-93012833D01*
X105794000Y-92272000D01*
X106238500Y-92246409D01*
X106498353Y-92238248D01*
X106631216Y-92261787D01*
G37*
G36*
X104048416Y-89573383D02*
G01*
X104259305Y-89650759D01*
X104315154Y-89743365D01*
X104222664Y-89816308D01*
X103998099Y-89835301D01*
X103747125Y-89859092D01*
X103640942Y-89946748D01*
X103685963Y-90065548D01*
X103888602Y-90182772D01*
X103927335Y-90196347D01*
X104215144Y-90347112D01*
X104346622Y-90555272D01*
X104318831Y-90815576D01*
X104159438Y-91021957D01*
X103908948Y-91124519D01*
X103619300Y-91110076D01*
X103444500Y-91037551D01*
X103321551Y-90913418D01*
X103296333Y-90832864D01*
X103327165Y-90761021D01*
X103447250Y-90770399D01*
X103557645Y-90805569D01*
X103766478Y-90853891D01*
X103904080Y-90806889D01*
X103946249Y-90769370D01*
X104005684Y-90684581D01*
X103970355Y-90606215D01*
X103816483Y-90501598D01*
X103706104Y-90439387D01*
X103477037Y-90294779D01*
X103367527Y-90161908D01*
X103338692Y-89992746D01*
X103338667Y-89985489D01*
X103411583Y-89752719D01*
X103608020Y-89602851D01*
X103894511Y-89555316D01*
X104048416Y-89573383D01*
G37*
G36*
X115545482Y-89620857D02*
G01*
X115821879Y-89783358D01*
X116000341Y-90038008D01*
X116060004Y-90366824D01*
X115980789Y-90664400D01*
X115793036Y-90905723D01*
X115527086Y-91065780D01*
X115213278Y-91119557D01*
X114881954Y-91042041D01*
X114820319Y-91010847D01*
X114546244Y-90777786D01*
X114417664Y-90484140D01*
X114429085Y-90324667D01*
X114726333Y-90324667D01*
X114791578Y-90553431D01*
X114951646Y-90754366D01*
X115153036Y-90867280D01*
X115215494Y-90875000D01*
X115397566Y-90828004D01*
X115554161Y-90743199D01*
X115701386Y-90552018D01*
X115730664Y-90309002D01*
X115658754Y-90064922D01*
X115502417Y-89870548D01*
X115278410Y-89776651D01*
X115234333Y-89774333D01*
X115015998Y-89848468D01*
X114830138Y-90031596D01*
X114731138Y-90264797D01*
X114726333Y-90324667D01*
X114429085Y-90324667D01*
X114440533Y-90164823D01*
X114620804Y-89854752D01*
X114622819Y-89852490D01*
X114900743Y-89649335D01*
X115223367Y-89574153D01*
X115545482Y-89620857D01*
G37*
G36*
X95064757Y-89595135D02*
G01*
X95247554Y-89668577D01*
X95393400Y-89807277D01*
X95556632Y-90108360D01*
X95578488Y-90427887D01*
X95476835Y-90726892D01*
X95269540Y-90966409D01*
X94974470Y-91107475D01*
X94787333Y-91129000D01*
X94504931Y-91079641D01*
X94257700Y-90908114D01*
X94230487Y-90881513D01*
X94027734Y-90576149D01*
X94010552Y-90447532D01*
X94266740Y-90447532D01*
X94431952Y-90676377D01*
X94460085Y-90699521D01*
X94693815Y-90844361D01*
X94885603Y-90847299D01*
X95090449Y-90705272D01*
X95135106Y-90661924D01*
X95286971Y-90422964D01*
X95269836Y-90180646D01*
X95083933Y-89937483D01*
X95066930Y-89922500D01*
X94840961Y-89791454D01*
X94624947Y-89818378D01*
X94432957Y-89958425D01*
X94266822Y-90201310D01*
X94266740Y-90447532D01*
X94010552Y-90447532D01*
X93983419Y-90244425D01*
X94099013Y-89918449D01*
X94181267Y-89807277D01*
X94340948Y-89659394D01*
X94529042Y-89591779D01*
X94787333Y-89576778D01*
X95064757Y-89595135D01*
G37*
G36*
X105491057Y-89574045D02*
G01*
X105681613Y-89642193D01*
X105720978Y-89719640D01*
X105623134Y-89778372D01*
X105402060Y-89790376D01*
X105383836Y-89788879D01*
X105176337Y-89784889D01*
X105088739Y-89836941D01*
X105074333Y-89924202D01*
X105152080Y-90076611D01*
X105390644Y-90211532D01*
X105400010Y-90215243D01*
X105670350Y-90375386D01*
X105778614Y-90576345D01*
X105722649Y-90812148D01*
X105652665Y-90916327D01*
X105448435Y-91069661D01*
X105189175Y-91133147D01*
X104944653Y-91097280D01*
X104837267Y-91027400D01*
X104728198Y-90869659D01*
X104764632Y-90785314D01*
X104930726Y-90796372D01*
X104989362Y-90816135D01*
X105189555Y-90868379D01*
X105324870Y-90823442D01*
X105383313Y-90771639D01*
X105452645Y-90684076D01*
X105432648Y-90612312D01*
X105299090Y-90524973D01*
X105125655Y-90438062D01*
X104891116Y-90313038D01*
X104777280Y-90207015D01*
X104747656Y-90076032D01*
X104752871Y-89988959D01*
X104851311Y-89746971D01*
X105068631Y-89596881D01*
X105370813Y-89557809D01*
X105491057Y-89574045D01*
G37*
G36*
X117796524Y-89637953D02*
G01*
X117834083Y-89755447D01*
X117853406Y-89985436D01*
X117858997Y-90355871D01*
X117859000Y-90367000D01*
X117851655Y-90757970D01*
X117827816Y-90999554D01*
X117784771Y-91111136D01*
X117753167Y-91124191D01*
X117653054Y-91060050D01*
X117482594Y-90894301D01*
X117274628Y-90659594D01*
X117224000Y-90598128D01*
X116800667Y-90076875D01*
X116775460Y-90602937D01*
X116749362Y-90911474D01*
X116703276Y-91077898D01*
X116629664Y-91128969D01*
X116627293Y-91129000D01*
X116566923Y-91096201D01*
X116529319Y-90979136D01*
X116509963Y-90749805D01*
X116504337Y-90380203D01*
X116504333Y-90367000D01*
X116507939Y-90002640D01*
X116522829Y-89776274D01*
X116555115Y-89656642D01*
X116610907Y-89612486D01*
X116652500Y-89609006D01*
X116775800Y-89673658D01*
X116960520Y-89839953D01*
X117168101Y-90072862D01*
X117181667Y-90089722D01*
X117562667Y-90566433D01*
X117588058Y-90085716D01*
X117617140Y-89791101D01*
X117669988Y-89639814D01*
X117736225Y-89605000D01*
X117796524Y-89637953D01*
G37*
G36*
X102314990Y-89627235D02*
G01*
X102450812Y-89800090D01*
X102605960Y-90121368D01*
X102789503Y-90596680D01*
X102939430Y-91023167D01*
X102925756Y-91114915D01*
X102828140Y-91123235D01*
X102703068Y-91059320D01*
X102619000Y-90959667D01*
X102492642Y-90835930D01*
X102263536Y-90791432D01*
X102202562Y-90790333D01*
X101972833Y-90811666D01*
X101860291Y-90890438D01*
X101832468Y-90959667D01*
X101755065Y-91071256D01*
X101634648Y-91132409D01*
X101537663Y-91119838D01*
X101518333Y-91069762D01*
X101546432Y-90968857D01*
X101621545Y-90749481D01*
X101729896Y-90451207D01*
X101739081Y-90426662D01*
X102045041Y-90426662D01*
X102046494Y-90514103D01*
X102132148Y-90535747D01*
X102195667Y-90536333D01*
X102337782Y-90476763D01*
X102363703Y-90388167D01*
X102318069Y-90184438D01*
X102283898Y-90115869D01*
X102217232Y-90057958D01*
X102152441Y-90138753D01*
X102115861Y-90227214D01*
X102045041Y-90426662D01*
X101739081Y-90426662D01*
X101783573Y-90307762D01*
X101932785Y-89943064D01*
X102065046Y-89704335D01*
X102189424Y-89597188D01*
X102314990Y-89627235D01*
G37*
G36*
X103910167Y-82662805D02*
G01*
X104589356Y-82690437D01*
X105127195Y-82777816D01*
X105543552Y-82932905D01*
X105858297Y-83163666D01*
X106091299Y-83478061D01*
X106130221Y-83552450D01*
X106234731Y-83875932D01*
X106290690Y-84285479D01*
X106297185Y-84719359D01*
X106253306Y-85115839D01*
X106158141Y-85413187D01*
X106157706Y-85414000D01*
X105937985Y-85746823D01*
X105669092Y-85990935D01*
X105325003Y-86157153D01*
X104879696Y-86256292D01*
X104307146Y-86299167D01*
X104018719Y-86303000D01*
X103042333Y-86303000D01*
X103042333Y-85456333D01*
X103973667Y-85456333D01*
X104443182Y-85456333D01*
X104747875Y-85440859D01*
X104948732Y-85381653D01*
X105109461Y-85259536D01*
X105114904Y-85254126D01*
X105312128Y-84950561D01*
X105388463Y-84590789D01*
X105348675Y-84223421D01*
X105197531Y-83897068D01*
X104959771Y-83672097D01*
X104675701Y-83558416D01*
X104350333Y-83509484D01*
X104333500Y-83509316D01*
X103973667Y-83509000D01*
X103973667Y-84482667D01*
X103973667Y-85456333D01*
X103042333Y-85456333D01*
X103042333Y-84482667D01*
X103042333Y-82662333D01*
X103910167Y-82662805D01*
G37*
G36*
X97367747Y-89618730D02*
G01*
X97416548Y-89681340D01*
X97442589Y-89824955D01*
X97452832Y-90081704D01*
X97454333Y-90367000D01*
X97445026Y-90777394D01*
X97408558Y-91025435D01*
X97332108Y-91117494D01*
X97202856Y-91059944D01*
X97007982Y-90859155D01*
X96850031Y-90667339D01*
X96658003Y-90437360D01*
X96503552Y-90270682D01*
X96418851Y-90201912D01*
X96417167Y-90201672D01*
X96382415Y-90275920D01*
X96359350Y-90471675D01*
X96353667Y-90663333D01*
X96346317Y-90932441D01*
X96314539Y-91072631D01*
X96243740Y-91124033D01*
X96184333Y-91129000D01*
X96103881Y-91116267D01*
X96053889Y-91056584D01*
X96027196Y-90917720D01*
X96016640Y-90667447D01*
X96015000Y-90367000D01*
X96018002Y-90004538D01*
X96031624Y-89779262D01*
X96062791Y-89659066D01*
X96118430Y-89611843D01*
X96179361Y-89605000D01*
X96324978Y-89673319D01*
X96528783Y-89861195D01*
X96708528Y-90072994D01*
X97073333Y-90540987D01*
X97098725Y-90072994D01*
X97122039Y-89801082D01*
X97164621Y-89659328D01*
X97242403Y-89608587D01*
X97289225Y-89605000D01*
X97367747Y-89618730D01*
G37*
G36*
X90705141Y-89621483D02*
G01*
X90828733Y-89690719D01*
X90957531Y-89876903D01*
X91107815Y-90203743D01*
X91112088Y-90214167D01*
X91269853Y-90603821D01*
X91367429Y-90863528D01*
X91409906Y-91019586D01*
X91402378Y-91098291D01*
X91349937Y-91125941D01*
X91289247Y-91129000D01*
X91133080Y-91056357D01*
X91079801Y-90959667D01*
X91011511Y-90845601D01*
X90854832Y-90796967D01*
X90694632Y-90790333D01*
X90456408Y-90810822D01*
X90334998Y-90886330D01*
X90300000Y-90959667D01*
X90215872Y-91079018D01*
X90099149Y-91131730D01*
X90014299Y-91097809D01*
X90003667Y-91051567D01*
X90032182Y-90941942D01*
X90108291Y-90715885D01*
X90217836Y-90414638D01*
X90223297Y-90400186D01*
X90516115Y-90400186D01*
X90577976Y-90514772D01*
X90681000Y-90536333D01*
X90823138Y-90475883D01*
X90850333Y-90371997D01*
X90805415Y-90204518D01*
X90703588Y-90136505D01*
X90594245Y-90198857D01*
X90588164Y-90207986D01*
X90516115Y-90400186D01*
X90223297Y-90400186D01*
X90266866Y-90284884D01*
X90401882Y-89947303D01*
X90503603Y-89742641D01*
X90590690Y-89642650D01*
X90681803Y-89619085D01*
X90705141Y-89621483D01*
G37*
G36*
X111368753Y-89629278D02*
G01*
X111517163Y-89817127D01*
X111686819Y-90164685D01*
X111743993Y-90304092D01*
X111867678Y-90622661D01*
X111962414Y-90880612D01*
X112013890Y-91038338D01*
X112019160Y-91065500D01*
X111964323Y-91133573D01*
X111851669Y-91108538D01*
X111746493Y-91013546D01*
X111720667Y-90959667D01*
X111642886Y-90844561D01*
X111475517Y-90796156D01*
X111326035Y-90790333D01*
X111091411Y-90809439D01*
X110974804Y-90880950D01*
X110940865Y-90959667D01*
X110860276Y-91067486D01*
X110728507Y-91129440D01*
X110613129Y-91125821D01*
X110577978Y-91065500D01*
X110608214Y-90955454D01*
X110685947Y-90737467D01*
X110792303Y-90459379D01*
X110807855Y-90420490D01*
X111098546Y-90420490D01*
X111131671Y-90511861D01*
X111297333Y-90536333D01*
X111456604Y-90519896D01*
X111509000Y-90488434D01*
X111473304Y-90384507D01*
X111413188Y-90261508D01*
X111333799Y-90137347D01*
X111265662Y-90158482D01*
X111201521Y-90240923D01*
X111098546Y-90420490D01*
X110807855Y-90420490D01*
X110908410Y-90169035D01*
X111015394Y-89914277D01*
X111094382Y-89742947D01*
X111112375Y-89710833D01*
X111235765Y-89595670D01*
X111368753Y-89629278D01*
G37*
G36*
X96015000Y-83909070D02*
G01*
X96019972Y-84475307D01*
X96040163Y-84894167D01*
X96083488Y-85187448D01*
X96157860Y-85376949D01*
X96271193Y-85484467D01*
X96431402Y-85531801D01*
X96607471Y-85541000D01*
X96836160Y-85515809D01*
X96988082Y-85453429D01*
X97004836Y-85435167D01*
X97031130Y-85317328D01*
X97058486Y-85062152D01*
X97084410Y-84701597D01*
X97106402Y-84267621D01*
X97115667Y-84017000D01*
X97158000Y-82704667D01*
X97581333Y-82704667D01*
X98004667Y-82704667D01*
X98004667Y-84101667D01*
X98000230Y-84693491D01*
X97982786Y-85142857D01*
X97946130Y-85476501D01*
X97884060Y-85721160D01*
X97790372Y-85903572D01*
X97658863Y-86050475D01*
X97528011Y-86156151D01*
X97295436Y-86259762D01*
X96957870Y-86330844D01*
X96577567Y-86363363D01*
X96216783Y-86351288D01*
X95984736Y-86305689D01*
X95607901Y-86098367D01*
X95309527Y-85742196D01*
X95267238Y-85668200D01*
X95212494Y-85534157D01*
X95173603Y-85347832D01*
X95148169Y-85081580D01*
X95133794Y-84707752D01*
X95128080Y-84198704D01*
X95127739Y-84059333D01*
X95126000Y-82704667D01*
X95570500Y-82679075D01*
X96015000Y-82653484D01*
X96015000Y-83909070D01*
G37*
G36*
X98734580Y-89640177D02*
G01*
X98832984Y-89766824D01*
X98934059Y-90022568D01*
X98939173Y-90037887D01*
X99045214Y-90332990D01*
X99153149Y-90596526D01*
X99199456Y-90694054D01*
X99284498Y-90890249D01*
X99316478Y-91023167D01*
X99263755Y-91118207D01*
X99143736Y-91112097D01*
X99015852Y-91015997D01*
X98978333Y-90959667D01*
X98831800Y-90826775D01*
X98597333Y-90790333D01*
X98345913Y-90834310D01*
X98216333Y-90959667D01*
X98109027Y-91076061D01*
X97978809Y-91131989D01*
X97888544Y-91107399D01*
X97877667Y-91067693D01*
X97906835Y-90966230D01*
X97984804Y-90747146D01*
X98085374Y-90481389D01*
X98444916Y-90481389D01*
X98542531Y-90533627D01*
X98609074Y-90536333D01*
X98762679Y-90523014D01*
X98809000Y-90499512D01*
X98782120Y-90401942D01*
X98724492Y-90240417D01*
X98629972Y-90084657D01*
X98538077Y-90093499D01*
X98463127Y-90262615D01*
X98449850Y-90323415D01*
X98444916Y-90481389D01*
X98085374Y-90481389D01*
X98097270Y-90449955D01*
X98152833Y-90307585D01*
X98295988Y-89962099D01*
X98406115Y-89749258D01*
X98501933Y-89640474D01*
X98602164Y-89607162D01*
X98611695Y-89606892D01*
X98734580Y-89640177D01*
G37*
G36*
X99422891Y-92272590D02*
G01*
X99587297Y-92317441D01*
X99852114Y-92444362D01*
X99959703Y-92634118D01*
X99909895Y-92886301D01*
X99860618Y-92980235D01*
X99769293Y-93159747D01*
X99772400Y-93285310D01*
X99855234Y-93423419D01*
X99968122Y-93632371D01*
X99965645Y-93745285D01*
X99873938Y-93759137D01*
X99719134Y-93670902D01*
X99527370Y-93477553D01*
X99515425Y-93462751D01*
X99333844Y-93268686D01*
X99216982Y-93228899D01*
X99158078Y-93344161D01*
X99147667Y-93504663D01*
X99109167Y-93702632D01*
X99020667Y-93753667D01*
X98958708Y-93723971D01*
X98920115Y-93615594D01*
X98900065Y-93399597D01*
X98893733Y-93047041D01*
X98893667Y-92991667D01*
X98897087Y-92723555D01*
X99147667Y-92723555D01*
X99192336Y-92922438D01*
X99332675Y-92985106D01*
X99521742Y-92940275D01*
X99634731Y-92822420D01*
X99655667Y-92728608D01*
X99611286Y-92610157D01*
X99451877Y-92569362D01*
X99401667Y-92568333D01*
X99212706Y-92597268D01*
X99148749Y-92699008D01*
X99147667Y-92723555D01*
X98897087Y-92723555D01*
X98898614Y-92603807D01*
X98929679Y-92361621D01*
X99011192Y-92241457D01*
X99167486Y-92219663D01*
X99422891Y-92272590D01*
G37*
G36*
X105223889Y-92256365D02*
G01*
X105217930Y-92349952D01*
X105099774Y-92530665D01*
X104991528Y-92666306D01*
X104739390Y-92972193D01*
X105037740Y-93362930D01*
X105200563Y-93581249D01*
X105267471Y-93697777D01*
X105246908Y-93744079D01*
X105147315Y-93751718D01*
X105141711Y-93751665D01*
X104939235Y-93668767D01*
X104711007Y-93430046D01*
X104698258Y-93412999D01*
X104541458Y-93218222D01*
X104419156Y-93096660D01*
X104380758Y-93076333D01*
X104337901Y-93151483D01*
X104314072Y-93339205D01*
X104312333Y-93415000D01*
X104291362Y-93650485D01*
X104221845Y-93747520D01*
X104185333Y-93753667D01*
X104123375Y-93723971D01*
X104084782Y-93615594D01*
X104064731Y-93399597D01*
X104058400Y-93047041D01*
X104058333Y-92991667D01*
X104063282Y-92619917D01*
X104081345Y-92388359D01*
X104117345Y-92268055D01*
X104176104Y-92230068D01*
X104185333Y-92229667D01*
X104273640Y-92285590D01*
X104310028Y-92470969D01*
X104312333Y-92568333D01*
X104329537Y-92780429D01*
X104372514Y-92898377D01*
X104389885Y-92907000D01*
X104482710Y-92845780D01*
X104634690Y-92689330D01*
X104735667Y-92568333D01*
X104911825Y-92373620D01*
X105064812Y-92251172D01*
X105123781Y-92229667D01*
X105223889Y-92256365D01*
G37*
G36*
X89491452Y-89617732D02*
G01*
X89541444Y-89677416D01*
X89568137Y-89816279D01*
X89578693Y-90066552D01*
X89580333Y-90367000D01*
X89574574Y-90744617D01*
X89554551Y-90979747D01*
X89516145Y-91098931D01*
X89462086Y-91129000D01*
X89358151Y-91069093D01*
X89189836Y-90917422D01*
X88996494Y-90716063D01*
X88817481Y-90507090D01*
X88692150Y-90332579D01*
X88663111Y-90274784D01*
X88565887Y-90203874D01*
X88517665Y-90197667D01*
X88446230Y-90246556D01*
X88416935Y-90412112D01*
X88418887Y-90633096D01*
X88407576Y-90926421D01*
X88349220Y-91092128D01*
X88251887Y-91114011D01*
X88199208Y-91074319D01*
X88172446Y-90968051D01*
X88152175Y-90736169D01*
X88141726Y-90422366D01*
X88141000Y-90310555D01*
X88144625Y-89963842D01*
X88160515Y-89753265D01*
X88196194Y-89645694D01*
X88259186Y-89608001D01*
X88301226Y-89605000D01*
X88441707Y-89671452D01*
X88633854Y-89848839D01*
X88784291Y-90028333D01*
X88962286Y-90248750D01*
X89104861Y-90401866D01*
X89174398Y-90451667D01*
X89212777Y-90375493D01*
X89237132Y-90180738D01*
X89241667Y-90028333D01*
X89250582Y-89774416D01*
X89288423Y-89647778D01*
X89371833Y-89606811D01*
X89411000Y-89605000D01*
X89491452Y-89617732D01*
G37*
G36*
X113326300Y-82683616D02*
G01*
X113371667Y-82701352D01*
X113345618Y-82791904D01*
X113272672Y-83019116D01*
X113160626Y-83359388D01*
X113017277Y-83789123D01*
X112850424Y-84284725D01*
X112768744Y-84525911D01*
X112165822Y-86303000D01*
X111623087Y-86303000D01*
X111271586Y-86285823D01*
X111077865Y-86234979D01*
X111041905Y-86197167D01*
X110966429Y-85982080D01*
X110857333Y-85661614D01*
X110724020Y-85264370D01*
X110575894Y-84818953D01*
X110422358Y-84353966D01*
X110272817Y-83898011D01*
X110136674Y-83479693D01*
X110023333Y-83127615D01*
X109942198Y-82870380D01*
X109902672Y-82736591D01*
X109900333Y-82724844D01*
X109976371Y-82689223D01*
X110171475Y-82674736D01*
X110338178Y-82679075D01*
X110602710Y-82704762D01*
X110747075Y-82757464D01*
X110820399Y-82860428D01*
X110839483Y-82916333D01*
X111041500Y-83574861D01*
X111221787Y-84132073D01*
X111375596Y-84574741D01*
X111498176Y-84889639D01*
X111584779Y-85063539D01*
X111621504Y-85094276D01*
X111693516Y-84999370D01*
X111797069Y-84768923D01*
X111921960Y-84431504D01*
X112057987Y-84015679D01*
X112194948Y-83550016D01*
X112263235Y-83297333D01*
X112418385Y-82704667D01*
X112895026Y-82679275D01*
X113153210Y-82673139D01*
X113326300Y-82683616D01*
G37*
G36*
X109040917Y-92261633D02*
G01*
X109306877Y-92333896D01*
X109341275Y-92347564D01*
X109550875Y-92461834D01*
X109636477Y-92599159D01*
X109646333Y-92702846D01*
X109596861Y-92911847D01*
X109505084Y-93033950D01*
X109424525Y-93112203D01*
X109424770Y-93208650D01*
X109512187Y-93376511D01*
X109554322Y-93445450D01*
X109669424Y-93638121D01*
X109697217Y-93727035D01*
X109639659Y-93752329D01*
X109569350Y-93753667D01*
X109395139Y-93678199D01*
X109212851Y-93473925D01*
X109202612Y-93458381D01*
X109044503Y-93241156D01*
X108945352Y-93178667D01*
X108895410Y-93270881D01*
X108884333Y-93457333D01*
X108865735Y-93661083D01*
X108792228Y-93743493D01*
X108711704Y-93753667D01*
X108629282Y-93742543D01*
X108580091Y-93687320D01*
X108557573Y-93555218D01*
X108555172Y-93313457D01*
X108563537Y-93012833D01*
X108572540Y-92780000D01*
X108884333Y-92780000D01*
X108943913Y-92946174D01*
X109087423Y-92997093D01*
X109262013Y-92917335D01*
X109284117Y-92896683D01*
X109347570Y-92749040D01*
X109273646Y-92623128D01*
X109092020Y-92568364D01*
X109086941Y-92568333D01*
X108932059Y-92605571D01*
X108884908Y-92748733D01*
X108884333Y-92780000D01*
X108572540Y-92780000D01*
X108577261Y-92657926D01*
X108597175Y-92438079D01*
X108634365Y-92319092D01*
X108699919Y-92266762D01*
X108804923Y-92246888D01*
X108812108Y-92246051D01*
X109040917Y-92261633D01*
G37*
G36*
X100877237Y-82690680D02*
G01*
X100931251Y-82706357D01*
X101239925Y-82816730D01*
X101396908Y-82933279D01*
X101417842Y-83088159D01*
X101318364Y-83313521D01*
X101267999Y-83398664D01*
X101152226Y-83572044D01*
X101054651Y-83622130D01*
X100906546Y-83570945D01*
X100837167Y-83536731D01*
X100520998Y-83450351D01*
X100169580Y-83459908D01*
X99856513Y-83558363D01*
X99733405Y-83642270D01*
X99573346Y-83876683D01*
X99465019Y-84208214D01*
X99426063Y-84568115D01*
X99443733Y-84771314D01*
X99543738Y-85045965D01*
X99709917Y-85296771D01*
X99720467Y-85308167D01*
X99907074Y-85463492D01*
X100122575Y-85530399D01*
X100332658Y-85541000D01*
X100607735Y-85514644D01*
X100833305Y-85448451D01*
X100888318Y-85416693D01*
X101038667Y-85319289D01*
X101114446Y-85289693D01*
X101179750Y-85355196D01*
X101285150Y-85516668D01*
X101398251Y-85717044D01*
X101486655Y-85899262D01*
X101518333Y-86001119D01*
X101451349Y-86065243D01*
X101287927Y-86163641D01*
X101266457Y-86174902D01*
X100985040Y-86269314D01*
X100608724Y-86331120D01*
X100209941Y-86353689D01*
X99861122Y-86330390D01*
X99770660Y-86311851D01*
X99290692Y-86107899D01*
X98911613Y-85779477D01*
X98644079Y-85345402D01*
X98498746Y-84824491D01*
X98486269Y-84235562D01*
X98505506Y-84077573D01*
X98658320Y-83574522D01*
X98938321Y-83163161D01*
X99322861Y-82856295D01*
X99789292Y-82666724D01*
X100314967Y-82607252D01*
X100877237Y-82690680D01*
G37*
G36*
X117171065Y-82675543D02*
G01*
X117264065Y-82703913D01*
X117546865Y-82806305D01*
X117697876Y-82899385D01*
X117748282Y-83019820D01*
X117729265Y-83204277D01*
X117721858Y-83242207D01*
X117670139Y-83500805D01*
X117150736Y-83452733D01*
X116851349Y-83432868D01*
X116666477Y-83449257D01*
X116543341Y-83511963D01*
X116471481Y-83582242D01*
X116376152Y-83753256D01*
X116429477Y-83900688D01*
X116638792Y-84033394D01*
X116931160Y-84137194D01*
X117303508Y-84261085D01*
X117550339Y-84383499D01*
X117713209Y-84530531D01*
X117815790Y-84692639D01*
X117927884Y-85080974D01*
X117891505Y-85481608D01*
X117718015Y-85850919D01*
X117441603Y-86129439D01*
X117148518Y-86263336D01*
X116756909Y-86343286D01*
X116331112Y-86361718D01*
X115935461Y-86311061D01*
X115923468Y-86308076D01*
X115619804Y-86198647D01*
X115468234Y-86049321D01*
X115452198Y-85835337D01*
X115498291Y-85672341D01*
X115589308Y-85471002D01*
X115685966Y-85401626D01*
X115782301Y-85414758D01*
X116253664Y-85535223D01*
X116600388Y-85562979D01*
X116840026Y-85497266D01*
X116975247Y-85363177D01*
X116966173Y-85236832D01*
X116826337Y-85092421D01*
X116588642Y-84955323D01*
X116323669Y-84860615D01*
X115901322Y-84676786D01*
X115603809Y-84393373D01*
X115444637Y-84024528D01*
X115428246Y-83922450D01*
X115453051Y-83492215D01*
X115615358Y-83130213D01*
X115891740Y-82851995D01*
X116258770Y-82673111D01*
X116693021Y-82609110D01*
X117171065Y-82675543D01*
G37*
G36*
X105148848Y-87742810D02*
G01*
X107133603Y-87744238D01*
X108953843Y-87746615D01*
X110609144Y-87749940D01*
X112099085Y-87754208D01*
X113423243Y-87759419D01*
X114581195Y-87765570D01*
X115572520Y-87772657D01*
X116396794Y-87780680D01*
X117053595Y-87789635D01*
X117542500Y-87799521D01*
X117863088Y-87810334D01*
X118014936Y-87822073D01*
X118028333Y-87827000D01*
X117943738Y-87839106D01*
X117690235Y-87850288D01*
X117268246Y-87860543D01*
X116678193Y-87869868D01*
X115920499Y-87878262D01*
X114995587Y-87885722D01*
X113903879Y-87892246D01*
X112645797Y-87897831D01*
X111221764Y-87902475D01*
X109632202Y-87906175D01*
X107877534Y-87908929D01*
X105958183Y-87910736D01*
X103874570Y-87911591D01*
X103000000Y-87911667D01*
X100851151Y-87911190D01*
X98866396Y-87909762D01*
X97046157Y-87907384D01*
X95390855Y-87904060D01*
X93900914Y-87899791D01*
X92576757Y-87894581D01*
X91418804Y-87888430D01*
X90427480Y-87881342D01*
X89603206Y-87873320D01*
X88946405Y-87864364D01*
X88457499Y-87854479D01*
X88136912Y-87843666D01*
X87985064Y-87831927D01*
X87971667Y-87827000D01*
X88056262Y-87814894D01*
X88309765Y-87803712D01*
X88731754Y-87793457D01*
X89321807Y-87784131D01*
X90079500Y-87775737D01*
X91004413Y-87768277D01*
X92096121Y-87761754D01*
X93354203Y-87756169D01*
X94778236Y-87751525D01*
X96367797Y-87747825D01*
X98122465Y-87745070D01*
X100041817Y-87743264D01*
X102125430Y-87742409D01*
X103000000Y-87742333D01*
X105148848Y-87742810D01*
G37*
G36*
X89724585Y-82679505D02*
G01*
X90192034Y-82704667D01*
X90608916Y-83890000D01*
X90772176Y-84354862D01*
X90929941Y-84805257D01*
X91066712Y-85196859D01*
X91166991Y-85485342D01*
X91186212Y-85541000D01*
X91284367Y-85822919D01*
X91367301Y-86055907D01*
X91403871Y-86154833D01*
X91416775Y-86242342D01*
X91344491Y-86286803D01*
X91152235Y-86302014D01*
X91030338Y-86303000D01*
X90773329Y-86295226D01*
X90636307Y-86256215D01*
X90570102Y-86162427D01*
X90543938Y-86070167D01*
X90465159Y-85834501D01*
X90341457Y-85699458D01*
X90130540Y-85638673D01*
X89830891Y-85625667D01*
X89473639Y-85635307D01*
X89245383Y-85676426D01*
X89106301Y-85767316D01*
X89016569Y-85926270D01*
X88985196Y-86014153D01*
X88915801Y-86188390D01*
X88822017Y-86273251D01*
X88648133Y-86300737D01*
X88482293Y-86303000D01*
X88074718Y-86303000D01*
X88268401Y-85689167D01*
X88367487Y-85378608D01*
X88503432Y-84957268D01*
X88569628Y-84753476D01*
X89366662Y-84753476D01*
X89376116Y-84875721D01*
X89476352Y-84919389D01*
X89668801Y-84942744D01*
X89890653Y-84945442D01*
X90079102Y-84927137D01*
X90171339Y-84887482D01*
X90173000Y-84880106D01*
X90145682Y-84740172D01*
X90076204Y-84515516D01*
X89983279Y-84255811D01*
X89885619Y-84010732D01*
X89801937Y-83829950D01*
X89752166Y-83763000D01*
X89674770Y-83837202D01*
X89579991Y-84025224D01*
X89485359Y-84275193D01*
X89408406Y-84535235D01*
X89366662Y-84753476D01*
X88569628Y-84753476D01*
X88660027Y-84475169D01*
X88821061Y-83982331D01*
X88859610Y-83864839D01*
X89257135Y-82654344D01*
X89724585Y-82679505D01*
G37*
G36*
X108923988Y-82933642D02*
G01*
X108988826Y-83091483D01*
X109095109Y-83365056D01*
X109232097Y-83725330D01*
X109389051Y-84143272D01*
X109555231Y-84589850D01*
X109719898Y-85036033D01*
X109872313Y-85452788D01*
X110001737Y-85811084D01*
X110097429Y-86081887D01*
X110148651Y-86236167D01*
X110154333Y-86259679D01*
X110077799Y-86283564D01*
X109880653Y-86299298D01*
X109695639Y-86303000D01*
X109427658Y-86296359D01*
X109272011Y-86256792D01*
X109171736Y-86154837D01*
X109081806Y-85985500D01*
X108926667Y-85668000D01*
X108271234Y-85643285D01*
X107615802Y-85618570D01*
X107478874Y-85960785D01*
X107392546Y-86157952D01*
X107301424Y-86259622D01*
X107150658Y-86297428D01*
X106885473Y-86303000D01*
X106633326Y-86289792D01*
X106467546Y-86255783D01*
X106429000Y-86224165D01*
X106457120Y-86118735D01*
X106533879Y-85887998D01*
X106647869Y-85564976D01*
X106787686Y-85182692D01*
X106801833Y-85144665D01*
X106914434Y-84839931D01*
X107841467Y-84839931D01*
X107847116Y-84898894D01*
X107963736Y-84934453D01*
X108172867Y-84947494D01*
X108405540Y-84939686D01*
X108592787Y-84912698D01*
X108663100Y-84879146D01*
X108661450Y-84763350D01*
X108609421Y-84546445D01*
X108523765Y-84282778D01*
X108421238Y-84026698D01*
X108364276Y-83909805D01*
X108266658Y-83806543D01*
X108201086Y-83819714D01*
X108127992Y-83942912D01*
X108038146Y-84159390D01*
X107948885Y-84416291D01*
X107877546Y-84660757D01*
X107841467Y-84839931D01*
X106914434Y-84839931D01*
X106976232Y-84672688D01*
X107158247Y-84173612D01*
X107323698Y-83714061D01*
X107426245Y-83424333D01*
X107677824Y-82704667D01*
X108238275Y-82679642D01*
X108798727Y-82654618D01*
X108923988Y-82933642D01*
G37*
G36*
X103020182Y-52402588D02*
G01*
X103046322Y-52446627D01*
X103110140Y-52583951D01*
X103227611Y-52859911D01*
X103391046Y-53255310D01*
X103592759Y-53750951D01*
X103825061Y-54327638D01*
X104080266Y-54966173D01*
X104350686Y-55647361D01*
X104628633Y-56352003D01*
X104906420Y-57060903D01*
X105176359Y-57754864D01*
X105296891Y-58066667D01*
X105586786Y-58818643D01*
X105828192Y-59445964D01*
X106033781Y-59981879D01*
X106216228Y-60459634D01*
X106388206Y-60912476D01*
X106562388Y-61373653D01*
X106751449Y-61876411D01*
X106894475Y-62257667D01*
X106976136Y-62474028D01*
X107108924Y-62824088D01*
X107283523Y-63283369D01*
X107490619Y-63827391D01*
X107720895Y-64431676D01*
X107965037Y-65071743D01*
X108070480Y-65348000D01*
X108338327Y-66050893D01*
X108614378Y-66777634D01*
X108885326Y-67493029D01*
X109137864Y-68161880D01*
X109358686Y-68748992D01*
X109534485Y-69219169D01*
X109558959Y-69285000D01*
X109745050Y-69784080D01*
X109926972Y-70268365D01*
X110089890Y-70698620D01*
X110218970Y-71035610D01*
X110279262Y-71190000D01*
X110388401Y-71469899D01*
X110537020Y-71857535D01*
X110705666Y-72301896D01*
X110874890Y-72751971D01*
X110876521Y-72756333D01*
X111056440Y-73235413D01*
X111246323Y-73737591D01*
X111422471Y-74200366D01*
X111550760Y-74534333D01*
X111691100Y-74900053D01*
X111873506Y-75380747D01*
X112100671Y-75983591D01*
X112375284Y-76715761D01*
X112700036Y-77584432D01*
X113077619Y-78596781D01*
X113510723Y-79759983D01*
X113566785Y-79910667D01*
X113751328Y-80413970D01*
X113911102Y-80863720D01*
X114037976Y-81235851D01*
X114123822Y-81506295D01*
X114160509Y-81650984D01*
X114160211Y-81667500D01*
X114073560Y-81674241D01*
X113829909Y-81680419D01*
X113441593Y-81686036D01*
X112920944Y-81691090D01*
X112280295Y-81695582D01*
X111531980Y-81699512D01*
X110688331Y-81702879D01*
X109761682Y-81705684D01*
X108764366Y-81707926D01*
X107708717Y-81709605D01*
X106607066Y-81710721D01*
X105471748Y-81711275D01*
X104315096Y-81711265D01*
X103149443Y-81710693D01*
X101987122Y-81709557D01*
X100840466Y-81707858D01*
X99721809Y-81705596D01*
X98643483Y-81702770D01*
X97617821Y-81699381D01*
X96657158Y-81695428D01*
X95773826Y-81690912D01*
X94980158Y-81685831D01*
X94288488Y-81680187D01*
X93711148Y-81673979D01*
X93284500Y-81667643D01*
X92815856Y-81655671D01*
X92412536Y-81638538D01*
X92102235Y-81617979D01*
X91912648Y-81595728D01*
X91866333Y-81578855D01*
X91894935Y-81475773D01*
X91971195Y-81255785D01*
X92019165Y-81126130D01*
X92493607Y-81126130D01*
X92498414Y-81218276D01*
X92588825Y-81230514D01*
X92836111Y-81241910D01*
X93227819Y-81252459D01*
X93751494Y-81262152D01*
X94394682Y-81270982D01*
X95144929Y-81278943D01*
X95989780Y-81286027D01*
X96916781Y-81292228D01*
X97913478Y-81297538D01*
X98967417Y-81301950D01*
X100066143Y-81305457D01*
X101197203Y-81308051D01*
X102348141Y-81309727D01*
X103506505Y-81310476D01*
X104659839Y-81310292D01*
X105795689Y-81309168D01*
X106901602Y-81307096D01*
X107965122Y-81304069D01*
X108973796Y-81300080D01*
X109915169Y-81295123D01*
X110776787Y-81289190D01*
X111546197Y-81282273D01*
X112210943Y-81274367D01*
X112758571Y-81265463D01*
X113176628Y-81255555D01*
X113452659Y-81244636D01*
X113574210Y-81232698D01*
X113578831Y-81230284D01*
X113567027Y-81126937D01*
X113500971Y-80898627D01*
X113390942Y-80576947D01*
X113247216Y-80193489D01*
X113213865Y-80108450D01*
X112948098Y-79436563D01*
X112650728Y-78685759D01*
X112329326Y-77875073D01*
X111991460Y-77023543D01*
X111644699Y-76150205D01*
X111296613Y-75274094D01*
X110954770Y-74414248D01*
X110626740Y-73589701D01*
X110320092Y-72819492D01*
X110042394Y-72122655D01*
X109801217Y-71518227D01*
X109604128Y-71025245D01*
X109458698Y-70662744D01*
X109415254Y-70555000D01*
X109230174Y-70095484D01*
X109049380Y-69643733D01*
X108891388Y-69246192D01*
X108774712Y-68949311D01*
X108757153Y-68904000D01*
X108676229Y-68698864D01*
X108540871Y-68360976D01*
X108360772Y-67914302D01*
X108145624Y-67382811D01*
X107905120Y-66790471D01*
X107648952Y-66161251D01*
X107541710Y-65898333D01*
X107277743Y-65250512D01*
X107021800Y-64620453D01*
X106784355Y-64034082D01*
X106575881Y-63517327D01*
X106406852Y-63096115D01*
X106287741Y-62796373D01*
X106259152Y-62723333D01*
X106004046Y-62072100D01*
X105725275Y-61369751D01*
X105429603Y-60632558D01*
X105123790Y-59876794D01*
X104814599Y-59118731D01*
X104508792Y-58374642D01*
X104213131Y-57660799D01*
X103934376Y-56993475D01*
X103679292Y-56388942D01*
X103454638Y-55863471D01*
X103267178Y-55433337D01*
X103123673Y-55114810D01*
X103030886Y-54924164D01*
X102997670Y-54874655D01*
X102940839Y-54948841D01*
X102834932Y-55155422D01*
X102691756Y-55468781D01*
X102523116Y-55863304D01*
X102379513Y-56215863D01*
X102152269Y-56781780D01*
X101886817Y-57437192D01*
X101610310Y-58115383D01*
X101349898Y-58749638D01*
X101247246Y-58998000D01*
X101019981Y-59548915D01*
X100752444Y-60201424D01*
X100467333Y-60899930D01*
X100187343Y-61588838D01*
X99951111Y-62173000D01*
X99690944Y-62817330D01*
X99391343Y-63557616D01*
X99076953Y-64333073D01*
X98772417Y-65082913D01*
X98509452Y-65729000D01*
X98290837Y-66266915D01*
X98087866Y-66769280D01*
X97911337Y-67209137D01*
X97772048Y-67559524D01*
X97680798Y-67793484D01*
X97656763Y-67857819D01*
X97584298Y-68048529D01*
X97462494Y-68357200D01*
X97306731Y-68745316D01*
X97132387Y-69174361D01*
X97082101Y-69297153D01*
X96872243Y-69813290D01*
X96610491Y-70464515D01*
X96305853Y-71227911D01*
X95967338Y-72080564D01*
X95603955Y-72999559D01*
X95224713Y-73961980D01*
X94838621Y-74944913D01*
X94454686Y-75925443D01*
X94081920Y-76880655D01*
X93729329Y-77787633D01*
X93405923Y-78623463D01*
X93120711Y-79365230D01*
X93009348Y-79656667D01*
X92866304Y-80030741D01*
X92711327Y-80434319D01*
X92629428Y-80646776D01*
X92539199Y-80915853D01*
X92493607Y-81126130D01*
X92019165Y-81126130D01*
X92080791Y-80959566D01*
X92126431Y-80840069D01*
X92232950Y-80559502D01*
X92384885Y-80153873D01*
X92569601Y-79657189D01*
X92774466Y-79103460D01*
X92986845Y-78526694D01*
X93069295Y-78302000D01*
X93286115Y-77711290D01*
X93504768Y-77117017D01*
X93711407Y-76556715D01*
X93892182Y-76067918D01*
X94033245Y-75688161D01*
X94068908Y-75592667D01*
X94188721Y-75272443D01*
X94355232Y-74827327D01*
X94555829Y-74291031D01*
X94777903Y-73697271D01*
X95008842Y-73079760D01*
X95161454Y-72671667D01*
X95382488Y-72081988D01*
X95595375Y-71516631D01*
X95789449Y-71003723D01*
X95954045Y-70571393D01*
X96078495Y-70247767D01*
X96140662Y-70089333D01*
X96232822Y-69853840D01*
X96371381Y-69492787D01*
X96543742Y-69039335D01*
X96737308Y-68526649D01*
X96939483Y-67987890D01*
X96976827Y-67888000D01*
X97209579Y-67267308D01*
X97464767Y-66590608D01*
X97721351Y-65913450D01*
X97958288Y-65291384D01*
X98131384Y-64840000D01*
X98308612Y-64377903D01*
X98468286Y-63957704D01*
X98598699Y-63610507D01*
X98688145Y-63367420D01*
X98720819Y-63273667D01*
X98783769Y-63093371D01*
X98897644Y-62783659D01*
X99051599Y-62372779D01*
X99234791Y-61888979D01*
X99436376Y-61360509D01*
X99645512Y-60815617D01*
X99851353Y-60282553D01*
X100043058Y-59789565D01*
X100209783Y-59364902D01*
X100340683Y-59036814D01*
X100424916Y-58833549D01*
X100427051Y-58828667D01*
X100491284Y-58670293D01*
X100599497Y-58391339D01*
X100737208Y-58030146D01*
X100889936Y-57625056D01*
X101043199Y-57214410D01*
X101182516Y-56836548D01*
X101258498Y-56627333D01*
X101356856Y-56364678D01*
X101497445Y-56002503D01*
X101657969Y-55597841D01*
X101755000Y-55357333D01*
X101931590Y-54919285D01*
X102140070Y-54396774D01*
X102351222Y-53863259D01*
X102495882Y-53494667D01*
X102674693Y-53037897D01*
X102802588Y-52718344D01*
X102890325Y-52515521D01*
X102948664Y-52408945D01*
X102988363Y-52378129D01*
X103020182Y-52402588D01*
G37*
G36*
X103012761Y-56595046D02*
G01*
X103117563Y-56763744D01*
X103214207Y-56982116D01*
X103298855Y-57192581D01*
X103436972Y-57533194D01*
X103617755Y-57977441D01*
X103830403Y-58498808D01*
X104064114Y-59070780D01*
X104294221Y-59633000D01*
X104528524Y-60206700D01*
X104812598Y-60905049D01*
X105133269Y-61695499D01*
X105477361Y-62545499D01*
X105831700Y-63422500D01*
X106183110Y-64293954D01*
X106518417Y-65127309D01*
X106556060Y-65221000D01*
X107139012Y-66671205D01*
X107665572Y-67979107D01*
X108135007Y-69142902D01*
X108546584Y-70160783D01*
X108899571Y-71030946D01*
X109193235Y-71751586D01*
X109426843Y-72320897D01*
X109599663Y-72737075D01*
X109710961Y-72998315D01*
X109735180Y-73052667D01*
X109842925Y-73301125D01*
X109982202Y-73638573D01*
X110124447Y-73995689D01*
X110136383Y-74026333D01*
X110300201Y-74444464D01*
X110485577Y-74912193D01*
X110677920Y-75393282D01*
X110862638Y-75851490D01*
X111025140Y-76250578D01*
X111150834Y-76554307D01*
X111210232Y-76693333D01*
X111292409Y-76887521D01*
X111417393Y-77192520D01*
X111574925Y-77582398D01*
X111754743Y-78031220D01*
X111946588Y-78513054D01*
X112140198Y-79001965D01*
X112325313Y-79472020D01*
X112491672Y-79897286D01*
X112629014Y-80251829D01*
X112727079Y-80509715D01*
X112775606Y-80645011D01*
X112779000Y-80658347D01*
X112696095Y-80665730D01*
X112454427Y-80672832D01*
X112064566Y-80679592D01*
X111537083Y-80685948D01*
X110882547Y-80691840D01*
X110111528Y-80697205D01*
X109234598Y-80701982D01*
X108262325Y-80706110D01*
X107205280Y-80709527D01*
X106074034Y-80712171D01*
X104879156Y-80713982D01*
X103631217Y-80714897D01*
X103042333Y-80715000D01*
X101522851Y-80714743D01*
X100164269Y-80713907D01*
X98958152Y-80712391D01*
X97896066Y-80710096D01*
X96969580Y-80706921D01*
X96170258Y-80702767D01*
X95489667Y-80697533D01*
X94919375Y-80691121D01*
X94450946Y-80683429D01*
X94075949Y-80674358D01*
X93785948Y-80663809D01*
X93572511Y-80651680D01*
X93427204Y-80637873D01*
X93341594Y-80622287D01*
X93307246Y-80604822D01*
X93305667Y-80599645D01*
X93336589Y-80470688D01*
X93418556Y-80232565D01*
X93535365Y-79931521D01*
X93565220Y-79858811D01*
X93700089Y-79529093D01*
X93873568Y-79098234D01*
X94062947Y-78622934D01*
X94239598Y-78175000D01*
X94243958Y-78163904D01*
X94417977Y-77720985D01*
X94597257Y-77266536D01*
X94756617Y-76864319D01*
X94875238Y-76567003D01*
X94875507Y-76566333D01*
X94996480Y-76265141D01*
X95048772Y-76134920D01*
X96438333Y-76134920D01*
X96438333Y-78163904D01*
X96438334Y-78832460D01*
X96442504Y-79349542D01*
X96457099Y-79732998D01*
X96488373Y-80000674D01*
X96542580Y-80170417D01*
X96625975Y-80260074D01*
X96744812Y-80287492D01*
X96905344Y-80270517D01*
X97113828Y-80226997D01*
X97158000Y-80217494D01*
X97412000Y-80163356D01*
X97454333Y-78986281D01*
X97496667Y-77809207D01*
X98087388Y-78732937D01*
X98327742Y-79109075D01*
X98550489Y-79458182D01*
X98731415Y-79742272D01*
X98846304Y-79923360D01*
X98849388Y-79928250D01*
X98955195Y-80077673D01*
X99068036Y-80159442D01*
X99240878Y-80194365D01*
X99526685Y-80203248D01*
X99549833Y-80203416D01*
X100079000Y-80207000D01*
X100079000Y-80145417D01*
X101026870Y-80145417D01*
X101086199Y-80187845D01*
X101248945Y-80199344D01*
X101521277Y-80190159D01*
X101812675Y-80172031D01*
X101981208Y-80137156D01*
X102073202Y-80061949D01*
X102134988Y-79922826D01*
X102153477Y-79868333D01*
X102252722Y-79572000D01*
X103056355Y-79547942D01*
X103859988Y-79523885D01*
X103972712Y-79865442D01*
X104085437Y-80207000D01*
X104623831Y-80207000D01*
X105162226Y-80207000D01*
X105108067Y-79974167D01*
X105040470Y-79750868D01*
X104935752Y-79469458D01*
X104894787Y-79370737D01*
X104800518Y-79135995D01*
X104743454Y-78964608D01*
X104735667Y-78922540D01*
X104708036Y-78814872D01*
X104633470Y-78585888D01*
X104524454Y-78272835D01*
X104490349Y-78178528D01*
X106175000Y-78178528D01*
X106177195Y-78853625D01*
X106184313Y-79374993D01*
X106197154Y-79758187D01*
X106216520Y-80018760D01*
X106243209Y-80172266D01*
X106278023Y-80234259D01*
X106280833Y-80235593D01*
X106484267Y-80274982D01*
X106755627Y-80282481D01*
X106996421Y-80257496D01*
X107057075Y-80240275D01*
X107125253Y-80180703D01*
X107166492Y-80044540D01*
X107186477Y-79799440D01*
X107191000Y-79478275D01*
X107191000Y-78767667D01*
X107685878Y-78767667D01*
X108029090Y-78790198D01*
X108253332Y-78877619D01*
X108388331Y-79059669D01*
X108463815Y-79366086D01*
X108488032Y-79570118D01*
X108548804Y-79931661D01*
X108663535Y-80152406D01*
X108859864Y-80258832D01*
X109165430Y-80277415D01*
X109223000Y-80274223D01*
X109465036Y-80243687D01*
X109567702Y-80185591D01*
X109572496Y-80122333D01*
X109548286Y-79979717D01*
X109513664Y-79721418D01*
X109475640Y-79400186D01*
X109471228Y-79360333D01*
X109437312Y-79054531D01*
X109411162Y-78824184D01*
X109397625Y-78711873D01*
X109396898Y-78707465D01*
X109338968Y-78643966D01*
X109205555Y-78515589D01*
X109201839Y-78512124D01*
X109011345Y-78334652D01*
X109191930Y-78191326D01*
X109409377Y-77955236D01*
X109526881Y-77651054D01*
X109561667Y-77240766D01*
X109503805Y-76852088D01*
X109325126Y-76545731D01*
X109017987Y-76317499D01*
X108574743Y-76163193D01*
X107987753Y-76078614D01*
X107409082Y-76058333D01*
X107042859Y-76064706D01*
X106709906Y-76081585D01*
X106471779Y-76105611D01*
X106439583Y-76111250D01*
X106175000Y-76164167D01*
X106175000Y-78178528D01*
X104490349Y-78178528D01*
X104434153Y-78023136D01*
X104211197Y-77415595D01*
X104035610Y-76948103D01*
X103894811Y-76602342D01*
X103776218Y-76359993D01*
X103667250Y-76202740D01*
X103619532Y-76164167D01*
X103555326Y-76112265D01*
X103427866Y-76070249D01*
X103272287Y-76058377D01*
X103084667Y-76058333D01*
X102804863Y-76078334D01*
X102579843Y-76129210D01*
X102508083Y-76164167D01*
X102428289Y-76280100D01*
X102309741Y-76523850D01*
X102166960Y-76862496D01*
X102014464Y-77263119D01*
X101975971Y-77370667D01*
X101745721Y-78023639D01*
X101534869Y-78623922D01*
X101350930Y-79149966D01*
X101201419Y-79580223D01*
X101093850Y-79893146D01*
X101037018Y-80063159D01*
X101026870Y-80145417D01*
X100079000Y-80145417D01*
X100079000Y-78175000D01*
X100079000Y-76143000D01*
X99573263Y-76143000D01*
X99067527Y-76143000D01*
X99044097Y-77389997D01*
X99020667Y-78636994D01*
X98258667Y-77411164D01*
X97496667Y-76185333D01*
X96967500Y-76160126D01*
X96438333Y-76134920D01*
X95048772Y-76134920D01*
X95158580Y-75861469D01*
X95339857Y-75409984D01*
X95475884Y-75071157D01*
X97115667Y-75071157D01*
X97180357Y-75125870D01*
X97196529Y-75127000D01*
X97288690Y-75081663D01*
X97493753Y-74957315D01*
X97785478Y-74771447D01*
X98137624Y-74541551D01*
X98523951Y-74285117D01*
X98918217Y-74019639D01*
X99294182Y-73762606D01*
X99625605Y-73531512D01*
X99886245Y-73343847D01*
X99994333Y-73262036D01*
X100256362Y-73062560D01*
X100592821Y-72814327D01*
X100978736Y-72534902D01*
X101389133Y-72241850D01*
X101799035Y-71952737D01*
X102183467Y-71685129D01*
X102517455Y-71456590D01*
X102776024Y-71284687D01*
X102934198Y-71186984D01*
X102966271Y-71171821D01*
X103097382Y-71200147D01*
X103317663Y-71309452D01*
X103582369Y-71477080D01*
X103616217Y-71500910D01*
X103816053Y-71643313D01*
X104131490Y-71868138D01*
X104540249Y-72159505D01*
X105020054Y-72501534D01*
X105548625Y-72878345D01*
X106103687Y-73274056D01*
X106274612Y-73395914D01*
X106954811Y-73880831D01*
X107509750Y-74275798D01*
X107952163Y-74589000D01*
X108294790Y-74828620D01*
X108550365Y-75002842D01*
X108731627Y-75119851D01*
X108851312Y-75187831D01*
X108922156Y-75214965D01*
X108956898Y-75209439D01*
X108968274Y-75179435D01*
X108969020Y-75133139D01*
X108969000Y-75127196D01*
X108940300Y-75047261D01*
X108848129Y-74891436D01*
X108683378Y-74646344D01*
X108436940Y-74298609D01*
X108099705Y-73834856D01*
X107953204Y-73635411D01*
X107772525Y-73389647D01*
X107518152Y-73043255D01*
X107216479Y-72632197D01*
X106893899Y-72192432D01*
X106683000Y-71904796D01*
X106312531Y-71400337D01*
X105898970Y-70838672D01*
X105484615Y-70277159D01*
X105111761Y-69773154D01*
X104989469Y-69608254D01*
X104184938Y-68524405D01*
X103861336Y-66174203D01*
X103767473Y-65497356D01*
X103671899Y-64816881D01*
X103579671Y-64168146D01*
X103495844Y-63586519D01*
X103425474Y-63107367D01*
X103380159Y-62808000D01*
X103311515Y-62355463D01*
X103246771Y-61911077D01*
X103193977Y-61531078D01*
X103165036Y-61305167D01*
X103114365Y-60986046D01*
X103056909Y-60831684D01*
X102992218Y-60842886D01*
X102919840Y-61020457D01*
X102839326Y-61365202D01*
X102750224Y-61877929D01*
X102715118Y-62109500D01*
X102605268Y-62861447D01*
X102493807Y-63632935D01*
X102383399Y-64404789D01*
X102276708Y-65157833D01*
X102176398Y-65872890D01*
X102085132Y-66530784D01*
X102005576Y-67112339D01*
X101940393Y-67598380D01*
X101892247Y-67969730D01*
X101863802Y-68207213D01*
X101857000Y-68286266D01*
X101808207Y-68401557D01*
X101672468Y-68627254D01*
X101465741Y-68939281D01*
X101203983Y-69313566D01*
X100903152Y-69726033D01*
X100898269Y-69732597D01*
X100356143Y-70464276D01*
X99825703Y-71186482D01*
X99316339Y-71885961D01*
X98837441Y-72549460D01*
X98398400Y-73163728D01*
X98008604Y-73715511D01*
X97677445Y-74191557D01*
X97414312Y-74578614D01*
X97228594Y-74863428D01*
X97129683Y-75032748D01*
X97115667Y-75071157D01*
X95475884Y-75071157D01*
X95504451Y-75000000D01*
X95667023Y-74595106D01*
X95874694Y-74078018D01*
X96109417Y-73493661D01*
X96353148Y-72886959D01*
X96587841Y-72302839D01*
X96592732Y-72290667D01*
X96815146Y-71736644D01*
X97082890Y-71068883D01*
X97378528Y-70330917D01*
X97684627Y-69566280D01*
X97983751Y-68818505D01*
X98203387Y-68269000D01*
X98910256Y-66500807D01*
X99562444Y-64871606D01*
X100159290Y-63383029D01*
X100700133Y-62036707D01*
X101184313Y-60834271D01*
X101611170Y-59777352D01*
X101980043Y-58867582D01*
X102290272Y-58106592D01*
X102541195Y-57496013D01*
X102732154Y-57037476D01*
X102862486Y-56732613D01*
X102931533Y-56583055D01*
X102941076Y-56567724D01*
X103012761Y-56595046D01*
G37*
%TO.C,C11*%
D13*
X73315000Y-99868748D02*
X73315000Y-100391252D01*
X74785000Y-99868748D02*
X74785000Y-100391252D01*
%TO.C,U9*%
X65340000Y-100520000D02*
X66065000Y-100520000D01*
X65340000Y-101245000D02*
X65340000Y-100520000D01*
X65340000Y-105740000D02*
X65340000Y-105015000D01*
X66065000Y-105740000D02*
X65340000Y-105740000D01*
X69835000Y-100520000D02*
X70560000Y-100520000D01*
X70560000Y-100520000D02*
X70560000Y-101245000D01*
X70560000Y-105015000D02*
X70560000Y-105740000D01*
X70560000Y-105740000D02*
X69835000Y-105740000D01*
X71060000Y-104630000D02*
X71390000Y-104390000D01*
X71390000Y-104870000D01*
X71060000Y-104630000D01*
G36*
X71390000Y-104870000D02*
G01*
X71060000Y-104630000D01*
X71390000Y-104390000D01*
X71390000Y-104870000D01*
G37*
%TO.C,Reset*%
X74350000Y-155220000D02*
X74350000Y-155250000D01*
X74350000Y-159750000D02*
X74350000Y-157150000D01*
X74350000Y-161680000D02*
X74350000Y-161650000D01*
X80810000Y-155220000D02*
X74350000Y-155220000D01*
X80810000Y-155220000D02*
X80810000Y-155250000D01*
X80810000Y-159750000D02*
X80810000Y-157150000D01*
X80810000Y-161650000D02*
X80810000Y-161680000D01*
X80810000Y-161680000D02*
X74350000Y-161680000D01*
%TO.C,Debug LED*%
X73690000Y-131062500D02*
X73690000Y-133747500D01*
X73690000Y-133747500D02*
X75610000Y-133747500D01*
X75610000Y-133747500D02*
X75610000Y-131062500D01*
%TO.C,Q2*%
X71602500Y-108840000D02*
X73122500Y-108840000D01*
X71602500Y-108890000D02*
X71602500Y-108840000D01*
X71602500Y-110790000D02*
X71602500Y-110010000D01*
X71602500Y-111960000D02*
X71602500Y-111910000D01*
X73122500Y-108840000D02*
X73122500Y-109840000D01*
X73122500Y-110960000D02*
X73122500Y-111960000D01*
X73122500Y-111960000D02*
X71602500Y-111960000D01*
X71062500Y-110020000D02*
X71302500Y-110350000D01*
X70822500Y-110350000D01*
X71062500Y-110020000D01*
G36*
X71302500Y-110350000D02*
G01*
X70822500Y-110350000D01*
X71062500Y-110020000D01*
X71302500Y-110350000D01*
G37*
%TD*%
M02*
